SplineFontDB: 3.0
FontName: Bevan
FullName: Bevan
FamilyName: Bevan
Weight: Book
Copyright: Copyright (c) 2011 by vernon adams. All rights reserved.
Version: 1.000
ItalicAngle: 0
UnderlinePosition: -205
UnderlineWidth: 102
Ascent: 1638
Descent: 410
LayerCount: 2
Layer: 0 0 "Back"  1
Layer: 1 0 "Fore"  0
NeedsXUIDChange: 1
XUID: [1021 823 301787212 14470943]
FSType: 0
OS2Version: 3
OS2_WeightWidthSlopeOnly: 0
OS2_UseTypoMetrics: 1
CreationTime: 1297990544
ModificationTime: 1314000575
PfmFamily: 17
TTFWeight: 400
TTFWidth: 5
LineGap: 0
VLineGap: 0
Panose: 2 0 0 0 0 0 0 0 0 0
OS2TypoAscent: 727
OS2TypoAOffset: 1
OS2TypoDescent: -515
OS2TypoDOffset: 1
OS2TypoLinegap: 0
OS2WinAscent: -20
OS2WinAOffset: 1
OS2WinDescent: 2
OS2WinDOffset: 1
HheadAscent: -20
HheadAOffset: 1
HheadDescent: -2
HheadDOffset: 1
OS2SubXSize: 1434
OS2SubYSize: 1331
OS2SubXOff: 0
OS2SubYOff: 287
OS2SupXSize: 1434
OS2SupYSize: 1331
OS2SupXOff: 0
OS2SupYOff: 977
OS2StrikeYSize: 102
OS2StrikeYPos: 512
OS2Vendor: 'newt'
OS2CodePages: 20000093.00000000
OS2UnicodeRanges: a00000af.5000204b.00000000.00000000
Lookup: 258 0 0 "'kern' Horizontal Kerning in Latin lookup 0"  {"'kern' Horizontal Kerning in Latin lookup 0 per glyph data 0"  "'kern' Horizontal Kerning in Latin lookup 0 per glyph data 1"  "'kern' Horizontal Kerning in Latin lookup 0 kerning class 2"  } ['kern' ('latn' <'dflt' > ) ]
MarkAttachClasses: 1
DEI: 91125
KernClass2: 32+ 34 "'kern' Horizontal Kerning in Latin lookup 0 kerning class 2" 
 50 A Agrave Aacute Acircumflex Atilde Adieresis Aring
 10 C Ccedilla
 59 D O Q Eth Ograve Oacute Ocircumflex Otilde Odieresis Oslash
 43 E AE Egrave Eacute Ecircumflex Edieresis OE
 41 H I M Igrave Iacute Icircumflex Idieresis
 8 L Lslash
 8 N Ntilde
 21 S Scaron Scommaaccent
 22 T Tcommaaccent uni021A
 37 U Ugrave Uacute Ucircumflex Udieresis
 18 Y Yacute Ydieresis
 8 Z Zcaron
 50 a agrave aacute acircumflex atilde adieresis aring
 9 b p thorn
 10 c ccedilla
 18 d l lslash uniFB02

StartChar: exclam
Encoding: 33 33 4
Width: 679
GlyphClass: 2
Flags: HMW
LayerCount: 2
Fore
SplineSet
547 558 m 1
 126 556 l 1
 44 1331 l 1
 44 1630 l 1
 631 1630 l 1
 631 1331 l 1
 547 558 l 1
336 463 m 0
 256.666992188 463 190.666992188 440.5 138 395.5 c 128
 85.3330078125 350.5 59 289.666992188 59 213 c 0
 59 137.666992188 84.8330078125 78 136.5 34 c 128
 188.166992188 -10 254.666992188 -32 336 -32 c 0
 420.666992188 -32 489.666992188 -10 543 34 c 128
 596.333007812 78 623 137.666992188 623 213 c 0
 623 289.666992188 595.5 350.5 540.5 395.5 c 128
 485.5 440.5 417.333007812 463 336 463 c 0
EndSplineSet
EndChar

StartChar: quotedbl
Encoding: 34 34 5
Width: 1148
GlyphClass: 2
Flags: HMW
LayerCount: 2
Fore
SplineSet
41 1624 m 1
 521 1624 l 1
 421 945 l 1
 121 945 l 1
 41 1624 l 1
628 1624 m 1
 1108 1624 l 1
 1008 945 l 1
 708 945 l 1
 628 1624 l 1
EndSplineSet
EndChar

StartChar: numbersign
Encoding: 35 35 6
Width: 1354
GlyphClass: 2
Flags: HMW
LayerCount: 2
Fore
SplineSet
382 1246 m 1
 466 1623 l 1
 790 1623 l 1
 703 1246 l 1
 861 1246 l 1
 945 1623 l 1
 1269 1623 l 1
 1182 1246 l 1
 1322 1246 l 1
 1259 947 l 1
 1114 947 l 1
 1031 585 l 1
 1175 585 l 1
 1112 286 l 1
 962 286 l 1
 897 0 l 1
 584 0 l 1
 647 286 l 1
 483 286 l 1
 418 0 l 1
 105 0 l 1
 168 286 l 1
 32 286 l 1
 95 585 l 1
 235 585 l 1
 315 947 l 1
 179 947 l 1
 242 1246 l 1
 382 1246 l 1
552 585 m 1
 714 585 l 1
 794 947 l 1
 635 947 l 1
 552 585 l 1
EndSplineSet
EndChar

StartChar: dollar
Encoding: 36 36 7
Width: 1294
GlyphClass: 2
Flags: HMW
LayerCount: 2
Fore
SplineSet
58 545 m 1
 305 545 l 1
 309.666992188 488.333007812 339.166992188 433 393.5 379 c 128
 447.833007812 325 499.333007812 298 548 298 c 1
 548 586 l 1
 504 598 466.333007812 609 435 619 c 128
 403.666992188 629 369.5 641.666992188 332.5 657 c 128
 295.5 672.333007812 264.333007812 688.166992188 239 704.5 c 128
 213.666992188 720.833007812 188.333007812 740.666992188 163 764 c 128
 137.666992188 787.333007812 117.5 812.5 102.5 839.5 c 128
 87.5 866.5 75.3330078125 898.166992188 66 934.5 c 128
 56.6669921875 970.833007812 52 1010.33300781 52 1053 c 0
 52 1191 97.8330078125 1300.16699219 189.5 1380.5 c 128
 281.166992188 1460.83300781 402.666992188 1505 554 1513 c 1
 554 1704 l 1
 781 1704 l 1
 781 1494 l 1
 815.666992188 1482 863.666992188 1462 925 1434 c 1
 941 1450 l 1
 968 1477 l 1
 1125 1477 l 2
 1126.33300781 1477 1129.33300781 1476.33300781 1134 1475 c 128
 1138.66699219 1473.66699219 1141.33300781 1473 1142 1473 c 0
 1143 1472 1143 1472 1144.5 1470.5 c 128
 1146 1469 1146 1469 1147 1468 c 128
 1147.66699219 1467.33300781 1148 1466.66699219 1148 1466 c 2
 1148 1040 l 1
 1142 1034 l 1
 1021 1030 l 2
 1020.33300781 1030 1011.83300781 1029.66699219 995.5 1029 c 128
 979.166992188 1028.33300781 968.666992188 1028 964 1028 c 0
 956.666992188 1028 944.333007812 1028.66699219 927 1030 c 1
 917 1040 l 1
 901.666992188 1104 866 1162 810 1214 c 1
 803.333007812 1221.33300781 796.666992188 1225 790 1225 c 0
 782.666992188 1225 779 1223 779 1219 c 2
 779 991 l 1
 833.666992188 976.333007812 882.5 960.666992188 925.5 944 c 128
 968.5 927.333007812 1011 905.833007812 1053 879.5 c 128
 1095 853.166992188 1130.16699219 823.666992188 1158.5 791 c 128
 1186.83300781 758.333007812 1210 718.833007812 1228 672.5 c 128
 1246 626.166992188 1255.66699219 574.666992188 1257 518 c 0
 1259 433.333007812 1238.66699219 354.5 1196 281.5 c 128
 1153.33300781 208.5 1095 150.166992188 1021 106.5 c 128
 947 62.8330078125 866.333007812 39 779 35 c 1
 779 -166 l 1
 548 -166 l 1
 548 48 l 1
 455.333007812 66.6669921875 371.666992188 93.3330078125 297 128 c 1
 253 66 l 1
 58 66 l 1
 58 545 l 1
879 399 m 1
 882.333007812 427 875.666992188 454 859 480 c 128
 842.333007812 506 815.666992188 521.666992188 779 527 c 1
 779 307 l 1
 803.666992188 307 826.5 316.666992188 847.5 336 c 128
 868.5 355.333007812 879 376.333007812 879 399 c 1
438 1180 m 0
 438 1150.66699219 448.5 1125 469.5 1103 c 128
 490.5 1081 518 1066.33300781 552 1059 c 1
 552 1270 l 1
 523.333007812 1271.33300781 497.166992188 1262.83300781 473.5 1244.5 c 128
 449.833007812 1226.16699219 438 1204.66699219 438 1180 c 0
EndSplineSet
EndChar

StartChar: percent
Encoding: 37 37 8
Width: 2693
GlyphClass: 2
Flags: HMW
LayerCount: 2
Fore
SplineSet
1656 521 m 0
 1656 626.333007812 1675.66699219 722.333007812 1715 809 c 128
 1754.33300781 895.666992188 1812 965.166992188 1888 1017.5 c 128
 1964 1069.83300781 2051.33300781 1096 2150 1096 c 0
 2312 1096 2436 1046.66699219 2522 948 c 128
 2608 849.333007812 2651 718.333007812 2651 555 c 0
 2651 479.666992188 2641 408.333007812 2621 341 c 128
 2601 273.666992188 2572 213 2534 159 c 128
 2496 105 2446 62 2384 30 c 128
 2322 -2 2252 -18 2174 -18 c 0
 2010 -18 1882.66699219 30.5 1792 127.5 c 128
 1701.33300781 224.5 1656 355.666992188 1656 521 c 0
2156 755 m 1
 2118.66699219 753 2092 732.333007812 2076 693 c 1
 2065.33300781 665 2060 614 2060 540 c 0
 2060 401.333007812 2091 332 2153 332 c 0
 2167.66699219 332 2180.66699219 334.666992188 2192 340 c 128
 2203.33300781 345.333007812 2212.33300781 353 2219 363 c 128
 2225.66699219 373 2231.33300781 383.5 2236 394.5 c 128
 2240.66699219 405.5 2243.83300781 418.666992188 2245.5 434 c 128
 2247.16699219 449.333007812 2248.33300781 462.666992188 2249 474 c 128
 2249.66699219 485.333007812 2250 498.333007812 2250 513 c 2
 2250 540 l 1
 2250.66699219 557.333007812 2250.83300781 570.833007812 2250.5 580.5 c 128
 2250.16699219 590.166992188 2249.33300781 604.666992188 2248 624 c 128
 2246.66699219 643.333007812 2243.83300781 659.166992188 2239.5 671.5 c 128
 2235.16699219 683.833007812 2229.66699219 696.833007812 2223 710.5 c 128
 2216.33300781 724.166992188 2207.33300781 734.666992188 2196 742 c 128
 2184.66699219 749.333007812 2171.33300781 753.666992188 2156 755 c 1
919 0 m 1
 1260 1623 l 1
 1764 1623 l 1
 1422 0 l 1
 919 0 l 1
37 1078 m 0
 37 1183.33300781 56.6669921875 1279.33300781 96 1366 c 128
 135.333007812 1452.66699219 193 1522.16699219 269 1574.5 c 128
 345 1626.83300781 432.333007812 1653 531 1653 c 0
 693 1653 817 1603.66699219 903 1505 c 128
 989 1406.33300781 1032 1275.33300781 1032 1112 c 0
 1032 1036.66699219 1022 965.333007812 1002 898 c 128
 982 830.666992188 953 770 915 716 c 128
 877 662 827 619 765 587 c 128
 703 555 633 539 555 539 c 0
 391 539 263.666992188 587.5 173 684.5 c 128
 82.3330078125 781.5 37 912.666992188 37 1078 c 0
537 1312 m 1
 499 1310.66699219 472.333007812 1290 457 1250 c 0
 446.333007812 1222 441 1171 441 1097 c 0
 441 958.333007812 472 889 534 889 c 0
 548.666992188 889 561.666992188 891.666992188 573 897 c 128
 584.333007812 902.333007812 593.333007812 910 600 920 c 128
 606.666992188 930 612.333007812 940.5 617 951.5 c 128
 621.666992188 962.5 624.833007812 975.666992188 626.5 991 c 128
 628.166992188 1006.33300781 629.333007812 1019.66699219 630 1031 c 128
 630.666992188 1042.33300781 631 1055.33300781 631 1070 c 2
 632 1096 l 1
 632 1114 631.833007812 1127.83300781 631.5 1137.5 c 128
 631.166992188 1147.16699219 630.333007812 1161.66699219 629 1181 c 128
 627.666992188 1200.33300781 624.833007812 1216.16699219 620.5 1228.5 c 128
 616.166992188 1240.83300781 610.666992188 1253.83300781 604 1267.5 c 128
 597.333007812 1281.16699219 588.333007812 1291.66699219 577 1299 c 128
 565.666992188 1306.33300781 552.333007812 1310.66699219 537 1312 c 1
EndSplineSet
EndChar

StartChar: ampersand
Encoding: 38 38 9
Width: 1723
GlyphClass: 2
Flags: HMW
LayerCount: 2
Fore
SplineSet
1127 0 m 1
 1094.33300781 32.6669921875 1036.66699219 93.6669921875 954 183 c 1
 830.666992188 47 677 -23 493 -27 c 1
 363.666992188 -25.6669921875 256.5 10.6669921875 171.5 82 c 128
 86.5 153.333007812 42.6669921875 252.666992188 40 380 c 1
 42 482.666992188 68.8330078125 568.666992188 120.5 638 c 128
 172.166992188 707.333007812 250 764.333007812 354 809 c 1
 276.666992188 893.666992188 237 994.333007812 235 1111 c 1
 235 1175 247.833007812 1232.83300781 273.5 1284.5 c 128
 299.166992188 1336.16699219 334 1378.66699219 378 1412 c 128
 422 1445.33300781 473 1470.83300781 531 1488.5 c 128
 589 1506.16699219 650.666992188 1515 716 1515 c 0
 767.333007812 1515 818 1507.33300781 868 1492 c 128
 918 1476.66699219 963.333007812 1454.83300781 1004 1426.5 c 128
 1044.66699219 1398.16699219 1077.5 1361.5 1102.5 1316.5 c 128
 1127.5 1271.5 1140 1222.33300781 1140 1169 c 0
 1140 1128.33300781 1137.33300781 1093.83300781 1132 1065.5 c 128
 1126.66699219 1037.16699219 1116.33300781 1010.33300781 1101 985 c 128
 1085.66699219 959.666992188 1069 937.666992188 1051 919 c 128
 1033 900.333007812 1006.33300781 875.333007812 971 844 c 1
 1150 669 l 1
 1177 693 l 2
 1194.33300781 709 1212 727.5 1230 748.5 c 128
 1248 769.5 1257 785.333007812 1257 796 c 0
 1257 819.333007812 1248 831 1230 831 c 2
 1183 831 l 1
 1183 1126 l 1
 1666 1126 l 1
 1666 837 l 1
 1619.33300781 821 1583.66699219 804.166992188 1559 786.5 c 128
 1534.33300781 768.833007812 1500.66699219 738 1458 694 c 2
 1288 518 l 1
 1291.33300781 516.666992188 1340.66699219 466.666992188 1436 368 c 1
 1666 368 l 1
 1666 0 l 1
 1127 0 l 1
497 487 m 0
 497 443 511.666992188 406.666992188 541 378 c 128
 570.333007812 349.333007812 607 335 651 335 c 0
 692.333007812 335 730.333007812 348.333007812 765 375 c 1
 558 589 l 1
 551 584 l 2
 547 581.333007812 542 576.833007812 536 570.5 c 128
 530 564.166992188 524.166992188 557 518.5 549 c 128
 512.833007812 541 507.833007812 531.5 503.5 520.5 c 128
 499.166992188 509.5 497 498.333007812 497 487 c 0
688 1175 m 0
 688 1155 694 1135.16699219 706 1115.5 c 128
 718 1095.83300781 730.333007812 1080 743 1068 c 128
 755.666992188 1056 772.666992188 1041.66699219 794 1025 c 1
 826 1047 849.333007812 1066.83300781 864 1084.5 c 128
 878.666992188 1102.16699219 886 1124.66699219 886 1152 c 0
 886 1186 877.166992188 1214.66699219 859.5 1238 c 128
 841.833007812 1261.33300781 816 1273 782 1273 c 0
 756 1273 733.833007812 1263.16699219 715.5 1243.5 c 128
 697.166992188 1223.83300781 688 1201 688 1175 c 0
EndSplineSet
EndChar

StartChar: quotesingle
Encoding: 39 39 10
Width: 561
GlyphClass: 2
Flags: HMW
LayerCount: 2
Fore
SplineSet
41 1624 m 1
 521 1624 l 1
 421 945 l 1
 121 945 l 1
 41 1624 l 1
EndSplineSet
EndChar

StartChar: parenleft
Encoding: 40 40 11
Width: 952
GlyphClass: 2
Flags: HMW
LayerCount: 2
Fore
SplineSet
906 1321 m 1
 854.666992188 1319.66699219 809 1312.16699219 769 1298.5 c 128
 729 1284.83300781 696.333007812 1265.16699219 671 1239.5 c 128
 645.666992188 1213.83300781 624.5 1186.16699219 607.5 1156.5 c 128
 590.5 1126.83300781 577.833007812 1091.83300781 569.5 1051.5 c 128
 561.166992188 1011.16699219 555.5 973.5 552.5 938.5 c 128
 549.5 903.5 548 864 548 820 c 0
 548 768 550.833007812 719.666992188 556.5 675 c 128
 562.166992188 630.333007812 572.833007812 585.166992188 588.5 539.5 c 128
 604.166992188 493.833007812 624.666992188 455 650 423 c 128
 675.333007812 391 709.333007812 364.833007812 752 344.5 c 128
 794.666992188 324.166992188 844 314 900 314 c 1
 900 -17 l 1
 784.666992188 -17 679.5 -2 584.5 28 c 128
 489.5 58 409 99 343 151 c 128
 277 203 221.166992188 264.5 175.5 335.5 c 128
 129.833007812 406.5 96.5 482.5 75.5 563.5 c 128
 54.5 644.5 44 729.666992188 44 819 c 0
 44 957 60 1076.83300781 92 1178.5 c 128
 124 1280.16699219 174.166992188 1366.83300781 242.5 1438.5 c 128
 310.833007812 1510.16699219 400.166992188 1563.83300781 510.5 1599.5 c 128
 620.833007812 1635.16699219 752.666992188 1653 906 1653 c 1
 906 1321 l 1
EndSplineSet
EndChar

StartChar: parenright
Encoding: 41 41 12
Width: 958
GlyphClass: 2
Flags: HMW
LayerCount: 2
Fore
SplineSet
48 1653 m 1
 201.333007812 1653 333.166992188 1635.16699219 443.5 1599.5 c 128
 553.833007812 1563.83300781 643.166992188 1510.16699219 711.5 1438.5 c 128
 779.833007812 1366.83300781 830 1280.16699219 862 1178.5 c 128
 894 1076.83300781 910 957 910 819 c 0
 910 729.666992188 899.5 644.5 878.5 563.5 c 128
 857.5 482.5 824.166992188 406.5 778.5 335.5 c 128
 732.833007812 264.5 677 203 611 151 c 128
 545 99 464.5 58 369.5 28 c 128
 274.5 -2 169.333007812 -17 54 -17 c 1
 54 314 l 1
 110 314 159.333007812 324.166992188 202 344.5 c 128
 244.666992188 364.833007812 278.666992188 391 304 423 c 128
 329.333007812 455 349.833007812 493.833007812 365.5 539.5 c 128
 381.166992188 585.166992188 391.833007812 630.333007812 397.5 675 c 128
 403.166992188 719.666992188 406 768 406 820 c 0
 406 864 404.5 903.5 401.5 938.5 c 128
 398.5 973.5 392.833007812 1011.16699219 384.5 1051.5 c 128
 376.166992188 1091.83300781 363.5 1126.83300781 346.5 1156.5 c 128
 329.5 1186.16699219 308.333007812 1213.83300781 283 1239.5 c 128
 257.666992188 1265.16699219 225 1284.83300781 185 1298.5 c 128
 145 1312.16699219 99.3330078125 1319.66699219 48 1321 c 1
 48 1653 l 1
EndSplineSet
EndChar

StartChar: asterisk
Encoding: 42 42 13
Width: 1308
GlyphClass: 2
Flags: HMW
LayerCount: 2
Fore
SplineSet
72.98046875 1328 m 1
 96.3134765625 1364.66699219 129.147460938 1387.33300781 171.48046875 1396 c 128
 213.813476562 1404.66699219 260.647460938 1394 311.98046875 1364 c 1
 333.98046875 1349.33300781 358.313476562 1329.16699219 384.98046875 1303.5 c 128
 411.647460938 1277.83300781 432.647460938 1256.5 447.98046875 1239.5 c 128
 463.313476562 1222.5 487.147460938 1194.66699219 519.48046875 1156 c 128
 551.813476562 1117.33300781 571.313476562 1094 577.98046875 1086 c 1
 574.647460938 1096.66699219 565.98046875 1125.83300781 551.98046875 1173.5 c 128
 537.98046875 1221.16699219 527.98046875 1256.33300781 521.98046875 1279 c 128
 515.98046875 1301.66699219 509.647460938 1331 502.98046875 1367 c 128
 496.313476562 1403 492.98046875 1434.33300781 492.98046875 1461 c 0
 492.98046875 1517 508.98046875 1561 540.98046875 1593 c 128
 572.98046875 1625 610.647460938 1641 653.98046875 1641 c 128
 697.313476562 1641 734.98046875 1625 766.98046875 1593 c 128
 798.98046875 1561 814.98046875 1517 814.98046875 1461 c 0
 814.98046875 1439.66699219 813.313476562 1416.66699219 809.98046875 1392 c 128
 806.647460938 1367.33300781 801.313476562 1340.5 793.98046875 1311.5 c 128
 786.647460938 1282.5 780.147460938 1258 774.48046875 1238 c 128
 768.813476562 1218 760.813476562 1190.83300781 750.48046875 1156.5 c 128
 740.147460938 1122.16699219 732.98046875 1098.66699219 728.98046875 1086 c 1
 738.98046875 1097.33300781 758.98046875 1120.83300781 788.98046875 1156.5 c 128
 818.98046875 1192.16699219 842.313476562 1219.5 858.98046875 1238.5 c 128
 875.647460938 1257.5 897.147460938 1279.5 923.48046875 1304.5 c 128
 949.813476562 1329.5 973.98046875 1349.33300781 995.98046875 1364 c 1
 1047.31347656 1394 1094.14746094 1404.66699219 1136.48046875 1396 c 128
 1178.81347656 1387.33300781 1211.64746094 1364.66699219 1234.98046875 1328 c 1
 1250.31347656 1305.33300781 1259.14746094 1280.33300781 1261.48046875 1253 c 128
 1263.81347656 1225.66699219 1257.64746094 1197.66699219 1242.98046875 1169 c 128
 1228.31347656 1140.33300781 1205.31347656 1115.66699219 1173.98046875 1095 c 0
 1141.98046875 1073.66699219 1103.14746094 1054.33300781 1057.48046875 1037 c 128
 1011.81347656 1019.66699219 957.313476562 1001.66699219 893.98046875 983 c 128
 830.647460938 964.333007812 789.313476562 951.666992188 769.98046875 945 c 1
 791.98046875 937 833.813476562 924 895.48046875 906 c 128
 957.147460938 888 1010.98046875 870.166992188 1056.98046875 852.5 c 128
 1102.98046875 834.833007812 1141.98046875 815.666992188 1173.98046875 795 c 0
 1205.31347656 774.333007812 1228.31347656 749.666992188 1242.98046875 721 c 128
 1257.64746094 692.333007812 1263.81347656 664.333007812 1261.48046875 637 c 128
 1259.14746094 609.666992188 1250.31347656 584.666992188 1234.98046875 562 c 1
 1211.64746094 525.333007812 1178.81347656 502.666992188 1136.48046875 494 c 128
 1094.14746094 485.333007812 1047.31347656 496 995.98046875 526 c 1
 973.98046875 540.666992188 949.647460938 560.666992188 922.98046875 586 c 128
 896.313476562 611.333007812 875.147460938 632.833007812 859.48046875 650.5 c 128
 843.813476562 668.166992188 820.147460938 695.833007812 788.48046875 733.5 c 128
 756.813476562 771.166992188 736.98046875 794.666992188 728.98046875 804 c 1
 731.647460938 795.333007812 740.48046875 766.166992188 755.48046875 716.5 c 128
 770.48046875 666.833007812 780.813476562 631.333007812 786.48046875 610 c 128
 792.147460938 588.666992188 798.313476562 559.833007812 804.98046875 523.5 c 128
 811.647460938 487.166992188 814.98046875 455.666992188 814.98046875 429 c 0
 814.98046875 373 798.98046875 329 766.98046875 297 c 128
 734.98046875 265 697.313476562 249 653.98046875 249 c 128
 610.647460938 249 572.98046875 265 540.98046875 297 c 128
 508.98046875 329 492.98046875 373 492.98046875 429 c 0
 492.98046875 455.666992188 496.313476562 486.833007812 502.98046875 522.5 c 128
 509.647460938 558.166992188 515.98046875 587.833007812 521.98046875 611.5 c 128
 527.98046875 635.166992188 537.813476562 669.833007812 551.48046875 715.5 c 128
 565.147460938 761.166992188 573.98046875 790.666992188 577.98046875 804 c 1
 574.647460938 800 555.313476562 776.833007812 519.98046875 734.5 c 128
 484.647460938 692.166992188 460.313476562 663.5 446.98046875 648.5 c 128
 433.647460938 633.5 413.313476562 613 385.98046875 587 c 128
 358.647460938 561 333.98046875 540.666992188 311.98046875 526 c 1
 260.647460938 496 213.813476562 485.333007812 171.48046875 494 c 128
 129.147460938 502.666992188 96.3134765625 525.333007812 72.98046875 562 c 1
 57.6474609375 584.666992188 48.8134765625 609.666992188 46.48046875 637 c 128
 44.1474609375 664.333007812 50.3134765625 692.333007812 64.98046875 721 c 128
 79.6474609375 749.666992188 102.647460938 774.333007812 133.98046875 795 c 0
 165.98046875 815.666992188 204.98046875 834.833007812 250.98046875 852.5 c 128
 296.98046875 870.166992188 350.813476562 888.166992188 412.48046875 906.5 c 128
 474.147460938 924.833007812 515.647460938 937.666992188 536.98046875 945 c 1
 517.647460938 951.666992188 476.313476562 964.333007812 412.98046875 983 c 128
 349.647460938 1001.66699219 295.313476562 1019.66699219 249.98046875 1037 c 128
 204.647460938 1054.33300781 165.98046875 1073.66699219 133.98046875 1095 c 0
 102.647460938 1115.66699219 79.6474609375 1140.33300781 64.98046875 1169 c 128
 50.3134765625 1197.66699219 44.1474609375 1225.66699219 46.48046875 1253 c 128
 48.8134765625 1280.33300781 57.6474609375 1305.33300781 72.98046875 1328 c 1
EndSplineSet
EndChar

StartChar: plus
Encoding: 43 43 14
Width: 895
GlyphClass: 2
Flags: HMW
LayerCount: 2
Fore
SplineSet
53 762 m 1
 325 762 l 1
 325 1051 l 1
 580 1051 l 1
 580 762 l 1
 845 762 l 1
 845 517 l 1
 580 517 l 1
 580 238 l 1
 325 238 l 1
 325 517 l 1
 53 517 l 1
 53 762 l 1
EndSplineSet
EndChar

StartChar: comma
Encoding: 44 44 15
Width: 658
GlyphClass: 2
Flags: HMW
LayerCount: 2
Fore
SplineSet
66 -223 m 1
 96 -223 122 -220.833007812 144 -216.5 c 128
 166 -212.166992188 183.833007812 -204.833007812 197.5 -194.5 c 128
 211.166992188 -184.166992188 222 -173.666992188 230 -163 c 128
 238 -152.333007812 243.833007812 -137 247.5 -117 c 128
 251.166992188 -97 253.333007812 -79.5 254 -64.5 c 128
 254.666992188 -49.5 255 -28 255 0 c 1
 66 0 l 1
 66 366 l 1
 576 366 l 1
 592 263.333007812 600 171 600 89 c 0
 600 -96.3330078125 556.666992188 -232.166992188 470 -318.5 c 128
 383.333007812 -404.833007812 248.666992188 -448 66 -448 c 1
 66 -223 l 1
EndSplineSet
EndChar

StartChar: hyphen
Encoding: 45 45 16
Width: 778
GlyphClass: 2
Flags: HMW
LayerCount: 2
Fore
SplineSet
713 836 m 1
 713 537 l 1
 66 537 l 1
 66 836 l 1
 713 836 l 1
EndSplineSet
EndChar

StartChar: period
Encoding: 46 46 17
Width: 677
GlyphClass: 2
Flags: HMW
LayerCount: 2
Fore
SplineSet
336 -27 m 0
 256.666992188 -27 190.666992188 -4.5 138 40.5 c 128
 85.3330078125 85.5 59 146.333007812 59 223 c 0
 59 298.333007812 84.8330078125 358 136.5 402 c 128
 188.166992188 446 254.666992188 468 336 468 c 0
 420.666992188 468 489.666992188 446 543 402 c 128
 596.333007812 358 623 298.333007812 623 223 c 0
 623 146.333007812 595.5 85.5 540.5 40.5 c 128
 485.5 -4.5 417.333007812 -27 336 -27 c 0
EndSplineSet
EndChar

StartChar: slash
Encoding: 47 47 18
Width: 915
GlyphClass: 2
Flags: HMW
LayerCount: 2
Fore
SplineSet
30 0 m 1
 521 1623 l 1
 885 1623 l 1
 383 0 l 1
 30 0 l 1
EndSplineSet
EndChar

StartChar: zero
Encoding: 48 48 19
Width: 1326
GlyphClass: 2
Flags: HMW
LayerCount: 2
Fore
SplineSet
46 695 m 0
 46 789.666992188 60.5 877.833007812 89.5 959.5 c 128
 118.5 1041.16699219 159.333007812 1111.83300781 212 1171.5 c 128
 264.666992188 1231.16699219 329.833007812 1278.16699219 407.5 1312.5 c 128
 485.166992188 1346.83300781 570.666992188 1364.33300781 664 1365 c 1
 756 1364.33300781 840.833007812 1346.83300781 918.5 1312.5 c 128
 996.166992188 1278.16699219 1061.33300781 1231.16699219 1114 1171.5 c 128
 1166.66699219 1111.83300781 1207.5 1041.16699219 1236.5 959.5 c 128
 1265.5 877.833007812 1280 789.666992188 1280 695 c 0
 1280 551 1257.83300781 425.666992188 1213.5 319 c 128
 1169.16699219 212.333007812 1100.16699219 128 1006.5 66 c 128
 912.833007812 4 798.666992188 -26.6669921875 664 -26 c 1
 528 -26.6669921875 413.166992188 4 319.5 66 c 128
 225.833007812 128 156.833007812 212.333007812 112.5 319 c 128
 68.1669921875 425.666992188 46 551 46 695 c 0
663 349 m 0
 692.333007812 349 716.5 359.333007812 735.5 380 c 128
 754.5 400.666992188 768 429.333007812 776 466 c 128
 784 502.666992188 789.166992188 535.833007812 791.5 565.5 c 128
 793.833007812 595.166992188 795 629.666992188 795 669 c 0
 795 678 795 678 795 697 c 0
 795 715 795.166992188 733.5 795.5 752.5 c 128
 795.833007812 771.5 795 790.833007812 793 810.5 c 128
 791 830.166992188 788.666992188 849 786 867 c 128
 783.333007812 885 778.666992188 902 772 918 c 128
 765.333007812 934 757.333007812 948 748 960 c 128
 738.666992188 972 726.833007812 981.333007812 712.5 988 c 128
 698.166992188 994.666992188 681.666992188 998 663 998 c 0
 641.666992188 998 622.833007812 993.5 606.5 984.5 c 128
 590.166992188 975.5 577.5 963.166992188 568.5 947.5 c 128
 559.5 931.833007812 552 913.833007812 546 893.5 c 128
 540 873.166992188 536.333007812 851.833007812 535 829.5 c 128
 533.666992188 807.166992188 532.333007812 784.666992188 531 762 c 128
 529.666992188 739.333007812 529.666992188 717.666992188 531 697 c 1
 531 678 531 678 531 669 c 0
 531 638.333007812 531.5 611.333007812 532.5 588 c 128
 533.5 564.666992188 536.666992188 537 542 505 c 128
 547.333007812 473 554.333007812 446.5 563 425.5 c 128
 571.666992188 404.5 584.666992188 386.5 602 371.5 c 128
 619.333007812 356.5 639.666992188 349 663 349 c 0
EndSplineSet
EndChar

StartChar: one
Encoding: 49 49 20
Width: 840
GlyphClass: 2
Flags: HMW
LayerCount: 2
Fore
SplineSet
111 0 m 1
 110 325 l 1
 200 324 l 1
 200 951 l 1
 36 950 l 1
 36 1208 l 1
 698 1375 l 1
 704 324 l 1
 800 324 l 1
 800 0 l 1
 111 0 l 1
EndSplineSet
EndChar

StartChar: two
Encoding: 50 50 21
Width: 1267
GlyphClass: 2
Flags: HMW
LayerCount: 2
Fore
SplineSet
1222.22265625 0 m 1
 1222.22265625 471 l 1
 1049.22265625 471 l 1
 1049.22265625 441 1043.55566406 416.166992188 1032.22265625 396.5 c 128
 1020.88867188 376.833007812 1004.38867188 362 982.72265625 352 c 128
 961.055664062 342 938.72265625 335 915.72265625 331 c 128
 892.72265625 327 865.22265625 324.666992188 833.22265625 324 c 1
 672.22265625 324 l 1
 730.22265625 367.333007812 772.888671875 399.5 800.22265625 420.5 c 128
 827.555664062 441.5 866.22265625 474.333007812 916.22265625 519 c 128
 966.22265625 563.666992188 1004.88867188 603.666992188 1032.22265625 639 c 0
 1102.88867188 729.666992188 1138.22265625 826 1138.22265625 928 c 0
 1138.22265625 998.666992188 1124.55566406 1062.83300781 1097.22265625 1120.5 c 128
 1069.88867188 1178.16699219 1032.38867188 1225.83300781 984.72265625 1263.5 c 128
 937.055664062 1301.16699219 881.888671875 1330.5 819.22265625 1351.5 c 128
 756.555664062 1372.5 688.888671875 1384.33300781 616.22265625 1387 c 0
 562.22265625 1389 508.055664062 1384.5 453.72265625 1373.5 c 128
 399.388671875 1362.5 347.555664062 1344.83300781 298.22265625 1320.5 c 128
 248.888671875 1296.16699219 205.055664062 1266.66699219 166.72265625 1232 c 128
 128.388671875 1197.33300781 97.888671875 1155.66699219 75.22265625 1107 c 128
 52.5556640625 1058.33300781 41.5556640625 1006 42.22265625 950 c 1
 40.22265625 879.333007812 51.72265625 812.333007812 76.72265625 749 c 128
 101.72265625 685.666992188 139.555664062 631.333007812 190.22265625 586 c 1
 416.22265625 760 l 1
 411.555664062 764.666992188 405.72265625 770.833007812 398.72265625 778.5 c 128
 391.72265625 786.166992188 382.555664062 801.333007812 371.22265625 824 c 128
 359.888671875 846.666992188 354.22265625 868.333007812 354.22265625 889 c 0
 354.22265625 930.333007812 365.888671875 964.333007812 389.22265625 991 c 128
 412.555664062 1017.66699219 445.888671875 1031 489.22265625 1031 c 0
 524.555664062 1031 555.555664062 1015.16699219 582.22265625 983.5 c 128
 608.888671875 951.833007812 623.555664062 910.333007812 626.22265625 859 c 1
 626.22265625 817 620.72265625 778.5 609.72265625 743.5 c 128
 598.72265625 708.5 581.22265625 675.333007812 557.22265625 644 c 128
 533.22265625 612.666992188 510.72265625 586.666992188 489.72265625 566 c 128
 468.72265625 545.333007812 439.22265625 519 401.22265625 487 c 0
 315.22265625 413.666992188 207.888671875 352.333007812 79.22265625 303 c 1
 79.22265625 0 l 1
 1222.22265625 0 l 1
EndSplineSet
EndChar

StartChar: three
Encoding: 51 51 22
Width: 1226
GlyphClass: 2
Flags: HMW
LayerCount: 2
Fore
SplineSet
66 424 m 1
 66 78 l 1
 125.333007812 38 192.833007812 12 268.5 0 c 128
 344.166992188 -12 434.666992188 -18 540 -18 c 0
 740 -18 898.166992188 24.6669921875 1014.5 110 c 128
 1130.83300781 195.333007812 1189 316.666992188 1189 474 c 0
 1189 567.333007812 1154.5 651.333007812 1085.5 726 c 128
 1016.5 800.666992188 934 842.333007812 838 851 c 1
 1027.33300781 1007 1122 1086 1122 1088 c 2
 1122 1352 l 1
 53 1352 l 1
 53 899 l 1
 247 898 l 1
 261 951.333007812 273 985.333007812 283 1000 c 0
 302.333007812 1027.33300781 336 1041 384 1041 c 2
 604 1041 l 1
 604 1031 l 1
 262 740 l 1
 262 582 l 1
 262 582 262 582 263 577 c 1
 267 573.666992188 273.666992188 572 283 572 c 0
 287 572 302.666992188 575.333007812 330 582 c 128
 357.333007812 588.666992188 384 592 410 592 c 0
 440 592 468.666992188 589.333007812 496 584 c 128
 523.333007812 578.666992188 549.666992188 570 575 558 c 128
 600.333007812 546 620.666992188 528.5 636 505.5 c 128
 651.333007812 482.5 659 455.333007812 659 424 c 0
 659 396.666992188 652 373.166992188 638 353.5 c 128
 624 333.833007812 605.5 318.666992188 582.5 308 c 128
 559.5 297.333007812 535.833007812 289.666992188 511.5 285 c 128
 487.166992188 280.333007812 462 278 436 278 c 0
 310 278 186.666992188 326.666992188 66 424 c 1
EndSplineSet
EndChar

StartChar: four
Encoding: 52 52 23
Width: 1307
GlyphClass: 2
Flags: HMW
LayerCount: 2
Fore
SplineSet
1037 288 m 1
 1159 288 l 1
 1159 0 l 1
 454 0 l 1
 454 288 l 1
 581 288 l 1
 581 420 l 1
 48 419 l 1
 48 688 l 1
 599 1342 l 1
 1038 1341 l 1
 1038 675 l 1
 1265 677 l 1
 1265 420 l 1
 1037 420 l 1
 1037 288 l 1
581 677 m 1
 581 911 l 1
 392 678 l 1
 581 677 l 1
EndSplineSet
EndChar

StartChar: five
Encoding: 53 53 24
Width: 1098
GlyphClass: 2
Flags: HMW
LayerCount: 2
Fore
SplineSet
70 75 m 1
 100.666992188 45 152.666992188 22 226 6 c 128
 299.333007812 -10 369 -18 435 -18 c 0
 503 -18 567.5 -11.6669921875 628.5 1 c 128
 689.5 13.6669921875 746.5 34 799.5 62 c 128
 852.5 90 898.166992188 124.333007812 936.5 165 c 128
 974.833007812 205.666992188 1005 255.666992188 1027 315 c 128
 1049 374.333007812 1060 440.333007812 1060 513 c 0
 1060 635.666992188 1014.16699219 737.666992188 922.5 819 c 128
 830.833007812 900.333007812 718.333007812 941 585 941 c 0
 547.666992188 941 511.5 939.5 476.5 936.5 c 128
 441.5 933.5 415.666992188 930.666992188 399 928 c 2
 374 924 l 1
 374 1063 l 1
 985 1063 l 1
 985 1360 l 1
 69 1360 l 1
 69 566 l 1
 81 555 l 1
 138.333007812 597.666992188 197.666992188 619 259 619 c 0
 298.333007812 619 336.333007812 613.666992188 373 603 c 128
 409.666992188 592.333007812 441.833007812 573.333007812 469.5 546 c 128
 497.166992188 518.666992188 511 485.333007812 511 446 c 0
 511 414 502.333007812 386.333007812 485 363 c 128
 467.666992188 339.666992188 445.833007812 322.5 419.5 311.5 c 128
 393.166992188 300.5 368.5 292.666992188 345.5 288 c 128
 322.5 283.333007812 301.333007812 281 282 281 c 0
 259.333007812 281 230.333007812 286.5 195 297.5 c 128
 159.666992188 308.5 130 319.333007812 106 330 c 2
 70 347 l 1
 70 75 l 1
EndSplineSet
EndChar

StartChar: six
Encoding: 54 54 25
Width: 1329
GlyphClass: 2
Flags: HMW
LayerCount: 2
Fore
SplineSet
575 1345 m 1
 565.666992188 1335.66699219 547.5 1318 520.5 1292 c 128
 493.5 1266 471.833007812 1245 455.5 1229 c 128
 439.166992188 1213 416.5 1190 387.5 1160 c 128
 358.5 1130 334.333007812 1104.16699219 315 1082.5 c 128
 295.666992188 1060.83300781 272.833007812 1033.83300781 246.5 1001.5 c 128
 220.166992188 969.166992188 198.333007812 939.666992188 181 913 c 128
 163.666992188 886.333007812 145.5 856.166992188 126.5 822.5 c 128
 107.5 788.833007812 92.3330078125 757 81 727 c 128
 69.6669921875 697 60.3330078125 665.333007812 53 632 c 128
 45.6669921875 598.666992188 42 566 42 534 c 0
 42 424.666992188 70.1669921875 327.666992188 126.5 243 c 128
 182.833007812 158.333007812 258.333007812 93.6669921875 353 49 c 128
 447.666992188 4.3330078125 553 -18 669 -18 c 0
 777 -18 878.166992188 6 972.5 54 c 128
 1066.83300781 102 1143 169.333007812 1201 256 c 128
 1259 342.666992188 1288.33300781 438.666992188 1289 544 c 0
 1290.33300781 684.666992188 1247.83300781 797.833007812 1161.5 883.5 c 128
 1075.16699219 969.166992188 960 1015.66699219 816 1023 c 1
 822.666992188 1041 850.166992188 1076.16699219 898.5 1128.5 c 128
 946.833007812 1180.83300781 994.333007812 1229.83300781 1041 1275.5 c 128
 1087.66699219 1321.16699219 1111 1344.33300781 1111 1345 c 1
 575 1345 l 1
558 550 m 0
 558 575.333007812 558.333007812 596 559 612 c 128
 559.666992188 628 562.166992188 647.333007812 566.5 670 c 128
 570.833007812 692.666992188 576.833007812 710.666992188 584.5 724 c 128
 592.166992188 737.333007812 603.666992188 749 619 759 c 128
 634.333007812 769 653 774.333007812 675 775 c 0
 695 775 712.166992188 768.666992188 726.5 756 c 128
 740.833007812 743.333007812 751.166992188 729.333007812 757.5 714 c 128
 763.833007812 698.666992188 768.833007812 678 772.5 652 c 128
 776.166992188 626 778.166992188 606.833007812 778.5 594.5 c 128
 778.833007812 582.166992188 779 565.333007812 779 544 c 0
 779 399.333007812 740.333007812 327 663 327 c 0
 640.333007812 327 621.5 335.166992188 606.5 351.5 c 128
 591.5 367.833007812 580.833007812 389.166992188 574.5 415.5 c 128
 568.166992188 441.833007812 563.833007812 465.333007812 561.5 486 c 128
 559.166992188 506.666992188 558 528 558 550 c 0
EndSplineSet
EndChar

StartChar: seven
Encoding: 55 55 26
Width: 1233
GlyphClass: 2
Flags: HMW
LayerCount: 2
Fore
SplineSet
46 878 m 1
 264 878 l 1
 264 934.666992188 274.333007812 972.5 295 991.5 c 128
 315.666992188 1010.5 349 1020 395 1020 c 2
 636 1020 l 1
 131 0 l 1
 663 0 l 1
 1189 1067 l 1
 1189 1337 l 1
 46 1337 l 1
 46 878 l 1
EndSplineSet
EndChar

StartChar: eight
Encoding: 56 56 27
Width: 1275
GlyphClass: 2
Flags: HMW
LayerCount: 2
Fore
SplineSet
39 375 m 0
 39 545 126 663.333007812 300 730 c 1
 242 752 196.833007812 787.666992188 164.5 837 c 128
 132.166992188 886.333007812 116 944 116 1010 c 0
 116 1067.33300781 128 1118.33300781 152 1163 c 128
 176 1207.66699219 206.166992188 1243.16699219 242.5 1269.5 c 128
 278.833007812 1295.83300781 321.333007812 1317.33300781 370 1334 c 128
 418.666992188 1350.66699219 464.666992188 1362 508 1368 c 128
 551.333007812 1374 595.333007812 1377.33300781 640 1378 c 1
 683.333007812 1377.33300781 726.666992188 1374 770 1368 c 128
 813.333007812 1362 859.333007812 1350.66699219 908 1334 c 128
 956.666992188 1317.33300781 999.166992188 1295.83300781 1035.5 1269.5 c 128
 1071.83300781 1243.16699219 1102 1207.66699219 1126 1163 c 128
 1150 1118.33300781 1162 1067.33300781 1162 1010 c 0
 1162 944 1145.83300781 886.333007812 1113.5 837 c 128
 1081.16699219 787.666992188 1036 752 978 730 c 1
 1152 663.333007812 1239 545 1239 375 c 0
 1239 313 1225.66699219 258 1199 210 c 128
 1172.33300781 162 1138.83300781 124 1098.5 96 c 128
 1058.16699219 68 1010.16699219 45 954.5 27 c 128
 898.833007812 9 845.833007812 -3 795.5 -9 c 128
 745.166992188 -15 693 -18 639 -18 c 256
 585 -18 532.833007812 -15 482.5 -9 c 128
 432.166992188 -3 379.166992188 9 323.5 27 c 128
 267.833007812 45 219.833007812 68 179.5 96 c 128
 139.166992188 124 105.666992188 162 79 210 c 128
 52.3330078125 258 39 313 39 375 c 0
559 406 m 0
 559 295.333007812 585.666992188 240 639 240 c 256
 692.333007812 240 719 295.333007812 719 406 c 0
 719 520.666992188 693 578 641 578 c 0
 586.333007812 578 559 520.666992188 559 406 c 0
559 986 m 0
 559 878 586.333007812 824.666992188 641 826 c 1
 693 824.666992188 719 878 719 986 c 0
 719 1004.66699219 718.166992188 1020.5 716.5 1033.5 c 128
 714.833007812 1046.5 711.666992188 1060.5 707 1075.5 c 128
 702.333007812 1090.5 694.166992188 1101.83300781 682.5 1109.5 c 128
 670.833007812 1117.16699219 657 1121.33300781 641 1122 c 1
 622.333007812 1121.33300781 607.166992188 1117.16699219 595.5 1109.5 c 128
 583.833007812 1101.83300781 575.666992188 1090.5 571 1075.5 c 128
 566.333007812 1060.5 563.166992188 1046.5 561.5 1033.5 c 128
 559.833007812 1020.5 559 1004.66699219 559 986 c 0
EndSplineSet
EndChar

StartChar: nine
Encoding: 57 57 28
Width: 1341
GlyphClass: 2
Flags: HMW
LayerCount: 2
Fore
SplineSet
226 0 m 1
 763 0 l 1
 777.666992188 15.3330078125 801.166992188 39.3330078125 833.5 72 c 128
 865.833007812 104.666992188 894 133.166992188 918 157.5 c 128
 942 181.833007812 971 212.666992188 1005 250 c 128
 1039 287.333007812 1068.33300781 321.666992188 1093 353 c 128
 1117.66699219 384.333007812 1143.5 420.333007812 1170.5 461 c 128
 1197.5 501.666992188 1219.5 540 1236.5 576 c 128
 1253.5 612 1267.5 650.833007812 1278.5 692.5 c 128
 1289.5 734.166992188 1295 774.333007812 1295 813 c 0
 1295 918.333007812 1268.5 1013.33300781 1215.5 1098 c 128
 1162.5 1182.66699219 1089.5 1248.83300781 996.5 1296.5 c 128
 903.5 1344.16699219 799.666992188 1368 685 1368 c 0
 497 1368 343.166992188 1312.66699219 223.5 1202 c 128
 103.833007812 1091.33300781 44 951.333007812 44 782 c 0
 44 651.333007812 90.3330078125 541.833007812 183 453.5 c 128
 275.666992188 365.166992188 391 321 529 321 c 1
 501.666992188 286.333007812 462.666992188 242.333007812 412 189 c 128
 361.333007812 135.666992188 317.666992188 90.6669921875 281 54 c 2
 226 0 l 1
566 782 m 0
 566 935.333007812 603 1012 677 1012 c 0
 697 1012 714 1003.33300781 728 986 c 128
 742 968.666992188 751.833007812 946.5 757.5 919.5 c 128
 763.166992188 892.5 767.166992188 868.666992188 769.5 848 c 128
 771.833007812 827.333007812 773 808 773 790 c 0
 773 645.333007812 740.333007812 573 675 573 c 0
 602.333007812 573 566 642.666992188 566 782 c 0
EndSplineSet
EndChar

StartChar: colon
Encoding: 58 58 29
Width: 675
GlyphClass: 2
Flags: HMW
LayerCount: 2
Fore
SplineSet
333 596 m 0
 253.666992188 596 187.666992188 618.5 135 663.5 c 128
 82.3330078125 708.5 56 769.333007812 56 846 c 0
 56 921.333007812 81.8330078125 981 133.5 1025 c 128
 185.166992188 1069 251.666992188 1091 333 1091 c 0
 417.666992188 1091 486.666992188 1069 540 1025 c 128
 593.333007812 981 620 921.333007812 620 846 c 0
 620 769.333007812 592.5 708.5 537.5 663.5 c 128
 482.5 618.5 414.333007812 596 333 596 c 0
333 -18 m 0
 253.666992188 -18 187.666992188 4.5 135 49.5 c 128
 82.3330078125 94.5 56 155.333007812 56 232 c 0
 56 307.333007812 81.8330078125 367 133.5 411 c 128
 185.166992188 455 251.666992188 477 333 477 c 0
 417.666992188 477 486.666992188 455 540 411 c 128
 593.333007812 367 620 307.333007812 620 232 c 0
 620 155.333007812 592.5 94.5 537.5 49.5 c 128
 482.5 4.5 414.333007812 -18 333 -18 c 0
EndSplineSet
EndChar

StartChar: semicolon
Encoding: 59 59 30
Width: 673
GlyphClass: 2
Flags: HMW
LayerCount: 2
Fore
SplineSet
68 -448 m 1
 250.666992188 -448 385.333007812 -404.833007812 472 -318.5 c 128
 558.666992188 -232.166992188 602 -96.3330078125 602 89 c 0
 602 171 594 263.333007812 578 366 c 1
 68 366 l 1
 68 0 l 1
 257 0 l 1
 257 -28 256.666992188 -49.5 256 -64.5 c 128
 255.333007812 -79.5 253.166992188 -97 249.5 -117 c 128
 245.833007812 -137 240 -152.333007812 232 -163 c 128
 224 -173.666992188 213.166992188 -184.166992188 199.5 -194.5 c 128
 185.833007812 -204.833007812 168 -212.166992188 146 -216.5 c 128
 124 -220.833007812 98 -223 68 -223 c 1
 68 -448 l 1
335 595 m 0
 255.666992188 595 189.666992188 617.5 137 662.5 c 128
 84.3330078125 707.5 58 768.333007812 58 845 c 0
 58 920.333007812 83.8330078125 980 135.5 1024 c 128
 187.166992188 1068 253.666992188 1090 335 1090 c 0
 419.666992188 1090 488.666992188 1068 542 1024 c 128
 595.333007812 980 622 920.333007812 622 845 c 0
 622 768.333007812 594.5 707.5 539.5 662.5 c 128
 484.5 617.5 416.333007812 595 335 595 c 0
EndSplineSet
EndChar

StartChar: less
Encoding: 60 60 31
Width: 822
GlyphClass: 2
Flags: HMW
LayerCount: 2
Fore
SplineSet
49 946 m 1
 764 1542 l 1
 764 1077 l 1
 431 761 l 1
 764 445 l 1
 764 -20 l 1
 49 576 l 1
 49 946 l 1
EndSplineSet
EndChar

StartChar: equal
Encoding: 61 61 32
Width: 793
GlyphClass: 2
Flags: HMW
LayerCount: 2
Fore
SplineSet
723 392 m 1
 723 169 l 1
 76 169 l 1
 76 392 l 1
 723 392 l 1
723 761 m 1
 723 538 l 1
 76 538 l 1
 76 761 l 1
 723 761 l 1
EndSplineSet
EndChar

StartChar: greater
Encoding: 62 62 33
Width: 825
GlyphClass: 2
Flags: HMW
LayerCount: 2
Fore
SplineSet
773 576 m 1
 58 -20 l 1
 58 445 l 1
 391 761 l 1
 58 1077 l 1
 58 1542 l 1
 773 946 l 1
 773 576 l 1
EndSplineSet
EndChar

StartChar: question
Encoding: 63 63 34
Width: 1280
GlyphClass: 2
Flags: HMW
LayerCount: 2
Fore
SplineSet
334 891 m 1
 598 1010.33300781 730 1129.66699219 730 1249 c 0
 730 1259.66699219 728.833007812 1271.16699219 726.5 1283.5 c 128
 724.166992188 1295.83300781 720.166992188 1310 714.5 1326 c 128
 708.833007812 1342 699 1355.16699219 685 1365.5 c 128
 671 1375.83300781 654 1381 634 1381 c 0
 554 1381 510.666992188 1327 504 1219 c 1
 32 1219 l 1
 41.3330078125 1369.66699219 102.5 1493.66699219 215.5 1591 c 128
 328.5 1688.33300781 470.666992188 1737 642 1737 c 0
 754.666992188 1737 856.833007812 1717 948.5 1677 c 128
 1040.16699219 1637 1112 1581.5 1164 1510.5 c 128
 1216 1439.5 1242 1360 1242 1272 c 0
 1242 1226.66699219 1235.5 1183.66699219 1222.5 1143 c 128
 1209.5 1102.33300781 1193 1066.5 1173 1035.5 c 128
 1153 1004.5 1127.16699219 974.666992188 1095.5 946 c 128
 1063.83300781 917.333007812 1032.83300781 893 1002.5 873 c 128
 972.166992188 853 936.5 833.166992188 895.5 813.5 c 128
 854.5 793.833007812 818.5 777.833007812 787.5 765.5 c 128
 756.5 753.166992188 720.666992188 740 680 726 c 1
 680 539 l 1
 333 539 l 1
 334 891 l 1
513 -27 m 0
 433.666992188 -27 367.666992188 -4.5 315 40.5 c 128
 262.333007812 85.5 236 146.333007812 236 223 c 0
 236 298.333007812 261.833007812 358 313.5 402 c 128
 365.166992188 446 431.666992188 468 513 468 c 0
 597.666992188 468 666.666992188 446 720 402 c 128
 773.333007812 358 800 298.333007812 800 223 c 0
 800 146.333007812 772.5 85.5 717.5 40.5 c 128
 662.5 -4.5 594.333007812 -27 513 -27 c 0
EndSplineSet
EndChar

StartChar: at
Encoding: 64 64 35
Width: 1848
GlyphClass: 2
Flags: HMW
LayerCount: 2
Fore
SplineSet
1361 398 m 1
 1377 398 1391.33300781 399.5 1404 402.5 c 128
 1416.66699219 405.5 1430.66699219 412.5 1446 423.5 c 128
 1461.33300781 434.5 1474 449.5 1484 468.5 c 128
 1494 487.5 1502.33300781 514.833007812 1509 550.5 c 128
 1515.66699219 586.166992188 1519 628.333007812 1519 677 c 0
 1519 810.333007812 1470.66699219 917 1374 997 c 128
 1277.33300781 1077 1135.66699219 1117 949 1117 c 0
 759.666992188 1117 614 1067.33300781 512 968 c 128
 410 868.666992188 359 735 359 567 c 0
 359 493 372.5 424.166992188 399.5 360.5 c 128
 426.5 296.833007812 466 240.833007812 518 192.5 c 128
 570 144.166992188 637.166992188 106.166992188 719.5 78.5 c 128
 801.833007812 50.8330078125 895 37 999 37 c 0
 1057 37 1111.33300781 44.3330078125 1162 59 c 1
 1214 -169 l 1
 1140.66699219 -188.333007812 1069 -198 999 -198 c 0
 849.666992188 -198 714 -177.833007812 592 -137.5 c 128
 470 -97.1669921875 369.5 -42.1669921875 290.5 27.5 c 128
 211.5 97.1669921875 150.666992188 178.166992188 108 270.5 c 128
 65.3330078125 362.833007812 44 461.666992188 44 567 c 0
 44 677.666992188 64.3330078125 781.5 105 878.5 c 128
 145.666992188 975.5 203.666992188 1060.66699219 279 1134 c 128
 354.333007812 1207.33300781 449.666992188 1265.33300781 565 1308 c 128
 680.333007812 1350.66699219 808.333007812 1372 949 1372 c 0
 1080.33300781 1372 1200.33300781 1353.83300781 1309 1317.5 c 128
 1417.66699219 1281.16699219 1507.83300781 1231.5 1579.5 1168.5 c 128
 1651.16699219 1105.5 1706.5 1031.83300781 1745.5 947.5 c 128
 1784.5 863.166992188 1804 773 1804 677 c 0
 1804 607 1793.16699219 543.833007812 1771.5 487.5 c 128
 1749.83300781 431.166992188 1716.5 381.5 1671.5 338.5 c 128
 1626.5 295.5 1566.66699219 262.333007812 1492 239 c 128
 1417.33300781 215.666992188 1329.66699219 204 1229 204 c 2
 1079 204 l 1
 1041 294 l 1
 1017.66699219 261.333007812 985.833007812 235.833007812 945.5 217.5 c 128
 905.166992188 199.166992188 866 190 828 190 c 0
 748.666992188 190 681.166992188 226.5 625.5 299.5 c 128
 569.833007812 372.5 542 468.666992188 542 588 c 0
 542 639.333007812 550 686.833007812 566 730.5 c 128
 582 774.166992188 606.166992188 813.833007812 638.5 849.5 c 128
 670.833007812 885.166992188 715.166992188 913.166992188 771.5 933.5 c 128
 827.833007812 953.833007812 893 964 967 964 c 0
 986.333007812 964 1003.66699219 963.666992188 1019 963 c 128
 1034.33300781 962.333007812 1056.5 959.5 1085.5 954.5 c 128
 1114.5 949.5 1140 942.666992188 1162 934 c 128
 1184 925.333007812 1208.16699219 912 1234.5 894 c 128
 1260.83300781 876 1282.5 854.833007812 1299.5 830.5 c 128
 1316.5 806.166992188 1330.83300781 774.333007812 1342.5 735 c 128
 1354.16699219 695.666992188 1360 651.666992188 1360 603 c 2
 1361 398 l 1
885 582 m 0
 885 520 891.666992188 469.833007812 905 431.5 c 128
 918.333007812 393.166992188 936 374 958 374 c 0
 994.666992188 374 1022.33300781 385.666992188 1041 409 c 1
 1041 671 l 2
 1041 726.333007812 1035.33300781 764.5 1024 785.5 c 128
 1012.66699219 806.5 993 817 965 817 c 0
 948.333007812 817 934.5 810.5 923.5 797.5 c 128
 912.5 784.5 904.333007812 766 899 742 c 128
 893.666992188 718 890 693.666992188 888 669 c 128
 886 644.333007812 885 615.333007812 885 582 c 0
EndSplineSet
EndChar

StartChar: A
Encoding: 65 65 36
Width: 1726
GlyphClass: 2
Flags: MW
LayerCount: 2
Fore
SplineSet
612 523 m 1
 935 523 l 1
 935 523 983 348 973 359 c 1
 853 359 l 1
 853 0 l 1
 1680 0 l 1
 1680 359 l 1
 1553 359 l 1
 1231 1623 l 1
 237 1623 l 1
 237 1270 l 1
 449 1270 l 1
 207 360 l 1
 50 359 l 1
 50 0 l 1
 728 0 l 1
 728 359 l 1
 585 359 l 1
 612 523 l 1
658 763 m 1
 770 1281 l 1
 887 763 l 1
 658 763 l 1
EndSplineSet
EndChar

StartChar: B
Encoding: 66 66 37
Width: 1609
GlyphClass: 2
Flags: HMW
LayerCount: 2
Fore
SplineSet
1515 1204 m 0
 1515 1559.30664062 1235.08496094 1623 878 1623 c 2
 64 1623 l 1
 64 1270 l 1
 230 1270 l 1
 230 359 l 1
 57 359 l 1
 57 0 l 1
 999 0 l 2
 1320.359375 0 1584 100.590820312 1584 420 c 0
 1584 656.541015625 1459.06445312 793.80078125 1270 848 c 1
 1270 850 l 1
 1403.15332031 900.083984375 1515 1027.37988281 1515 1204 c 0
1029 527 m 0
 1029 379.328125 929.904296875 351.451171875 779 359 c 1
 757 359 l 1
 757 699 l 1
 799 699.666992188 823.666992188 700 831 700 c 0
 954.618164062 700 1029 652.37890625 1029 527 c 0
1021 1131 m 0
 1021 991.31640625 935.896484375 961 798 961 c 2
 757 961 l 1
 757 1270 l 1
 883 1270 l 2
 962.860351562 1270 1021 1214.51464844 1021 1131 c 0
EndSplineSet
EndChar

StartChar: C
Encoding: 67 67 38
Width: 1497
GlyphClass: 2
Flags: HMW
LayerCount: 2
Fore
SplineSet
908 343 m 0
 660.793945312 343 657.998046875 593.390625 657.998046875 838.02734375 c 0
 657.998046875 843.689453125 658 849.34765625 658 855 c 0
 658 1071.16015625 679.708007812 1290 895 1290 c 0
 1054.51855469 1290 1129.09082031 1158.85644531 1129.09082031 1000.6171875 c 0
 1129.09082031 997.421875 1129.06054688 994.215820312 1129 991 c 1
 1427 991 l 1
 1427 1623 l 1
 1115 1623 l 1
 1081 1552 l 1
 999.372070312 1630.00097656 875.45703125 1652 721 1652 c 0
 252.883789062 1652 37 1268.46484375 37 804 c 0
 37 296.620117188 298.666992188 -29 805 -29 c 0
 1075.96386719 -29 1290.47363281 81.564453125 1436 202 c 1
 1436 612 l 1
 1135 612 l 1
 1128.58105469 493.272460938 1119.93457031 444.12890625 1050.5 390.5 c 128
 1009.5 358.833007812 962 343 908 343 c 0
EndSplineSet
EndChar

StartChar: D
Encoding: 68 68 39
Width: 1744
GlyphClass: 2
Flags: HMW
LayerCount: 2
Fore
SplineSet
1706 816 m 0
 1706 1351.76074219 1425.11523438 1623 884 1623 c 2
 54 1623 l 1
 54 1271 l 1
 223 1271 l 1
 223 359 l 1
 60 359 l 1
 60 0 l 1
 862 0 l 2
 1275.38183594 0 1538.19335938 207.552734375 1651 507 c 128
 1687.66699219 604.333007812 1706 707.333007812 1706 816 c 0
1112 817 m 0
 1112 578.163085938 1044.30957031 359 805 359 c 2
 770 359 l 1
 770 1271 l 1
 817 1271 l 2
 1057.84179688 1271 1112 1056.91113281 1112 817 c 0
EndSplineSet
EndChar

StartChar: E
Encoding: 69 69 40
Width: 1402
GlyphClass: 2
Flags: HMW
LayerCount: 2
Fore
SplineSet
1059 969 m 1
 983 1270 l 1
 770 1270 l 1
 770 988 l 1
 975 988 l 1
 975 726 l 5
 770 726 l 5
 770 359 l 1
 987.680664062 359.311523438 l 1
 1065 687 l 1
 1338 687 l 1
 1338 0 l 1
 59 0 l 1
 59 359 l 1
 217 359 l 1
 217 1270 l 1
 59 1270 l 1
 59 1623 l 1
 1327 1623 l 1
 1327 969 l 1
 1059 969 l 1
EndSplineSet
EndChar

StartChar: F
Encoding: 70 70 41
Width: 1389
GlyphClass: 2
Flags: HMW
LayerCount: 2
Fore
SplineSet
984 683 m 1
 782 683 l 1
 782 359 l 1
 936 359 l 1
 936 0 l 1
 59 0 l 1
 59 359 l 1
 217 359 l 1
 217 1270 l 1
 59 1270 l 1
 59 1623 l 1
 1334 1623 l 1
 1334 959 l 1
 1050 959 l 1
 986 1270 l 1
 782 1270 l 1
 782 949 l 5
 984 949 l 5
 984 683 l 1
EndSplineSet
EndChar

StartChar: G
Encoding: 71 71 42
Width: 1663
GlyphClass: 2
Flags: HMW
LayerCount: 2
Fore
SplineSet
962 1280 m 0
 1171.05957031 1280 1221.54394531 1131.96582031 1243 945 c 1
 1531 945 l 1
 1531 1623 l 1
 1216 1623 l 1
 1172 1561 l 1
 1086.66699219 1621.66699219 975.666992188 1652 839 1652 c 0
 434.0390625 1652 191.600585938 1429.390625 88.5 1125 c 128
 53.5 1021.66699219 36 910.666992188 36 792 c 0
 36 360.266601562 276.034179688 98.2373046875 616 6 c 128
 702 -17.3330078125 793.333007812 -29 890 -29 c 0
 1056.66699219 -29 1188.33300781 14.3330078125 1285 101 c 1
 1327 0 l 1
 1603 0 l 1
 1603 862 l 1
 978 862 l 1
 978 558 l 1
 1138 558 l 1
 1143.33300781 538.666992188 1146 510.666992188 1146 476 c 0
 1146 377.560546875 1054.58105469 318 956 318 c 0
 746 318 641 465 641 759 c 0
 641 1028.30761719 691.903320312 1280 962 1280 c 0
EndSplineSet
EndChar

StartChar: H
Encoding: 72 72 43
Width: 1811
GlyphClass: 2
Flags: HMW
LayerCount: 2
Fore
SplineSet
59 359 m 1
 206 359 l 1
 206 1270 l 1
 59 1270 l 1
 59 1623 l 1
 868 1623 l 1
 868 1270 l 1
 773 1270 l 1
 773 986 l 1
 1042 986 l 1
 1042 1270 l 1
 954 1270 l 1
 954 1623 l 1
 1752 1623 l 1
 1752 1270 l 1
 1611 1270 l 1
 1611 359 l 1
 1758 359 l 1
 1758 0 l 1
 958 0 l 1
 958 359 l 1
 1042 359 l 1
 1042 635 l 1
 773 635 l 1
 773 359 l 1
 869 359 l 1
 869 0 l 1
 59 0 l 1
 59 359 l 1
EndSplineSet
EndChar

StartChar: I
Encoding: 73 73 44
Width: 977
GlyphClass: 2
Flags: MW
LayerCount: 2
Fore
SplineSet
925 1270 m 1
 778 1270 l 1
 778 359 l 1
 919 359 l 1
 919 0 l 1
 57 0 l 1
 57 359 l 1
 204 359 l 1
 204 1270 l 1
 61 1270 l 1
 61 1623 l 1
 925 1623 l 1
 925 1270 l 1
EndSplineSet
EndChar

StartChar: J
Encoding: 74 74 45
Width: 1336
GlyphClass: 2
Flags: HMW
LayerCount: 2
Fore
SplineSet
485 365 m 0
 367.176757812 365 362 514.034179688 362 633 c 1
 58 633 l 1
 58 -13 l 1
 328 -13 l 1
 365 79 l 1
 424.333007812 6.3330078125 520.333007812 -30 653 -30 c 0
 962.21875 -30 1149 167.39453125 1149 475 c 2
 1149 1270 l 1
 1296 1270 l 1
 1296 1623 l 1
 442 1623 l 1
 442 1270 l 1
 596 1270 l 1
 596 572 l 2
 596 458.393554688 580.283203125 365 485 365 c 0
EndSplineSet
EndChar

StartChar: K
Encoding: 75 75 46
Width: 1759
GlyphClass: 2
Flags: HMW
LayerCount: 2
Fore
SplineSet
1033 492 m 2
 1033 553.37890625 984.772460938 640 923 640 c 2
 753 640 l 1
 753 359 l 1
 880 359 l 1
 886.647460938 0.01171875 l 1
 59 0 l 1
 59 359 l 1
 206 359 l 1
 206 1270 l 1
 59 1270 l 1
 59 1622 l 1
 880 1622 l 1
 880 1270 l 1
 753 1270 l 1
 753 887 l 1
 1040 1270 l 1
 1040 1622 l 1
 1664 1622 l 1
 1664 1270 l 1
 1527 1270 l 1
 1208 864 l 1
 1208 850 l 1
 1403.93261719 850 1554 798.032226562 1554 602 c 2
 1554 461 l 2
 1554 417.807617188 1578.13671875 359 1621 359 c 2
 1711 359 l 1
 1717 0 l 1
 1369 0 l 2
 1145 0 1033 102.333007812 1033 307 c 2
 1033 492 l 2
EndSplineSet
EndChar

StartChar: L
Encoding: 76 76 47
Width: 1388
GlyphClass: 2
Flags: HMW
LayerCount: 2
Fore
SplineSet
768 359 m 1
 959 359 l 1
 1046 709 l 1
 1332 709 l 1
 1332 0 l 1
 59 0 l 1
 59 359 l 1
 201 359 l 1
 201 1270 l 1
 54 1270 l 1
 54 1622 l 1
 922 1622 l 1
 922 1270 l 1
 768 1270 l 1
 768 359 l 1
EndSplineSet
EndChar

StartChar: M
Encoding: 77 77 48
Width: 2321
GlyphClass: 2
Flags: MW
LayerCount: 2
Fore
SplineSet
711 359 m 1
 615.249023438 359 549 360 549 360 c 1
 549 999 l 1
 965 0 l 1
 1246 0 l 1
 1588 977 l 1
 1588 359 l 1
 1465 359 l 1
 1465 0 l 1
 2268 0 l 1
 2268 359 l 1
 2114 359 l 1
 2114 1270 l 1
 2261 1270 l 1
 2261 1623 l 1
 1477 1623 l 1
 1201 856 l 1
 891 1623 l 1
 56 1623 l 1
 56 1270 l 1
 224 1270 l 1
 224 360 l 1
 224 360 172.657226562 359 60 359 c 1
 60 0 l 1
 711 0 l 1
 711 359 l 1
EndSplineSet
EndChar

StartChar: N
Encoding: 78 78 49
Width: 1813
GlyphClass: 2
Flags: MW
LayerCount: 2
Fore
SplineSet
1616 1270 m 2
 1616 1270 1665.9765625 1270 1774 1270 c 1
 1774 1622 l 1
 1137 1622 l 1
 1137 1270 l 1
 1295 1270 l 2
 1295 647 l 1
 799 1623 l 1
 64 1623 l 1
 64 1272 l 1
 221 1272 l 1
 221 360 l 1
 221 360 160.08203125 359 58 359 c 1
 58 0 l 1
 695 0 l 1
 695 359 l 1
 582.908203125 360 537 360 537 360 c 2
 537 908 l 1
 1010 0 l 1
 1616 0 l 1
 1616 1270 l 2
EndSplineSet
EndChar

StartChar: O
Encoding: 79 79 50
Width: 1714
GlyphClass: 2
Flags: MW
LayerCount: 2
Fore
SplineSet
1676 808 m 0
 1676 325.521060795 1335.82854839 -29 856 -29 c 256
 374.707120917 -29 36 327.163274991 36 808 c 0
 36 1317.1667906 353.157978936 1653 858 1653 c 0
 1360.18690489 1653 1676 1314.23252701 1676 808 c 0
856 1296 m 0
 630.309976946 1296 641.841420771 1010.20066496 641.841420771 775.690200352 c 0
 641.841420771 555.434331227 661.951562046 319 856 319 c 0
 1086.52451421 319 1066.20264568 632.508011106 1066.20264568 873.544051307 c 0
 1066.20264568 1079.38060488 1054.60755409 1296 856 1296 c 0
EndSplineSet
EndChar

StartChar: P
Encoding: 80 80 51
Width: 1614
GlyphClass: 2
Flags: HMW
LayerCount: 2
Fore
SplineSet
922 559 m 0
 1321.47558594 559 1587.4453125 702.974609375 1582 1106 c 0
 1578.43261719 1409.04199219 1431.77832031 1571.20605469 1162 1605.5 c 128
 1084.31738281 1615.375 1000.49023438 1623 913 1623 c 130
 62 1623 l 1
 62 1270 l 1
 213 1270 l 1
 213 359 l 1
 57 359 l 1
 57 0 l 1
 918 0 l 1
 918 359 l 1
 772 359 l 1
 772 569 l 1
 824.666992188 562.333007812 874.666992188 559 922 559 c 0
856 1270 m 2
 965.822265625 1270 1040 1210.24511719 1040 1096 c 0
 1040 962 964.333007812 895 813 895 c 2
 772 895 l 1
 772 1270 l 1
 856 1270 l 2
EndSplineSet
EndChar

StartChar: Q
Encoding: 81 81 52
Width: 1772
GlyphClass: 2
Flags: HMW
LayerCount: 2
Fore
SplineSet
876.188476562 -32.150390625 m 2
 1243 0 l 1
 1727 0 l 1
 1727 359 l 1
 1564 359 l 1
 1644.66699219 494.333007812 1685 643.666992188 1685 807 c 0
 1685 1213.18847656 1489.07128906 1478.625 1195.5 1593.5 c 128
 1095.83300781 1632.5 987.333007812 1652 870 1652 c 0
 520.22265625 1652 267.213867188 1484.56835938 139.5 1249.5 c 128
 70.5 1122.5 36 977.666992188 36 815 c 0
 36 459.9921875 196.326171875 207.348632812 433 76 c 128
 560.333007812 5.3330078125 708.830078125 -46.8193359375 876.188476562 -32.150390625 c 2
876 338 m 0
 686.127929688 338 653 510.327148438 653 692 c 130
 653 895.5 l 130
 653 1090.74316406 669.7734375 1275 865 1275 c 0
 1074.40332031 1275 1075 1030.73144531 1075 822 c 2
 1075 775 l 1
 1088.62304688 579.728515625 1069.79882812 338 876 338 c 0
EndSplineSet
EndChar

StartChar: R
Encoding: 82 82 53
Width: 1728
GlyphClass: 2
Flags: HMW
LayerCount: 2
Fore
SplineSet
1602 1170 m 0
 1602 1498.31835938 1400.25585938 1623 1073 1623 c 2
 58 1623 l 1
 58 1270 l 1
 213 1270 l 1
 213 359 l 1
 59 359 l 1
 59 -1 l 1
 423 -0.3330078125 693 0 869 0 c 1
 869 359 l 1
 748 359 l 1
 748 694 l 1
 846 694 l 2
 999.381835938 694 1032 602.813476562 1032 451 c 2
 1032 256 l 2
 1032 54.111328125 1163.24414062 0 1360.5 0 c 130
 1684 0 l 1
 1684 359 l 1
 1581.95996094 359 1520 367.984375 1520 466 c 2
 1520 559 l 2
 1520 716.512695312 1396.27636719 772.0234375 1243 807 c 1
 1442.11230469 844.04296875 1602 951.124023438 1602 1170 c 0
1053 1096 m 0
 1053 960.024414062 938.477539062 920 803 920 c 2
 742 920 l 1
 742 1270 l 1
 863 1270 l 2
 975.956054688 1270 1053 1205.94238281 1053 1096 c 0
EndSplineSet
EndChar

StartChar: S
Encoding: 83 83 54
Width: 1314
GlyphClass: 2
Flags: HMW
LayerCount: 2
Back
SplineSet
597 1305 m 4
 705.612304688 1305 762.83203125 1268.07395242 814 1147 c 5
 1121 1147 l 5
 1121 1623 l 5
 836 1623 l 5
 817.333007812 1591 806.666992188 1571 804 1563 c 5
 724.666992188 1623 620.666992188 1653 492 1653 c 4
 187.708984375 1653 36 1440.83105469 36 1133 c 4
 36 734.272460938 294.727539062 623.499023438 605 535 c 4
 664.938476562 517.904296875 736 494.176757812 736 420 c 4
 736 364.067382812 683.3203125 334 627 334 c 4
 519.16015625 334 433.744140625 367.885296365 394 488 c 5
 72 488 l 5
 72 0 l 5
 395 0 l 5
 431 92 l 5
 526.635742188 11.0771484375 597.530273438 -29 760 -29 c 4
 996.80859375 -29 1142.21191406 131.057617188 1205.5 309 c 132
 1270.97363281 493.0859375 1225.46484375 725.203125 1140 837.5 c 132
 1036.6640625 973.278320312 875.02734375 1039.02050781 690.5 1091.5 c 132
 621.969726562 1110.99023438 503 1133.92773438 503 1213 c 4
 503 1273.32324219 537.436523438 1305 597 1305 c 4
EndSplineSet
Fore
SplineSet
617 1305 m 0
 750.637695312 1305 821.041992188 1268.07421875 884 1147 c 1
 1191 1147 l 1
 1191 1623 l 1
 906 1623 l 1
 887.333007812 1591 876.666992188 1571 874 1563 c 1
 776.359375 1623 648.359375 1653 490 1653 c 0
 245.708984375 1653 34 1453.07128906 34 1163 c 0
 34 744.26953125 302.731445312 627.938476562 625 535 c 1
 698.665039062 517.904296875 786 494.176757812 786 420 c 0
 786 364.067382812 718.821289062 334 647 334 c 0
 528.977539062 334 435.497070312 367.885742188 392 488 c 1
 70 488 l 1
 70 0 l 1
 393 0 l 1
 429 92 l 1
 531.03125 11.0771484375 606.666015625 -29 780 -29 c 0
 1088.00292969 -29 1286.61328125 202.858398438 1286.61328125 500.76953125 c 0
 1286.61328125 893.327148438 1020.9765625 1008.72558594 710.5 1091.5 c 128
 633.928710938 1110.99023438 501 1133.92773438 501 1213 c 0
 501 1273.32324219 543.49609375 1305 617 1305 c 0
EndSplineSet
EndChar

StartChar: T
Encoding: 84 84 55
Width: 1594
GlyphClass: 2
Flags: MW
LayerCount: 2
Fore
SplineSet
1260 965 m 1
 1218 1270 l 1
 1072 1270 l 1
 1072 360 l 1
 1236 360 l 1
 1236 0 l 1
 345 0 l 1
 345 360 l 1
 509 360 l 1
 509 1270 l 1
 369 1270 l 1
 325 965 l 1
 44 965 l 1
 44 1622 l 1
 1541 1622 l 1
 1541 965 l 1
 1260 965 l 1
EndSplineSet
EndChar

StartChar: U
Encoding: 85 85 56
Width: 1670
GlyphClass: 2
Flags: HMW
LayerCount: 2
Fore
SplineSet
195 704 m 2
 195 245.033203125 363.958984375 -29 825 -29 c 0
 1168.42480469 -29 1476 180.677734375 1476 520 c 2
 1476 1270 l 1
 1630 1270 l 1
 1630 1622 l 1
 976 1622 l 1
 976 1270 l 1
 1140 1270 l 1
 1140 536 l 2
 1140 416.981445312 1064.24023438 346 944 346 c 0
 804.94140625 346 755 462.040039062 755 600 c 2
 755 1270 l 1
 903 1270 l 1
 903 1622 l 1
 34 1622 l 1
 34 1270 l 1
 195 1270 l 1
 195 704 l 2
EndSplineSet
EndChar

StartChar: V
Encoding: 86 86 57
Width: 1767
GlyphClass: 2
Flags: MW
LayerCount: 2
Fore
SplineSet
784 1270 m 1
 900 1270 l 1
 900 1622 l 1
 35 1622 l 1
 35 1270 l 1
 201 1270 l 1
 562 0 l 1
 1146 0 l 1
 1544.99511719 1270.17285156 l 1
 1544.99511719 1270.17285156 1623.33691406 1270 1725 1270 c 1
 1725 1622 l 1
 1031 1622 l 1
 1031 1270 l 1
 1161 1269 l 1
 986 517 l 1
 784 1270 l 1
EndSplineSet
EndChar

StartChar: W
Encoding: 87 87 58
Width: 2552
GlyphClass: 2
Flags: HMW
LayerCount: 2
Fore
SplineSet
34 1623 m 1
 34 1270 l 1
 177 1270 l 1
 526 0 l 1
 1063 0 l 1
 1265 706 l 1
 1458 0 l 1
 2001 0 l 1
 2342 1270 l 2
 2342 1270 2407.13085938 1270 2511 1270 c 1
 2511 1623 l 1
 1860 1623 l 1
 1860 1270 l 1
 1990 1270 l 2
 1835 703 l 1
 1582 1623 l 1
 1173 1623 l 1
 913 672 l 1
 754 1270 l 1
 895 1270 l 1
 895 1623 l 1
 34 1623 l 1
EndSplineSet
EndChar

StartChar: X
Encoding: 88 88 59
Width: 1947
GlyphClass: 2
Flags: HMW
LayerCount: 2
Fore
SplineSet
788 359 m 2
 570.081054688 359 649 357.700195312 649 357.700195312 c 1
 855 634 l 1
 1098 359 l 1
 972 359 l 1
 972 0 l 1
 1901 0 l 1
 1901 359 l 1
 1749 359 l 1
 1320 829 l 1
 1653 1269.70019531 l 1
 1850 1269.70019531 l 1
 1850 1623 l 1
 1103 1623 l 1
 1103 1270 l 1
 1247 1270 l 1
 1099 1064 l 1
 937 1270 l 1
 1019 1270 l 1
 1019 1623 l 1
 101 1623 l 1
 101 1270 l 1
 272 1270 l 1
 643 862 l 1
 209 357.700195312 l 1
 50 357.700195312 l 1
 50 0 l 1
 878 0 l 1
 872 359 l 1
 788 359 l 2
EndSplineSet
EndChar

StartChar: Y
Encoding: 89 89 60
Width: 1656
GlyphClass: 2
Flags: HMW
LayerCount: 2
Fore
SplineSet
977 1270 m 1
 1124 1270 l 1
 1124 1272.02539062 1006 1026.11914062 980 993 c 1
 962.9140625 1017.40820312 813.470703125 1246.17675781 796 1270 c 1
 887 1270 l 1
 887 1622 l 1
 35 1622 l 1
 35 1270 l 1
 147 1270 l 1
 568 672 l 1
 568 359 l 1
 413 359 l 1
 413 0 l 1
 1282 0 l 1
 1282 359 l 1
 1125 359 l 1
 1125 724 l 1
 1434.47460938 1269.51464844 l 129
 1434.47460938 1269.51464844 1481.83496094 1270 1540 1270 c 2
 1614 1270 l 1
 1614 1622 l 1
 977 1622 l 1
 977 1270 l 1
EndSplineSet
EndChar

StartChar: Z
Encoding: 90 90 61
Width: 1537
GlyphClass: 2
Flags: HMW
LayerCount: 2
Fore
SplineSet
1458 1293 m 1
 781 359 l 1
 1090 359 l 1
 1197 705 l 1
 1479 705 l 1
 1479 0 l 1
 69 0 l 1
 69 350 l 1
 747 1270 l 1
 432 1270 l 1
 352 938 l 1
 64 938 l 1
 64 1622 l 1
 1458 1622 l 1
 1458 1293 l 1
EndSplineSet
EndChar

StartChar: bracketleft
Encoding: 91 91 62
Width: 835
GlyphClass: 2
Flags: HMW
LayerCount: 2
Fore
SplineSet
75 0 m 1
 75 1623 l 1
 789 1623 l 1
 789 1322 l 1
 592 1322 l 1
 592 311 l 1
 785 311 l 1
 784 0 l 1
 75 0 l 1
EndSplineSet
EndChar

StartChar: backslash
Encoding: 92 92 63
Width: 975
GlyphClass: 2
Flags: HMW
LayerCount: 2
Fore
SplineSet
373 0 m 1
 31 1623 l 1
 605 1623 l 1
 946 0 l 1
 373 0 l 1
EndSplineSet
EndChar

StartChar: bracketright
Encoding: 93 93 64
Width: 838
GlyphClass: 2
Flags: HMW
LayerCount: 2
Fore
SplineSet
53 0 m 1
 52 311 l 1
 245 311 l 1
 245 1322 l 1
 48 1322 l 1
 48 1623 l 1
 762 1623 l 1
 762 0 l 1
 53 0 l 1
EndSplineSet
EndChar

StartChar: asciicircum
Encoding: 94 94 65
Width: 1438
GlyphClass: 2
Flags: HMW
LayerCount: 2
Fore
SplineSet
902 1624 m 1
 1398 909 l 1
 933 909 l 1
 717 1242 l 1
 501 909 l 1
 36 909 l 1
 532 1624 l 1
 902 1624 l 1
EndSplineSet
EndChar

StartChar: underscore
Encoding: 95 95 66
Width: 1328
GlyphClass: 2
Flags: HMW
LayerCount: 2
Fore
SplineSet
1262 -1 m 1
 1262 -224 l 1
 69 -224 l 1
 69 -1 l 1
 1262 -1 l 1
EndSplineSet
EndChar

StartChar: grave
Encoding: 96 96 67
Width: 756
GlyphClass: 2
Flags: HMW
LayerCount: 2
Fore
SplineSet
232 1708 m 1
 706 1271 l 1
 602 1130 l 1
 48 1443 l 1
 232 1708 l 1
EndSplineSet
EndChar

StartChar: a
Encoding: 97 97 68
Width: 1325
GlyphClass: 2
Flags: MW
LayerCount: 2
Fore
SplineSet
477 630 m 0
 254.817382812 630 42 528.96484375 42 308 c 0
 42 103.868164062 224.232421875 -18 431 -18 c 0
 555.478515625 -18 679.5078125 44.259765625 737 119 c 1
 787 0 l 1
 1279 0 l 1
 1279 305 l 1
 1183 305 l 1
 1183 750 l 2
 1183 1032.31835938 897.0703125 1092 615 1092 c 0
 490.98828125 1092 292.662109375 1063.76367188 199 1040 c 1
 132 1022 l 1
 132 708 l 1
 307 708 l 1
 355 771.333007812 426.666992188 803 522 803 c 0
 662.666992188 803 733 747.666992188 733 637 c 2
 733 592 l 1
 659.666992188 617.333007812 574.333007812 630 477 630 c 0
628 224 m 0
 569.036132812 224 532 266.856445312 532 326 c 0
 532 382.65625 580.163085938 438 637 438 c 0
 673.076171875 438 711.118164062 425.88671875 736 417 c 1
 736 270 l 1
 718.629882812 248.29296875 671.98828125 224 628 224 c 0
EndSplineSet
EndChar

StartChar: b
Encoding: 98 98 69
Width: 1441
GlyphClass: 2
Flags: HMW
LayerCount: 2
Fore
SplineSet
657 1560 m 5
 31 1495 l 5
 31 1222 l 5
 175 1222 l 5
 175 0 l 1
 625 0 l 1
 665 102 l 1
 772.005859375 25.56640625 808.073242188 -18 941 -18 c 0
 1253.62402344 -18 1414 227.609375 1414 538 c 0
 1414 836.970703125 1259.84472656 1092 962 1092 c 0
 863.333007812 1092 761.666992188 1049.66699219 657 965 c 1
 657 1560 l 5
948 519 m 0
 948 411.229492188 895.985351562 328 796 328 c 0
 736.080078125 328 687.959960938 365.4453125 661 396 c 1
 661 662 l 1
 683.248046875 706.512695312 728.297851562 758 796 758 c 0
 918.241210938 758 948 640.93359375 948 519 c 0
EndSplineSet
EndChar

StartChar: c
Encoding: 99 99 70
Width: 1093
GlyphClass: 2
Flags: HMW
LayerCount: 2
Fore
SplineSet
661 778 m 0
 735.873046875 778 784 706.870117188 784 628 c 1
 1026 628 l 1
 1026 1072 l 1
 851 1072 l 1
 810 995 l 1
 729.333007812 1059.66699219 643.333007812 1092 552 1092 c 0
 235.669921875 1092 33 859.709960938 33 546 c 4
 33 200.340820312 243.323242188 -18 585 -18 c 0
 836.833007812 -18 1028 124 1028 124 c 1
 1028 425 l 1
 788 425 l 1
 774.602539062 358.051757812 742.82421875 295 661 295 c 0
 546.67578125 295 506 399.40234375 506 513 c 0
 506 648.689453125 548.045898438 778 661 778 c 0
EndSplineSet
EndChar

StartChar: d
Encoding: 100 100 71
Width: 1441
GlyphClass: 2
Flags: MW
LayerCount: 2
Fore
SplineSet
495 -19 m 1
 627.385742188 -17.5283203125 729.383789062 47.1787109375 790 128 c 1
 790 0 l 1
 1399 0 l 1
 1399 304 l 1
 1282 304 l 1
 1282 1560 l 1
 636 1495 l 1
 636 1222 l 1
 786 1222 l 1
 786 960 l 1
 706.908203125 1040.25585938 630.603515625 1090 487 1090 c 0
 200.404296875 1090 32 834.786132812 32 550 c 0
 32 245.7109375 190.842773438 -19 495 -19 c 1
503 558 m 0
 503 672.541429769 555.014648438 761 655 761 c 0
 714.919921875 761 763.040039062 716.946691176 790 681 c 1
 790 415 l 1
 767.751953125 370.487304688 722.702148438 319 655 319 c 0
 532.758789062 319 503 436.06640625 503 558 c 0
EndSplineSet
EndChar

StartChar: e
Encoding: 101 101 72
Width: 1207
GlyphClass: 2
Flags: MW
LayerCount: 2
Fore
SplineSet
619 1092 m 0
 263.956054688 1092 32 872.936523438 32 521 c 0
 32 202.009765625 281.541992188 -18 603 -18 c 0
 843.533203125 -18 988.1171875 30.1142578125 1150 127 c 1
 1150 374 l 5
 843 374 l 5
 840.155273438 275.109556687 793.614257812 222 703 222 c 0
 585.446289062 222 526 341.211571848 526 472 c 5
 1128 472 l 5
 1165.19921875 473.184895834 1170 530.648753156 1170 576 c 4
 1170 890.903871333 951.16015625 1092 619 1092 c 0
528 677 m 6
 528 752.93359375 561.07421875 835 636 835 c 4
 724.908203125 835 743.3125 757.22265625 743.3125 668.889648438 c 4
 743.3125 661.98046875 743.200195312 655.006835938 743 648 c 5
 528 648 l 5
 528 677 l 6
EndSplineSet
EndChar

StartChar: f
Encoding: 102 102 73
Width: 956
GlyphClass: 2
Flags: HMW
LayerCount: 2
Fore
SplineSet
889 1523 m 5
 823.750976562 1546.30175781 683.114257812 1570 581 1570 c 4
 335.666992188 1570 213 1435.66699219 213 1167 c 4
 213 1105.06738281 215 1073.40722656 215 1072 c 1
 60 1072 l 1
 60 761 l 1
 216 761 l 1
 216 305 l 1
 60 305 l 1
 60 0 l 1
 889 0 l 1
 889 305 l 1
 702 305 l 1
 702 761 l 1
 889 761 l 1
 889 1072 l 1
 695 1072 l 1
 689.137695312 1165.89648438 702.60546875 1225 793 1225 c 4
 818.333007812 1225 850.333007812 1220.66699219 889 1212 c 5
 889 1523 l 5
EndSplineSet
EndChar

StartChar: g
Encoding: 103 103 74
Width: 1391
GlyphClass: 2
Flags: MW
LayerCount: 2
Fore
SplineSet
163 -328 m 1
 237.830078125 -368.293945312 417.473632812 -389 551 -389 c 0
 1013.66699219 -389 1245 -214.333007812 1245 135 c 2
 1245 761 l 1
 1352 761 l 1
 1352 1072 l 1
 879 1072 l 1
 846 997 l 1
 730.666992188 1059 622.333007812 1090 521 1090 c 0
 231.555664062 1090 32 836.337890625 32 548 c 0
 32 249.403320312 210.28515625 28 509 28 c 4
 621.943359375 28 727.071289062 67.0859375 796 117 c 1
 796 -53.2568359375 696.762695312 -87 527 -87 c 0
 408.333007812 -87 287 -64.3330078125 163 -19 c 1
 163 -328 l 1
660 299 m 0
 547.690429688 299 515 418.069335938 515 532 c 0
 515 643.181640625 543.453125 760 652 760 c 0
 757.479492188 760 795 630.8515625 795 523 c 0
 795 422.48046875 759.923828125 299 660 299 c 0
EndSplineSet
EndChar

StartChar: h
Encoding: 104 104 75
Width: 1474
GlyphClass: 2
Flags: HMW
LayerCount: 2
Fore
SplineSet
965 1090 m 0
 798.991210938 1090 693.901367188 1003.66796875 645 916 c 1
 645 1560 l 5
 52 1495 l 5
 52 1222 l 5
 156 1222 l 5
 156 304 l 1
 57 304 l 1
 57 0 l 1
 729 0 l 1
 729 304 l 1
 649 304 l 1
 649 645 l 2
 649 723.666992188 682.666992188 763 750 763 c 0
 804.666992188 763 833 721.3359375 833 638 c 2
 833 0 l 1
 1429 0 l 1
 1429 304 l 1
 1323 304 l 1
 1323 702 l 2
 1323 943.606445312 1200.69140625 1090 965 1090 c 0
EndSplineSet
EndChar

StartChar: i
Encoding: 105 105 76
Width: 790
GlyphClass: 2
Flags: HMW
LayerCount: 2
Fore
SplineSet
644 1072 m 1
 54 1072 l 1
 54 761 l 1
 163 761 l 1
 163 305 l 1
 61 305 l 1
 61 0 l 1
 748 0 l 5
 748 305 l 5
 644 305 l 1
 644 1072 l 1
650 1385 m 0
 650 1228.78808594 520.571289062 1135 363 1135 c 0
 207.567382812 1135 86 1230.20410156 86 1385 c 0
 86 1539.57714844 206.227539062 1630 363 1630 c 0
 523.5703125 1630 650 1541.92675781 650 1385 c 0
EndSplineSet
EndChar

StartChar: j
Encoding: 106 106 77
Width: 713
GlyphClass: 2
Flags: HMW
LayerCount: 2
Fore
SplineSet
144 -9 m 2
 144 -57.47265625 85.66796875 -77.408203125 37 -72 c 1
 39 -398 l 1
 442.233398438 -398 643 -268.831054688 643 129 c 2
 643 1072 l 1
 34 1072 l 1
 34 761 l 5
 144 761 l 5
 144 -9 l 2
646 1385 m 0
 646 1228.78808594 516.571289062 1135 359 1135 c 0
 203.567382812 1135 82 1230.20410156 82 1385 c 0
 82 1539.57714844 202.227539062 1630 359 1630 c 0
 519.5703125 1630 646 1541.92675781 646 1385 c 0
EndSplineSet
EndChar

StartChar: k
Encoding: 107 107 78
Width: 1464
GlyphClass: 2
Flags: MW
LayerCount: 2
Fore
SplineSet
653 438 m 1
 653 0 l 1
 56 0 l 1
 56 305 l 1
 159 305 l 1
 159 1222 l 5
 55 1222 l 5
 55 1495 l 5
 653 1560 l 5
 653 587 l 1
 854 762 l 1
 759 762 l 1
 759 1072 l 1
 1393 1072 l 1
 1393 762 l 1
 1222 762 l 2
 1221.69042969 762.736560314 1049.796875 617.672530595 1049 618 c 2
 1256 305 l 1
 1411 305 l 1
 1411 0 l 1
 938 0 l 1
 653 438 l 1
EndSplineSet
EndChar

StartChar: l
Encoding: 108 108 79
Width: 809
GlyphClass: 2
Flags: MW
LayerCount: 2
Fore
SplineSet
669 304 m 1
 767 304 l 1
 767 0 l 1
 59 0 l 1
 59 304 l 1
 174 304 l 1
 174 1222 l 5
 49 1222 l 5
 49 1495 l 5
 669 1560 l 5
 669 304 l 1
EndSplineSet
EndChar

StartChar: m
Encoding: 109 109 80
Width: 2115
GlyphClass: 2
Flags: HMW
LayerCount: 2
Back
SplineSet
1598 1092 m 4
 1431 1092 1308 1021 1240 916 c 5
 1240 1092 l 5
 637 1032 l 5
 637 761 l 5
 753 761 l 5
 753 305 l 5
 637 305 l 5
 637 0 l 5
 1328 0 l 5
 1328 305 l 5
 1240 305 l 5
 1240 624 l 6
 1240 686 1282 737 1344 737 c 4
 1398 737 1434 684 1434 627 c 6
 1434 0 l 5
 2048 0 l 5
 2048 305 l 5
 1928 305 l 5
 1928 680 l 6
 1928 955 1818 1092 1598 1092 c 4
EndSplineSet
Fore
SplineSet
618 1092 m 1
 62 1032 l 1
 62 761 l 1
 178 761 l 1
 176 305 l 1
 62 305 l 1
 62 0 l 1
 698 0 l 1
 698 304 l 1
 618 304 l 1
 618 541 l 2
 618 629.936523438 636.776367188 738 726 738 c 0
 800.666992188 738 838 704.666992188 838 638 c 2
 838 0 l 1
 1360 0 l 1
 1360 305 l 1
 1275 305 l 1
 1275 579 l 2
 1275 666.206054688 1305.83398438 743 1395 743 c 0
 1458.52050781 743 1488.81835938 694.349609375 1495 635 c 1
 1495 0 l 1
 2069 0 l 5
 2069 305 l 5
 1950 305 l 1
 1950 729 l 2
 1950 958.069335938 1824.73144531 1092 1600 1092 c 0
 1457.33300781 1092 1341 1025 1251 891 c 1
 1204.47949219 995.94140625 1118.31054688 1092 983 1092 c 0
 815.14453125 1092 691.16015625 1003.13085938 618 902 c 1
 618 1092 l 1
EndSplineSet
EndChar

StartChar: n
Encoding: 110 110 81
Width: 1519
GlyphClass: 2
Flags: MW
LayerCount: 2
Fore
SplineSet
1023 1092 m 4
 856 1092 733 1021 665 916 c 5
 665 1092 l 5
 62 1032 l 5
 62 761 l 5
 178 761 l 5
 178 305 l 5
 62 305 l 5
 62 0 l 5
 753 0 l 5
 753 305 l 5
 665 305 l 5
 665 624 l 6
 665 686 707 737 769 737 c 4
 823 737 859 684 859 627 c 6
 859 0 l 5
 1473 0 l 5
 1473 305 l 5
 1353 305 l 5
 1353 680 l 6
 1353 955 1243 1092 1023 1092 c 4
EndSplineSet
EndChar

StartChar: o
Encoding: 111 111 82
Width: 1265
GlyphClass: 2
Flags: MW
LayerCount: 2
Fore
SplineSet
635 -18 m 256
 273.999023438 -18 33 186.831054688 33 547 c 0
 33 902.385742188 273.513671875 1091 634 1091 c 0
 996.157226562 1091 1237 903.387695312 1237 547 c 0
 1237 186.662109375 996.07421875 -18 635 -18 c 256
635 779 m 0
 513.307617188 779 498 666.270507812 498 545 c 0
 498 377.666992188 543.666992188 294 635 294 c 0
 726.333007812 294 772 377.666992188 772 545 c 0
 772 666.29296875 756.696289062 779 635 779 c 0
EndSplineSet
EndChar

StartChar: p
Encoding: 112 112 83
Width: 1422
GlyphClass: 2
Flags: HMW
LayerCount: 2
Back
SplineSet
957 1092 m 4
 790 1092 667 1021 599 916 c 5
 599 1092 l 5
 -4 1032 l 5
 -4 761 l 5
 112 761 l 5
 112 305 l 5
 -4 305 l 5
 -4 0 l 5
 687 0 l 5
 687 305 l 5
 599 305 l 5
 599 624 l 6
 599 686 641 737 703 737 c 4
 757 737 793 684 793 627 c 6
 793 0 l 5
 1407 0 l 5
 1407 305 l 5
 1287 305 l 5
 1287 680 l 6
 1287 955 1177 1092 957 1092 c 4
EndSplineSet
Fore
SplineSet
943 1093 m 0
 790.826171875 1093 691.624023438 1003.39453125 637 922 c 1
 637 1092 l 1
 34 1030 l 1
 34 761 l 1
 151 761 l 1
 151 -94 l 1
 34 -94 l 1
 34 -397 l 1
 741 -397 l 1
 741 -96 l 1
 630 -96 l 1
 630 119 l 1
 711.588867188 53.330078125 795.201171875 -17 941 -17 c 0
 1242.01074219 -17 1394 241.53125 1394 541 c 0
 1394 839.056640625 1239.36132812 1093 943 1093 c 0
925 545 m 0
 925 420.08203125 885.206054688 310 759 310 c 0
 691.8515625 310 632.579101562 350.952148438 632.096679688 406.000976562 c 2
 630 645 l 1
 643.422851562 698.670898438 692.236328125 739 762 739 c 0
 870.666992188 739 925 674.333007812 925 545 c 0
EndSplineSet
EndChar

StartChar: q
Encoding: 113 113 84
Width: 1413
GlyphClass: 2
Flags: HMW
LayerCount: 2
Fore
SplineSet
494 1092 m 0
 638.681640625 1092 710.014648438 1055.01660156 796 985 c 1
 806 985 l 1
 870 1072 l 1
 1370 1072 l 1
 1370 761 l 1
 1276 761 l 1
 1276 -94 l 1
 1380 -94 l 1
 1380 -398 l 1
 686 -398 l 1
 686 -96 l 1
 797 -96 l 1
 797 128 l 5
 726.834960938 49.98046875 632.4609375 -17 486 -17 c 4
 170.231445312 -17 33 257.051757812 33 571 c 0
 33 859.344726562 206.690429688 1092 494 1092 c 0
668 329 m 0
 759.764648438 329 797 433.795898438 797 526 c 0
 797 637.573242188 772.495117188 768 665 768 c 0
 569.666992188 768 522 696.666992188 522 554 c 0
 522 439.966796875 554.788085938 329 668 329 c 0
EndSplineSet
EndChar

StartChar: r
Encoding: 114 114 85
Width: 1020
GlyphClass: 2
Flags: HMW
LayerCount: 2
Back
SplineSet
984 1092 m 4
 817 1092 694 1021 626 916 c 5
 626 1092 l 5
 23 1032 l 5
 23 761 l 5
 139 761 l 5
 139 305 l 5
 23 305 l 5
 23 0 l 5
 714 0 l 5
 714 305 l 5
 626 305 l 5
 626 624 l 6
 626 686 668 737 730 737 c 4
 784 737 820 684 820 627 c 6
 820 0 l 5
 1434 0 l 5
 1434 305 l 5
 1314 305 l 5
 1314 680 l 6
 1314 955 1204 1092 984 1092 c 4
EndSplineSet
Fore
SplineSet
663 1092 m 1
 60 1032 l 1
 60 761 l 1
 177 761 l 1
 177 305 l 1
 61 305 l 1
 61 0 l 1
 772 0 l 1
 772 305 l 1
 635 305 l 1
 635 426 l 2
 635 506.666992188 656 568.166992188 698 610.5 c 0
 740 652.833007812 797.666992188 674 871 674 c 1
 977 667 l 1
 977 1090 l 1
 877.091796875 1090 730.4765625 1025.88574219 663 917 c 1
 663 1092 l 1
EndSplineSet
EndChar

StartChar: s
Encoding: 115 115 86
Width: 1032
GlyphClass: 2
Flags: HMW
LayerCount: 2
Fore
SplineSet
509 846 m 0
 509 893.486328125 553.326171875 920 601 920 c 0
 694.672851562 920 730.227539062 849.134765625 759 782 c 1
 767 761 l 1
 968 761 l 1
 968 1081 l 1
 800 1081 l 1
 773 1033 l 1
 719.88671875 1070.18066406 583.952148438 1092 479 1092 c 0
 237.586914062 1092 67 986.369140625 67 746 c 0
 67 493.518554688 280.234375 453.41015625 463.5 386 c 128
 508.453125 369.46484375 562 341.2578125 562 287 c 0
 562 235.088867188 506.099609375 209 454 209 c 0
 360.125 209 298.361328125 304.421875 284 387 c 1
 63 387 l 1
 56 9 l 1
 233 9 l 1
 269 76 l 1
 335.666992188 13.3330078125 438.333007812 -18 577 -18 c 0
 847.536132812 -18 988 124.516601562 988 395 c 0
 988 565.3671875 876.115234375 687.459960938 686 736 c 128
 622.514648438 752.208984375 509 772.3359375 509 846 c 0
EndSplineSet
EndChar

StartChar: t
Encoding: 116 116 87
Width: 896
GlyphClass: 2
Flags: HMW
LayerCount: 2
Fore
SplineSet
741 334 m 0
 673.928710938 334 643 376.825195312 643 438 c 2
 643 761 l 1
 816 761 l 1
 816 1072 l 1
 644 1072 l 1
 644 1406 l 1
 157 1301 l 1
 157 1072 l 1
 34 1072 l 5
 34 761 l 5
 162 761 l 1
 162 385 l 1
 160.666992188 116.333007812 286.333007812 -18 541 -18 c 0
 631.185546875 -18 754.641601562 5.6474609375 812 32 c 2
 849 49 l 1
 849 348 l 1
 807 338.666992188 771 334 741 334 c 0
EndSplineSet
EndChar

StartChar: u
Encoding: 117 117 88
Width: 1453
GlyphClass: 2
Flags: MW
LayerCount: 2
Fore
SplineSet
1310.5 1092 m 1
 719.5 1032 l 1
 719.5 761 l 1
 815.5 761 l 1
 818 438 l 2
 818.504882812 372.731445312 778.357421875 318 714 318 c 0
 658.427734375 318 624 377.825195312 624 438 c 2
 624 1092 l 1
 34 1032 l 1
 34 761 l 1
 130 761 l 1
 130 385 l 2
 130 116.333007812 240 -18 460 -18 c 0
 627.6015625 -18 749.740234375 50.5078125 818 156 c 1
 818 0 l 1
 1408 0 l 5
 1408 305 l 5
 1312 305 l 1
 1310.5 1092 l 1
EndSplineSet
EndChar

StartChar: v
Encoding: 118 118 89
Width: 1410
GlyphClass: 2
Flags: MW
LayerCount: 2
Fore
SplineSet
175 762 m 1
 38 762 l 1
 38 1072 l 1
 718 1072 l 1
 714 761 l 1
 611 761 l 1
 788 298 l 1
 941 762 l 1
 828 762 l 1
 828 1072 l 1
 1369 1072 l 1
 1369 761 l 1
 1236 761 l 1
 945 0 l 1
 512 0 l 1
 175 762 l 1
EndSplineSet
EndChar

StartChar: w
Encoding: 119 119 90
Width: 1973
GlyphClass: 2
Flags: HMW
LayerCount: 2
Fore
SplineSet
1375 761 m 1
 1431.24414062 761 1493 759.799804688 1493 759.799804688 c 129
 1493 759.799804688 1487.11816406 710.844726562 1479 682 c 2
 1394 380 l 1
 1351.98242188 490.569335938 1261.03222656 792.336914062 1221 924 c 2
 1176 1072 l 1
 910 1072 l 1
 700 392 l 1
 587 761 l 1
 701 761 l 1
 701 1072 l 1
 37 1072 l 1
 37 761 l 1
 106 761 l 1
 364 0 l 1
 808 0 l 1
 959 430 l 1
 1089 0 l 1
 1564 0 l 1
 1790 759.799804688 l 129
 1932 759.799804688 l 1
 1932 1072 l 1
 1375 1072 l 1
 1375 761 l 1
EndSplineSet
EndChar

StartChar: x
Encoding: 120 120 91
Width: 1274
GlyphClass: 2
Flags: MW
LayerCount: 2
Fore
SplineSet
1223 0 m 5
 750 0 l 1
 561 277 l 1
 354 0 l 1
 57 0 l 1
 57 305 l 1
 208 305 l 1
 388 512 l 1
 206 761 l 1
 77 761 l 1
 77 1072 l 1
 571 1072 l 1
 733 821 l 1
 918 1072 l 1
 1192 1072 l 5
 1192 761 l 5
 1062 761 l 1
 899 580 l 1
 1092 305 l 1
 1223 305 l 5
 1223 0 l 5
EndSplineSet
EndChar

StartChar: y
Encoding: 121 121 92
Width: 1499
GlyphClass: 2
Flags: HMW
LayerCount: 2
Fore
SplineSet
435 -377 m 1
 1126 -377 l 1
 1126 -82 l 1
 894 -82 l 1
 1329 760.799804688 l 129
 1458 761 l 5
 1458 1072 l 5
 898 1072 l 1
 898 761 l 1
 1018 760.799804688 l 2
 866 454 l 1
 690 761 l 1
 788 761 l 1
 788 1072 l 1
 38 1072 l 1
 38 761 l 1
 166 761 l 1
 632 31 l 1
 435 -377 l 1
EndSplineSet
EndChar

StartChar: z
Encoding: 122 122 93
Width: 1193
GlyphClass: 2
Flags: HMW
LayerCount: 2
Fore
SplineSet
278 636 m 1
 278 757.967773438 367.701171875 761 489 761 c 2
 549 761 l 1
 549 750 l 1
 55 283 l 1
 55 0 l 1
 1140 0 l 1
 1140 451 l 1
 957 451 l 5
 925.545898438 334.624023438 885.12890625 305 735 305 c 6
 634 305 l 1
 634 316 l 1
 1103 795 l 1
 1103 1072 l 1
 81 1072 l 1
 81 636 l 1
 278 636 l 1
EndSplineSet
EndChar

StartChar: braceleft
Encoding: 123 123 94
Width: 898
GlyphClass: 2
Flags: HMW
LayerCount: 2
Fore
SplineSet
40 965 m 1
 151.049804688 969.189453125 205 1017.09960938 205 1128 c 0
 205 1303.77246094 269.39453125 1435.72949219 361 1531.5 c 128
 463.96875 1639.15039062 638.969726562 1704 851 1704 c 1
 851 1373 l 1
 743 1373 689 1291 689 1127 c 0
 689 999.666992188 605.333007812 905 438 843 c 1
 605.333007812 781.666992188 689 687.333007812 689 560 c 0
 689 396 743 314 851 314 c 1
 851 -17 l 1
 536.798828125 -17 330.819335938 114.505859375 244.5 338.5 c 128
 218.166992188 406.833007812 205 480.333007812 205 559 c 0
 205 669.903320312 151.05078125 717.810546875 40 722 c 1
 40 965 l 1
EndSplineSet
EndChar

StartChar: bar
Encoding: 124 124 95
Width: 546
GlyphClass: 2
Flags: HMW
LayerCount: 2
Fore
SplineSet
470 1623 m 1
 470 0 l 1
 75 0 l 1
 75 1623 l 1
 470 1623 l 1
EndSplineSet
EndChar

StartChar: braceright
Encoding: 125 125 96
Width: 904
GlyphClass: 2
Flags: HMW
LayerCount: 2
Fore
SplineSet
860 722 m 1
 748.950195312 717.810546875 695 669.900390625 695 559 c 0
 695 383.227539062 630.60546875 251.270507812 539 155.5 c 128
 436.03125 47.849609375 261.030273438 -17 49 -17 c 1
 49 314 l 1
 157 314 211 396 211 560 c 0
 211 687.333007812 294.666992188 781.666992188 462 843 c 1
 294.666992188 905 211 999.666992188 211 1127 c 0
 211 1291 157 1373 49 1373 c 1
 49 1704 l 1
 363.201171875 1704 569.180664062 1572.49414062 655.5 1348.5 c 128
 681.833007812 1280.16699219 695 1206.66699219 695 1128 c 0
 695 1017.09667969 748.94921875 969.189453125 860 965 c 1
 860 722 l 1
EndSplineSet
EndChar

StartChar: asciitilde
Encoding: 126 126 97
Width: 1299
GlyphClass: 2
Flags: HMW
LayerCount: 2
Fore
SplineSet
909 629 m 0
 824.893385572 629 741.344451032 667.400507075 683 700.5 c 128
 616.292037844 738.344211101 552.438718165 781.824512734 479.5 811 c 128
 444.5 825 412.333007812 832 383 832 c 0
 365 832 343.333007812 820.666992188 318 798 c 128
 292.666992188 775.333007812 243.666992188 720.666992188 171 634 c 1
 40 720 l 1
 71.8877473289 769.160925891 120.924001449 875.419698953 150 929.5 c 128
 197.862568789 1018.52263922 259.688600507 1122 394 1122 c 0
 528.792702194 1122 633.067582085 1044.35586881 722.5 993 c 128
 775.415525845 962.613671788 850.114052139 923 923 923 c 0
 939.666992188 923 961.5 934.666992188 988.5 958 c 128
 1015.5 981.333007812 1063.33300781 1034.33300781 1132 1117 c 1
 1261 1032 l 1
 1200.74746195 941.621192931 1155.28218448 815.511520231 1093 728.5 c 128
 1053.52418691 673.350192105 996.620162939 629 909 629 c 0
EndSplineSet
EndChar

StartChar: exclamdown
Encoding: 161 161 99
Width: 689
GlyphClass: 2
Flags: HMW
LayerCount: 2
Fore
SplineSet
556 1072 m 1
 135 1074 l 1
 53 299 l 1
 53 0 l 1
 640 0 l 1
 640 299 l 1
 556 1072 l 1
345 1158 m 0
 265.666992188 1158 199.666992188 1180.5 147 1225.5 c 128
 94.3330078125 1270.5 68 1331.33300781 68 1408 c 0
 68 1483.33300781 93.8330078125 1543 145.5 1587 c 128
 197.166992188 1631 263.666992188 1653 345 1653 c 0
 429.666992188 1653 498.666992188 1631 552 1587 c 128
 605.333007812 1543 632 1483.33300781 632 1408 c 0
 632 1331.33300781 604.5 1270.5 549.5 1225.5 c 128
 494.5 1180.5 426.333007812 1158 345 1158 c 0
EndSplineSet
EndChar

StartChar: cent
Encoding: 162 162 100
Width: 1101
GlyphClass: 2
Flags: HMW
LayerCount: 2
Fore
SplineSet
721 1362 m 1
 721 1057 l 1
 754.333007812 1041.66699219 787.666992188 1021 821 995 c 1
 862 1072 l 1
 1037 1072 l 1
 1037 628 l 1
 795 628 l 1
 795 660.666992188 788.166992188 689.166992188 774.5 713.5 c 128
 760.833007812 737.833007812 743 755.333007812 721 766 c 1
 721 305 l 1
 733.666992188 310.333007812 745 318.333007812 755 329 c 128
 765 339.666992188 772.666992188 350 778 360 c 128
 783.333007812 370 787.666992188 380.666992188 791 392 c 128
 794.333007812 403.333007812 796.5 411 797.5 415 c 128
 798.5 419 799 422.333007812 799 425 c 1
 1039 425 l 1
 1039 124 l 1
 970.333007812 55.3330078125 864.333007812 11 721 -9 c 1
 721 -261 l 1
 609 -261 l 1
 609 -18 l 1
 596 -18 l 2
 490.666992188 -18 396.833007812 3.1669921875 314.5 45.5 c 128
 232.166992188 87.8330078125 166.5 152.166992188 117.5 238.5 c 128
 68.5 324.833007812 44 427.333007812 44 546 c 0
 44 618.666992188 56.1669921875 688 80.5 754 c 128
 104.833007812 820 138.833007812 878 182.5 928 c 128
 226.166992188 978 281 1017.83300781 347 1047.5 c 128
 413 1077.16699219 485 1092 563 1092 c 0
 578.333007812 1092 593.666992188 1091 609 1089 c 1
 609 1362 l 1
 721 1362 l 1
517 513 m 0
 517 468.333007812 524.333007812 427 539 389 c 128
 553.666992188 351 577 324.333007812 609 309 c 1
 609 759 l 1
 547.666992188 720.333007812 517 638.333007812 517 513 c 0
EndSplineSet
EndChar

StartChar: sterling
Encoding: 163 163 101
Width: 1235
GlyphClass: 2
Flags: HMW
LayerCount: 2
Fore
SplineSet
723 365 m 1
 754 356 l 1
 775.333007812 350.666992188 810.666992188 345.166992188 860 339.5 c 128
 909.333007812 333.833007812 962.333007812 331 1019 331 c 0
 1069.66699219 331 1128 334 1194 340 c 1
 1194 29 l 1
 1102.66699219 -2.3330078125 1012 -18 922 -18 c 0
 752.666992188 -18 668 39 668 153 c 1
 598.666992188 38.3330078125 484.666992188 -19 326 -19 c 0
 251.333007812 -19 157 -3 43 29 c 1
 43 340 l 1
 81.6669921875 331.333007812 113.666992188 327 139 327 c 0
 180.333007812 327 209 340.833007812 225 368.5 c 128
 241 396.166992188 249 446.666992188 249 520 c 2
 249 760 l 1
 125 760 l 1
 125 993 l 1
 249 993 l 1
 249 1207 l 2
 249 1264.33300781 260.833007812 1316.16699219 284.5 1362.5 c 128
 308.166992188 1408.83300781 339.166992188 1447 377.5 1477 c 128
 415.833007812 1507 461.166992188 1532.16699219 513.5 1552.5 c 128
 565.833007812 1572.83300781 619.333007812 1587.33300781 674 1596 c 128
 728.666992188 1604.66699219 785 1609 843 1609 c 0
 966.333007812 1609 1072 1593.66699219 1160 1563 c 1
 1160 1252 l 1
 1078.66699219 1260.66699219 1009.33300781 1265 952 1265 c 0
 878 1265 821.333007812 1253.83300781 782 1231.5 c 128
 742.666992188 1209.16699219 723 1171 723 1117 c 2
 723 993 l 1
 976 993 l 1
 976 760 l 1
 723 760 l 1
 723 519 l 1
 723 365 l 1
EndSplineSet
EndChar

StartChar: currency
Encoding: 164 164 102
Width: 1234
GlyphClass: 2
Flags: HMW
LayerCount: 2
Fore
SplineSet
40 1097 m 0
 40 1237 78.3330078125 1354.66699219 155 1450 c 1
 88 1518 l 1
 191 1621 l 1
 262 1549 l 1
 364 1619 481.333007812 1654 614 1654 c 0
 750.666992188 1654 870 1617.33300781 972 1544 c 1
 1049 1621 l 1
 1152 1518 l 1
 1078 1444 l 1
 1151.33300781 1349.33300781 1188 1233.66699219 1188 1097 c 0
 1188 955 1149 836.333007812 1071 741 c 1
 1152 660 l 1
 1049 557 l 1
 963 643 l 1
 862.333007812 574.333007812 746 540 614 540 c 0
 484.666992188 540 370.666992188 572.666992188 272 638 c 1
 191 557 l 1
 88 660 l 1
 162 734 l 1
 80.6669921875 830.666992188 40 951.666992188 40 1097 c 0
961 1269 m 1
 939.666992188 1321 910.833007812 1362.83300781 874.5 1394.5 c 128
 838.166992188 1426.16699219 797.666992188 1450.5 753 1467.5 c 128
 708.333007812 1484.5 662 1493 614 1493 c 128
 566 1493 519.666992188 1484.5 475 1467.5 c 128
 430.333007812 1450.5 389.833007812 1426.16699219 353.5 1394.5 c 128
 317.166992188 1362.83300781 288.166992188 1321.16699219 266.5 1269.5 c 128
 244.833007812 1217.83300781 234 1160.33300781 234 1097 c 128
 234 1033.66699219 244.833007812 976.166992188 266.5 924.5 c 128
 288.166992188 872.833007812 317.166992188 831.166992188 353.5 799.5 c 128
 389.833007812 767.833007812 430.333007812 743.5 475 726.5 c 128
 519.666992188 709.5 566 701 614 701 c 128
 662 701 708.333007812 709.5 753 726.5 c 128
 797.666992188 743.5 838.166992188 767.833007812 874.5 799.5 c 128
 910.833007812 831.166992188 939.833007812 872.833007812 961.5 924.5 c 128
 983.166992188 976.166992188 994 1033.66699219 994 1097 c 128
 994 1160.33300781 983 1217.66699219 961 1269 c 1
EndSplineSet
EndChar

StartChar: yen
Encoding: 165 165 103
Width: 1662
GlyphClass: 2
Flags: HMW
LayerCount: 2
Fore
SplineSet
151 936 m 1
 151 762 l 1
 510 762 l 1
 573 672 l 1
 573 630 l 1
 151 630 l 1
 151 456 l 1
 573 456 l 1
 573 371 l 1
 418 371 l 1
 418 0 l 1
 1287 0 l 1
 1287 371 l 1
 1130 371 l 1
 1130 456 l 1
 1544 456 l 1
 1544 630 l 1
 1130 630 l 1
 1130 762 l 1
 1544 762 l 1
 1544 936 l 1
 1233 936 l 1
 1334 1095 l 1
 1350.66699219 1125.66699219 1362.66699219 1147.33300781 1370 1160 c 128
 1377.33300781 1172.66699219 1387.83300781 1188.16699219 1401.5 1206.5 c 128
 1415.16699219 1224.83300781 1427.83300781 1237.5 1439.5 1244.5 c 128
 1451.16699219 1251.5 1465.83300781 1257.83300781 1483.5 1263.5 c 128
 1501.16699219 1269.16699219 1521.66699219 1272 1545 1272 c 2
 1619 1272 l 1
 1619 1622 l 1
 982 1622 l 1
 982 1272 l 1
 1032 1272 1062 1270 1072 1266 c 0
 1090 1260 1099 1245 1099 1221 c 0
 1099 1184.33300781 1061 1108.33300781 985 993 c 1
 971 1013.66699219 940.5 1060.66699219 893.5 1134 c 128
 846.5 1207.33300781 815.666992188 1254 801 1274 c 1
 892 1274 l 1
 892 1622 l 1
 40 1622 l 1
 40 1274 l 1
 152 1274 l 1
 388 936 l 1
 151 936 l 1
EndSplineSet
EndChar

StartChar: brokenbar
Encoding: 166 166 104
Width: 544
GlyphClass: 2
Flags: HMW
LayerCount: 2
Fore
SplineSet
469 721 m 1
 469 0 l 1
 74 0 l 1
 74 721 l 1
 469 721 l 1
469 1623 m 1
 469 902 l 1
 74 902 l 1
 74 1623 l 1
 469 1623 l 1
EndSplineSet
EndChar

StartChar: section
Encoding: 167 167 105
Width: 1016
GlyphClass: 2
Flags: HMW
LayerCount: 2
Fore
SplineSet
40 837 m 0
 40 893.666992188 58.6669921875 945.666992188 96 993 c 128
 133.333007812 1040.33300781 182.666992188 1075 244 1097 c 1
 134 1176.33300781 79 1262.66699219 79 1356 c 0
 79 1434.66699219 112.833007812 1501.33300781 180.5 1556 c 128
 248.166992188 1610.66699219 331.333007812 1638 430 1638 c 0
 464.666992188 1638 497.666992188 1635.66699219 529 1631 c 128
 560.333007812 1626.33300781 585.166992188 1621 603.5 1615 c 128
 621.833007812 1609 638.833007812 1602.33300781 654.5 1595 c 128
 670.166992188 1587.66699219 680.166992188 1582.5 684.5 1579.5 c 128
 688.833007812 1576.5 692 1574 694 1572 c 1
 721 1623 l 1
 889 1623 l 1
 889 1300 l 1
 688 1300 l 1
 645 1395 l 1
 633.666992188 1416.33300781 618.5 1433.5 599.5 1446.5 c 128
 580.5 1459.5 561.333007812 1466 542 1466 c 0
 520.666992188 1466 501.5 1458.16699219 484.5 1442.5 c 128
 467.5 1426.83300781 459 1405 459 1377 c 0
 459 1358.33300781 468.5 1339.33300781 487.5 1320 c 128
 506.5 1300.66699219 531.333007812 1282 562 1264 c 128
 592.666992188 1246 626.333007812 1227 663 1207 c 128
 699.666992188 1187 736.333007812 1165 773 1141 c 128
 809.666992188 1117 843.333007812 1091.5 874 1064.5 c 128
 904.666992188 1037.5 929.5 1005.83300781 948.5 969.5 c 128
 967.5 933.166992188 977 895 977 855 c 0
 977 785.666992188 958.333007812 723.333007812 921 668 c 128
 883.666992188 612.666992188 831.666992188 575 765 555 c 1
 872.333007812 489.666992188 926 403.333007812 926 296 c 0
 926 215.333007812 891.666992188 142.833007812 823 78.5 c 128
 754.333007812 14.1669921875 670 -18 570 -18 c 0
 506.666992188 -18 451.5 -12.5 404.5 -1.5 c 128
 357.5 9.5 316.666992188 32.6669921875 282 68 c 1
 246 1 l 1
 76 1 l 1
 76 379 l 1
 297 379 l 1
 305 333.666992188 325.333007812 294 358 260 c 128
 390.666992188 226 430.333007812 209 477 209 c 0
 499.666992188 209 520 215.666992188 538 229 c 128
 556 242.333007812 565 261.666992188 565 287 c 0
 565 311 555.333007812 334.833007812 536 358.5 c 128
 516.666992188 382.166992188 491.5 404.333007812 460.5 425 c 128
 429.5 445.666992188 395.333007812 466.666992188 358 488 c 128
 320.666992188 509.333007812 283.5 532.166992188 246.5 556.5 c 128
 209.5 580.833007812 175.5 606.333007812 144.5 633 c 128
 113.5 659.666992188 88.3330078125 690.666992188 69 726 c 128
 49.6669921875 761.333007812 40 798.333007812 40 837 c 0
461 988 m 1
 393 954.666992188 359 918 359 878 c 0
 359 846 381.833007812 813.666992188 427.5 781 c 128
 473.166992188 748.333007812 531.333007812 717.666992188 602 689 c 1
 659.333007812 725.666992188 688 769.666992188 688 821 c 0
 688 853.666992188 665.833007812 885 621.5 915 c 128
 577.166992188 945 523.666992188 969.333007812 461 988 c 1
EndSplineSet
EndChar

StartChar: dieresis
Encoding: 168 168 106
Width: 1184
GlyphClass: 2
Flags: HMW
LayerCount: 2
Fore
SplineSet
508 1342 m 0
 508 1270 485.833007812 1213.66699219 441.5 1173 c 128
 397.166992188 1132.33300781 344.666992188 1112 284 1112 c 0
 222 1112 168.5 1132.5 123.5 1173.5 c 128
 78.5 1214.5 56 1271.66699219 56 1345 c 0
 56 1416.33300781 78.3330078125 1472 123 1512 c 128
 167.666992188 1552 220.666992188 1572 282 1572 c 128
 343.333007812 1572 396.333007812 1551.83300781 441 1511.5 c 128
 485.666992188 1471.16699219 508 1414.66699219 508 1342 c 0
1125 1342 m 0
 1125 1270 1102.83300781 1213.66699219 1058.5 1173 c 128
 1014.16699219 1132.33300781 961.666992188 1112 901 1112 c 0
 839 1112 785.5 1132.5 740.5 1173.5 c 128
 695.5 1214.5 673 1271.66699219 673 1345 c 0
 673 1416.33300781 695.333007812 1472 740 1512 c 128
 784.666992188 1552 837.666992188 1572 899 1572 c 128
 960.333007812 1572 1013.33300781 1551.83300781 1058 1511.5 c 128
 1102.66699219 1471.16699219 1125 1414.66699219 1125 1342 c 0
EndSplineSet
EndChar

StartChar: copyright
Encoding: 169 169 107
Width: 1770
GlyphClass: 2
Flags: HMW
LayerCount: 2
Fore
SplineSet
110 1106 m 0
 154.666992188 1206 214.5 1292.16699219 289.5 1364.5 c 128
 364.5 1436.83300781 453.833007812 1494.5 557.5 1537.5 c 128
 661.166992188 1580.5 770 1602 884 1602 c 128
 998 1602 1106.83300781 1580.5 1210.5 1537.5 c 128
 1314.16699219 1494.5 1403.5 1436.83300781 1478.5 1364.5 c 128
 1553.5 1292.16699219 1613.16699219 1206 1657.5 1106 c 128
 1701.83300781 1006 1724 901.333007812 1724 792 c 128
 1724 682.666992188 1701.83300781 578 1657.5 478 c 128
 1613.16699219 378 1553.5 291.833007812 1478.5 219.5 c 128
 1403.5 147.166992188 1314.16699219 89.5 1210.5 46.5 c 128
 1106.83300781 3.5 998 -18 884 -18 c 128
 770 -18 661.166992188 3.5 557.5 46.5 c 128
 453.833007812 89.5 364.5 147.166992188 289.5 219.5 c 128
 214.5 291.833007812 154.833007812 378 110.5 478 c 128
 66.1669921875 578 44 682.666992188 44 792 c 128
 44 901.333007812 66 1006 110 1106 c 0
884 1448 m 0
 794 1448 708 1430.66699219 626 1396 c 128
 544 1361.33300781 473.166992188 1314.66699219 413.5 1256 c 128
 353.833007812 1197.33300781 306.333007812 1127.5 271 1046.5 c 128
 235.666992188 965.5 218 880.666992188 218 792 c 128
 218 703.333007812 235.666992188 618.5 271 537.5 c 128
 306.333007812 456.5 353.833007812 386.666992188 413.5 328 c 128
 473.166992188 269.333007812 544 222.666992188 626 188 c 128
 708 153.333007812 794 136 884 136 c 0
 1004 136 1115.16699219 165.333007812 1217.5 224 c 128
 1319.83300781 282.666992188 1400.83300781 362.333007812 1460.5 463 c 128
 1520.16699219 563.666992188 1550 673.333007812 1550 792 c 128
 1550 910.666992188 1520.16699219 1020.33300781 1460.5 1121 c 128
 1400.83300781 1221.66699219 1319.83300781 1301.33300781 1217.5 1360 c 128
 1115.16699219 1418.66699219 1004 1448 884 1448 c 0
1256 398 m 1
 1238 383 l 2
 1226 373 1207.66699219 360.833007812 1183 346.5 c 128
 1158.33300781 332.166992188 1130.66699219 317.833007812 1100 303.5 c 128
 1069.33300781 289.166992188 1032 277 988 267 c 128
 944 257 900 252 856 252 c 0
 698.666992188 252 578.166992188 299.333007812 494.5 394 c 128
 410.833007812 488.666992188 369 617.333007812 369 780 c 0
 369 833.333007812 374 885.333007812 384 936 c 128
 394 986.666992188 410.333007812 1035.33300781 433 1082 c 128
 455.666992188 1128.66699219 483.5 1169.33300781 516.5 1204 c 128
 549.5 1238.66699219 590.666992188 1266.33300781 640 1287 c 128
 689.333007812 1307.66699219 743.666992188 1318 803 1318 c 0
 911 1318 987 1296.66699219 1031 1254 c 1
 1053 1299 l 1
 1250 1299 l 1
 1250 898 l 1
 1061 898 l 1
 1061.66699219 928.666992188 1057.66699219 957.666992188 1049 985 c 128
 1040.33300781 1012.33300781 1024.33300781 1036.33300781 1001 1057 c 128
 977.666992188 1077.66699219 948.333007812 1088 913 1088 c 0
 889.666992188 1088 869.333007812 1084 852 1076 c 128
 834.666992188 1068 820.666992188 1056.16699219 810 1040.5 c 128
 799.333007812 1024.83300781 790.666992188 1008.83300781 784 992.5 c 128
 777.333007812 976.166992188 772.5 956.166992188 769.5 932.5 c 128
 766.5 908.833007812 764.666992188 888.666992188 764 872 c 128
 763.333007812 855.333007812 763 835.333007812 763 812 c 0
 763 807.333007812 762.833007812 795.5 762.5 776.5 c 128
 762.166992188 757.5 762.166992188 743.833007812 762.5 735.5 c 128
 762.833007812 727.166992188 763.333007812 713.333007812 764 694 c 128
 764.666992188 674.666992188 766 659.833007812 768 649.5 c 128
 770 639.166992188 772.833007812 625.666992188 776.5 609 c 128
 780.166992188 592.333007812 784.666992188 579.166992188 790 569.5 c 128
 795.333007812 559.833007812 802 549.166992188 810 537.5 c 128
 818 525.833007812 827.166992188 516.833007812 837.5 510.5 c 128
 847.833007812 504.166992188 860 498.833007812 874 494.5 c 128
 888 490.166992188 903.666992188 488 921 488 c 0
 955.666992188 488 985.833007812 497.833007812 1011.5 517.5 c 128
 1037.16699219 537.166992188 1053.33300781 564 1060 598 c 0
 1062 606.666992188 1063.66699219 626.666992188 1065 658 c 1
 1256 658 l 1
 1256 398 l 1
EndSplineSet
EndChar

StartChar: ordfeminine
Encoding: 170 170 108
Width: 991
GlyphClass: 2
Flags: HMW
LayerCount: 2
Fore
SplineSet
39 1046 m 0
 39 1084 48.1669921875 1118.5 66.5 1149.5 c 128
 84.8330078125 1180.5 109.333007812 1205.66699219 140 1225 c 128
 170.666992188 1244.33300781 204.833007812 1259 242.5 1269 c 128
 280.166992188 1279 319.333007812 1284 360 1284 c 0
 432 1284 495 1274.66699219 549 1256 c 1
 549 1289 l 2
 549 1370.33300781 497 1411 393 1411 c 0
 323 1411 270.333007812 1387.66699219 235 1341 c 1
 105 1341 l 1
 105 1573 l 1
 155 1586 l 2
 187.666992188 1594.66699219 233.833007812 1603.33300781 293.5 1612 c 128
 353.166992188 1620.66699219 409.333007812 1625 462 1625 c 0
 482 1625 500.166992188 1624.66699219 516.5 1624 c 128
 532.833007812 1623.33300781 556.333007812 1621.33300781 587 1618 c 128
 617.666992188 1614.66699219 645 1609.83300781 669 1603.5 c 128
 693 1597.16699219 718.833007812 1587.83300781 746.5 1575.5 c 128
 774.166992188 1563.16699219 797.166992188 1548.33300781 815.5 1531 c 128
 833.833007812 1513.66699219 849.333007812 1491.33300781 862 1464 c 128
 874.666992188 1436.66699219 881 1406 881 1372 c 2
 881 1044 l 1
 937 1044 l 1
 937 819 l 1
 589 819 l 1
 552 907 l 1
 527.333007812 875 493.666992188 850.166992188 451 832.5 c 128
 408.333007812 814.833007812 366.666992188 806 326 806 c 0
 246.666992188 806 179 827.666992188 123 871 c 128
 67 914.333007812 39 972.666992188 39 1046 c 0
401 1060 m 0
 401 1037.33300781 407.333007812 1019 420 1005 c 128
 432.666992188 991 449.666992188 984 471 984 c 0
 487 984 501.833007812 987.166992188 515.5 993.5 c 128
 529.166992188 999.833007812 538 1005 542 1009 c 128
 548 1015 548 1015 551 1018 c 1
 551 1127 l 1
 541 1131 l 2
 533.666992188 1133.66699219 524 1136.16699219 512 1138.5 c 128
 500 1140.83300781 488.666992188 1142 478 1142 c 0
 456.666992188 1142 438.5 1133.5 423.5 1116.5 c 128
 408.5 1099.5 401 1080.66699219 401 1060 c 0
EndSplineSet
EndChar

StartChar: guillemotleft
Encoding: 171 171 109
Width: 1314
GlyphClass: 2
Flags: HMW
LayerCount: 2
Fore
SplineSet
659 669 m 1
 1085 1073 l 1
 1276 849 l 1
 961 534 l 1
 1276 219 l 1
 1085 -5 l 1
 659 399 l 1
 659 669 l 1
49 669 m 1
 475 1073 l 1
 666 849 l 1
 351 534 l 1
 666 219 l 1
 475 -5 l 1
 49 399 l 1
 49 669 l 1
EndSplineSet
EndChar

StartChar: logicalnot
Encoding: 172 172 110
Width: 1137
GlyphClass: 2
Flags: HMW
LayerCount: 2
Fore
SplineSet
56 1092 m 1
 1067 1092 l 1
 1067 542 l 1
 836 542 l 1
 836 761 l 1
 57 761 l 1
 56 1092 l 1
EndSplineSet
EndChar

StartChar: uni00AD
Encoding: 173 173 111
Width: 778
GlyphClass: 2
Flags: HMW
LayerCount: 2
Fore
SplineSet
713 836 m 1
 713 537 l 1
 66 537 l 1
 66 836 l 1
 713 836 l 1
EndSplineSet
EndChar

StartChar: registered
Encoding: 174 174 112
Width: 1770
GlyphClass: 2
Flags: HMW
LayerCount: 2
Fore
SplineSet
110 1106 m 0
 154.666992188 1206 214.5 1292.16699219 289.5 1364.5 c 128
 364.5 1436.83300781 453.833007812 1494.5 557.5 1537.5 c 128
 661.166992188 1580.5 770 1602 884 1602 c 128
 998 1602 1106.83300781 1580.5 1210.5 1537.5 c 128
 1314.16699219 1494.5 1403.5 1436.83300781 1478.5 1364.5 c 128
 1553.5 1292.16699219 1613.16699219 1206 1657.5 1106 c 128
 1701.83300781 1006 1724 901.333007812 1724 792 c 128
 1724 682.666992188 1701.83300781 578 1657.5 478 c 128
 1613.16699219 378 1553.5 291.833007812 1478.5 219.5 c 128
 1403.5 147.166992188 1314.16699219 89.5 1210.5 46.5 c 128
 1106.83300781 3.5 998 -18 884 -18 c 128
 770 -18 661.166992188 3.5 557.5 46.5 c 128
 453.833007812 89.5 364.5 147.166992188 289.5 219.5 c 128
 214.5 291.833007812 154.833007812 378 110.5 478 c 128
 66.1669921875 578 44 682.666992188 44 792 c 128
 44 901.333007812 66 1006 110 1106 c 0
884 1448 m 0
 794 1448 708 1430.66699219 626 1396 c 128
 544 1361.33300781 473.166992188 1314.66699219 413.5 1256 c 128
 353.833007812 1197.33300781 306.333007812 1127.5 271 1046.5 c 128
 235.666992188 965.5 218 880.666992188 218 792 c 128
 218 703.333007812 235.666992188 618.5 271 537.5 c 128
 306.333007812 456.5 353.833007812 386.666992188 413.5 328 c 128
 473.166992188 269.333007812 544 222.666992188 626 188 c 128
 708 153.333007812 794 136 884 136 c 0
 1004 136 1115.16699219 165.333007812 1217.5 224 c 128
 1319.83300781 282.666992188 1400.83300781 362.333007812 1460.5 463 c 128
 1520.16699219 563.666992188 1550 673.333007812 1550 792 c 128
 1550 910.666992188 1520.16699219 1020.33300781 1460.5 1121 c 128
 1400.83300781 1221.66699219 1319.83300781 1301.33300781 1217.5 1360 c 128
 1115.16699219 1418.66699219 1004 1448 884 1448 c 0
904 363 m 1
 806 363 656 362.666992188 454 362 c 1
 454 565 l 1
 539 565 l 1
 539 1061 l 1
 453 1061 l 1
 453 1265 l 1
 1017 1265 l 2
 1111.66699219 1265 1184.5 1245.33300781 1235.5 1206 c 128
 1286.5 1166.66699219 1312 1102.66699219 1312 1014 c 0
 1312 960 1294.66699219 915.666992188 1260 881 c 128
 1225.33300781 846.333007812 1176 823.333007812 1112 812 c 1
 1166.66699219 799.333007812 1206 781.666992188 1230 759 c 128
 1254 736.333007812 1266 708 1266 674 c 2
 1266 622 l 2
 1266 600 1271.5 584.5 1282.5 575.5 c 128
 1293.5 566.5 1318.33300781 562 1357 562 c 1
 1357 363 l 1
 1211 363 l 2
 1184.33300781 363 1163.66699219 363.333007812 1149 364 c 128
 1134.33300781 364.666992188 1115.66699219 367.5 1093 372.5 c 128
 1070.33300781 377.5 1053 384.666992188 1041 394 c 128
 1029 403.333007812 1018.33300781 417.333007812 1009 436 c 128
 999.666992188 454.666992188 995 477.666992188 995 505 c 2
 995 614 l 2
 995 658.666992188 988.166992188 692.333007812 974.5 715 c 128
 960.833007812 737.666992188 933 749 891 749 c 2
 837 749 l 1
 837 568 l 1
 904 568 l 1
 904 363 l 1
867 875 m 2
 959.666992188 875 1006 907.333007812 1006 972 c 0
 1006 1001.33300781 996.666992188 1025.16699219 978 1043.5 c 128
 959.333007812 1061.83300781 933.666992188 1071 901 1071 c 2
 833 1071 l 1
 833 875 l 1
 867 875 l 2
EndSplineSet
EndChar

StartChar: glyph113
Encoding: 175 175 113
Width: 778
GlyphClass: 2
Flags: HMW
LayerCount: 2
Fore
SplineSet
710 1433 m 1
 710 1164 l 1
 63 1164 l 1
 63 1433 l 1
 710 1433 l 1
EndSplineSet
EndChar

StartChar: degree
Encoding: 176 176 114
Width: 808
GlyphClass: 2
Flags: HMW
LayerCount: 2
Fore
SplineSet
396 1092 m 0
 460.666992188 1092 511.5 1112.16699219 548.5 1152.5 c 128
 585.5 1192.83300781 604 1240.66699219 604 1296 c 0
 604 1350 585.666992188 1396.66699219 549 1436 c 128
 512.333007812 1475.33300781 461.333007812 1495 396 1495 c 0
 332.666992188 1495 283.333007812 1475.33300781 248 1436 c 128
 212.666992188 1396.66699219 195 1350 195 1296 c 0
 195 1241.33300781 213 1193.66699219 249 1153 c 128
 285 1112.33300781 334 1092 396 1092 c 0
396 951 m 0
 340 951 289.166992188 960.833007812 243.5 980.5 c 128
 197.833007812 1000.16699219 160.666992188 1026.5 132 1059.5 c 128
 103.333007812 1092.5 81.3330078125 1129.33300781 66 1170 c 128
 50.6669921875 1210.66699219 43 1253 43 1297 c 0
 43 1339.66699219 50.5 1380.83300781 65.5 1420.5 c 128
 80.5 1460.16699219 102.166992188 1496 130.5 1528 c 128
 158.833007812 1560 196 1585.5 242 1604.5 c 128
 288 1623.5 339.333007812 1633 396 1633 c 0
 455.333007812 1633 508.666992188 1623.5 556 1604.5 c 128
 603.333007812 1585.5 641.666992188 1560 671 1528 c 128
 700.333007812 1496 722.833007812 1460.33300781 738.5 1421 c 128
 754.166992188 1381.66699219 762 1340.33300781 762 1297 c 0
 762 1253 754 1210.66699219 738 1170 c 128
 722 1129.33300781 699.166992188 1092.5 669.5 1059.5 c 128
 639.833007812 1026.5 601.333007812 1000.16699219 554 980.5 c 128
 506.666992188 960.833007812 454 951 396 951 c 0
EndSplineSet
EndChar

StartChar: plusminus
Encoding: 177 177 115
Width: 814
GlyphClass: 2
Flags: HMW
LayerCount: 2
Fore
SplineSet
730 223 m 1
 730 -1 l 1
 83 -1 l 1
 83 223 l 1
 730 223 l 1
53 762 m 1
 285 762 l 1
 285 1031 l 1
 540 1031 l 1
 540 762 l 1
 765 762 l 1
 765 517 l 1
 540 517 l 1
 540 278 l 1
 285 278 l 1
 285 517 l 1
 53 517 l 1
 53 762 l 1
EndSplineSet
EndChar

StartChar: uni00B2
Encoding: 178 178 116
Width: 805
GlyphClass: 2
Flags: HMW
LayerCount: 2
Fore
SplineSet
71.0947265625 286 m 1
 71.0947265625 468 l 1
 148.427734375 498.666992188 213.094726562 535.666992188 265.094726562 579 c 0
 295.76171875 605 318.927734375 626.166992188 334.594726562 642.5 c 128
 350.26171875 658.833007812 365.094726562 681.5 379.094726562 710.5 c 128
 393.094726562 739.5 400.094726562 770.333007812 400.094726562 803 c 1
 398.094726562 833.666992188 389.094726562 858.666992188 373.094726562 878 c 128
 357.094726562 897.333007812 338.76171875 907 318.094726562 907 c 0
 292.094726562 907 271.927734375 898.833007812 257.594726562 882.5 c 128
 243.26171875 866.166992188 236.094726562 845.666992188 236.094726562 821 c 0
 236.094726562 793 248.76171875 767.333007812 274.094726562 744 c 1
 137.094726562 639 l 1
 75.76171875 693.666992188 46.0947265625 766.666992188 48.0947265625 858 c 1
 48.0947265625 913.333007812 65.927734375 962 101.594726562 1004 c 128
 137.26171875 1046 181.094726562 1076.5 233.094726562 1095.5 c 128
 285.094726562 1114.5 338.76171875 1123 394.094726562 1121 c 0
 484.76171875 1117.66699219 559.76171875 1091.83300781 619.094726562 1043.5 c 128
 678.427734375 995.166992188 708.094726562 929 708.094726562 845 c 0
 708.094726562 783 686.76171875 725 644.094726562 671 c 0
 610.094726562 627 538.094726562 563.666992188 428.094726562 481 c 1
 525.094726562 481 l 1
 565.76171875 482.333007812 597.594726562 489 620.594726562 501 c 128
 643.594726562 513 655.094726562 536 655.094726562 570 c 1
 759.094726562 570 l 1
 759.094726562 286 l 1
 71.0947265625 286 l 1
EndSplineSet
EndChar

StartChar: uni00B3
Encoding: 179 179 117
Width: 769
GlyphClass: 2
Flags: HMW
LayerCount: 2
Fore
SplineSet
65 529 m 1
 135.666992188 471.666992188 208 443 282 443 c 0
 316 443 346.333007812 449.833007812 373 463.5 c 128
 399.666992188 477.166992188 413 499 413 529 c 0
 413 563.666992188 398.333007812 588.666992188 369 604 c 128
 339.666992188 619.333007812 305.666992188 627 267 627 c 0
 251.666992188 627 236 625.166992188 220 621.5 c 128
 204 617.833007812 194.666992188 616 192 616 c 2
 181 618 l 1
 180 621 l 1
 180 714 l 1
 380 884 l 1
 380 890 l 1
 252 890 l 2
 237.333007812 890 225.333007812 888.5 216 885.5 c 128
 206.666992188 882.5 199.166992188 876.166992188 193.5 866.5 c 128
 187.833007812 856.833007812 183.833007812 848.833007812 181.5 842.5 c 128
 179.166992188 836.166992188 175.666992188 824 171 806 c 1
 58 807 l 1
 58 1072 l 1
 684 1072 l 1
 684 918 l 2
 684 916.666992188 628.333007812 870.333007812 517 779 c 1
 573.666992188 773.666992188 622.166992188 749.166992188 662.5 705.5 c 128
 702.833007812 661.833007812 723 612.666992188 723 558 c 0
 723 466 689 395 621 345 c 128
 553 295 460.333007812 270 343 270 c 0
 281 270 228 273.5 184 280.5 c 128
 140 287.5 100.333007812 302.666992188 65 326 c 1
 65 529 l 1
EndSplineSet
EndChar

StartChar: acute
Encoding: 180 180 118
Width: 754
GlyphClass: 2
Flags: HMW
LayerCount: 2
Fore
SplineSet
706 1443 m 1
 152 1130 l 1
 48 1271 l 1
 522 1708 l 1
 706 1443 l 1
EndSplineSet
EndChar

StartChar: uni00B5
Encoding: 181 181 119
Width: 1426
GlyphClass: 2
Flags: HMW
LayerCount: 2
Fore
SplineSet
813 156 m 1
 776.333007812 99.3330078125 727.166992188 56.1669921875 665.5 26.5 c 128
 603.833007812 -3.1669921875 533.666992188 -18 455 -18 c 0
 235 -18 125 116.333007812 125 385 c 2
 125 761 l 1
 45 761 l 1
 45 1072 l 1
 619 1072 l 1
 619 438 l 2
 619 402.666992188 628 373.833007812 646 351.5 c 128
 664 329.166992188 685 318 709 318 c 0
 740.333007812 318 765.5 329.5 784.5 352.5 c 128
 803.5 375.5 813 404 813 438 c 2
 813 761 l 1
 732 761 l 1
 732 1072 l 1
 1307 1072 l 1
 1307 305 l 1
 1383 305 l 1
 1383 0 l 1
 813 0 l 1
 813 156 l 1
EndSplineSet
EndChar

StartChar: paragraph
Encoding: 182 182 120
Width: 1461
GlyphClass: 2
Flags: HMW
LayerCount: 2
Fore
SplineSet
607.095703125 739 m 1
 518.428710938 739 440.26171875 746.333007812 372.595703125 761 c 128
 304.928710938 775.666992188 245.095703125 799.333007812 193.095703125 832 c 128
 141.095703125 864.666992188 101.76171875 909 75.095703125 965 c 128
 48.4287109375 1021 35.76171875 1088 37.095703125 1166 c 0
 37.76171875 1216 43.26171875 1261.66699219 53.595703125 1303 c 128
 63.9287109375 1344.33300781 78.26171875 1379.83300781 96.595703125 1409.5 c 128
 114.928710938 1439.16699219 136.76171875 1465.83300781 162.095703125 1489.5 c 128
 187.428710938 1513.16699219 215.595703125 1532.16699219 246.595703125 1546.5 c 128
 277.595703125 1560.83300781 310.928710938 1573.5 346.595703125 1584.5 c 128
 382.26171875 1595.5 419.76171875 1603.16699219 459.095703125 1607.5 c 128
 498.428710938 1611.83300781 539.095703125 1615.66699219 581.095703125 1619 c 128
 623.095703125 1622.33300781 665.76171875 1623.66699219 709.095703125 1623 c 128
 752.428710938 1622.33300781 796.095703125 1622.33300781 840.095703125 1623 c 0
 884.095703125 1623 884.095703125 1623 906.095703125 1623 c 2
 1407.09570312 1623 l 1
 1407.09570312 1268 l 1
 1256.09570312 1268 l 1
 1256.09570312 363 l 1
 1412.09570312 363 l 1
 1412.09570312 0 l 1
 1003.09570312 0 l 1
 1003.09570312 1270 l 1
 878.095703125 1270 l 1
 878.095703125 0 l 1
 461.095703125 0 l 1
 461.095703125 363 l 1
 607.095703125 363 l 1
 607.095703125 739 l 1
EndSplineSet
EndChar

StartChar: periodcentered
Encoding: 183 183 121
Width: 670
GlyphClass: 2
Flags: HMW
LayerCount: 2
Fore
SplineSet
329 514 m 0
 249.666992188 514 183.666992188 536.5 131 581.5 c 128
 78.3330078125 626.5 52 687.333007812 52 764 c 0
 52 839.333007812 77.8330078125 899 129.5 943 c 128
 181.166992188 987 247.666992188 1009 329 1009 c 0
 413.666992188 1009 482.666992188 987 536 943 c 128
 589.333007812 899 616 839.333007812 616 764 c 0
 616 687.333007812 588.5 626.5 533.5 581.5 c 128
 478.5 536.5 410.333007812 514 329 514 c 0
EndSplineSet
EndChar

StartChar: cedilla
Encoding: 184 184 122
Width: 512
GlyphClass: 2
Flags: HMW
LayerCount: 2
Fore
SplineSet
137 0 m 1
 317 0 l 1
 317 -119 l 1
 405.666992188 -170.333007812 450 -225.666992188 450 -285 c 0
 450 -339.666992188 413.833007812 -386.666992188 341.5 -426 c 128
 269.166992188 -465.333007812 182.333007812 -485 81 -485 c 2
 60 -485 l 1
 60 -372 l 1
 124.666992188 -371.333007812 172 -361.666992188 202 -343 c 128
 232 -324.333007812 247 -300.333007812 247 -271 c 0
 247 -244.333007812 236.333007812 -216.666992188 215 -188 c 128
 193.666992188 -159.333007812 167.666992188 -136.333007812 137 -119 c 1
 137 0 l 1
EndSplineSet
EndChar

StartChar: uni00B9
Encoding: 185 185 123
Width: 535
GlyphClass: 2
Flags: HMW
LayerCount: 2
Fore
SplineSet
86 286 m 1
 85 476 l 1
 138 476 l 1
 138 843 l 1
 42 842 l 1
 42 993 l 1
 429 1091 l 1
 433 476 l 1
 489 476 l 1
 489 286 l 1
 86 286 l 1
EndSplineSet
EndChar

StartChar: ordmasculine
Encoding: 186 186 124
Width: 993
GlyphClass: 2
Flags: HMW
LayerCount: 2
Fore
SplineSet
51 688 m 0
 51 816.666992188 90.8330078125 916 170.5 986 c 128
 250.166992188 1056 359 1091 497 1091 c 0
 635.666992188 1091 744.666992188 1056 824 986 c 128
 903.333007812 916 943 816.666992188 943 688 c 0
 943 558 902.166992188 455.833007812 820.5 381.5 c 128
 738.833007812 307.166992188 631 270 497 270 c 128
 363 270 255.166992188 307.166992188 173.5 381.5 c 128
 91.8330078125 455.833007812 51 558 51 688 c 0
396 686 m 0
 396 562.666992188 429.666992188 501 497 501 c 0
 565 501 599 562.666992188 599 686 c 0
 599 711.333007812 597.833007812 732.833007812 595.5 750.5 c 128
 593.166992188 768.166992188 588.833007812 786.166992188 582.5 804.5 c 128
 576.166992188 822.833007812 565.833007812 836.666992188 551.5 846 c 128
 537.166992188 855.333007812 519 860 497 860 c 128
 475 860 457 855.333007812 443 846 c 128
 429 836.666992188 418.666992188 822.833007812 412 804.5 c 128
 405.333007812 786.166992188 401 768.166992188 399 750.5 c 128
 397 732.833007812 396 711.333007812 396 686 c 0
EndSplineSet
EndChar

StartChar: guillemotright
Encoding: 187 187 125
Width: 1311
GlyphClass: 2
Flags: HMW
LayerCount: 2
Fore
SplineSet
655 399 m 1
 229 -5 l 1
 38 219 l 1
 353 534 l 1
 38 849 l 1
 229 1073 l 1
 655 669 l 1
 655 399 l 1
1265 399 m 1
 839 -5 l 1
 648 219 l 1
 963 534 l 1
 648 849 l 1
 839 1073 l 1
 1265 669 l 1
 1265 399 l 1
EndSplineSet
EndChar

StartChar: onequarter
Encoding: 188 188 126
Width: 1674
GlyphClass: 2
Flags: HMW
LayerCount: 2
Fore
SplineSet
79 818 m 1
 78 1008 l 1
 131 1008 l 1
 131 1375 l 1
 35 1374 l 1
 35 1525 l 1
 422 1623 l 1
 426 1008 l 1
 482 1008 l 1
 482 818 l 1
 79 818 l 1
316 0 m 1
 807 1623 l 1
 1171 1623 l 1
 669 0 l 1
 316 0 l 1
1504 170 m 1
 1576 170 l 1
 1576 1 l 1
 1162 1 l 1
 1162 170 l 1
 1236 170 l 1
 1236 247 l 1
 923 247 l 1
 923 405 l 1
 1247 789 l 1
 1505 788 l 1
 1505 397 l 1
 1638 398 l 1
 1638 247 l 1
 1504 247 l 1
 1504 170 l 1
1236 398 m 1
 1236 536 l 1
 1125 399 l 1
 1236 398 l 1
EndSplineSet
EndChar

StartChar: onehalf
Encoding: 189 189 127
Width: 1741
GlyphClass: 2
Flags: HMW
LayerCount: 2
Fore
SplineSet
78 818 m 1
 77 1008 l 1
 130 1008 l 1
 130 1375 l 1
 34 1374 l 1
 34 1525 l 1
 421 1623 l 1
 425 1008 l 1
 481 1008 l 1
 481 818 l 1
 78 818 l 1
323 0 m 1
 814 1623 l 1
 1178 1623 l 1
 676 0 l 1
 323 0 l 1
1013 -1 m 1
 1013 181 l 1
 1090.33300781 211.666992188 1155 248.666992188 1207 292 c 0
 1237.66699219 318 1260.83300781 339.166992188 1276.5 355.5 c 128
 1292.16699219 371.833007812 1307 394.5 1321 423.5 c 128
 1335 452.5 1342 483.333007812 1342 516 c 1
 1340 546.666992188 1331 571.666992188 1315 591 c 128
 1299 610.333007812 1280.66699219 620 1260 620 c 0
 1234 620 1213.83300781 611.833007812 1199.5 595.5 c 128
 1185.16699219 579.166992188 1178 558.666992188 1178 534 c 0
 1178 506 1190.66699219 480.333007812 1216 457 c 1
 1079 352 l 1
 1017.66699219 406.666992188 988 479.666992188 990 571 c 1
 990 626.333007812 1007.83300781 675 1043.5 717 c 128
 1079.16699219 759 1123 789.5 1175 808.5 c 128
 1227 827.5 1280.66699219 836 1336 834 c 0
 1426.66699219 830.666992188 1501.66699219 804.833007812 1561 756.5 c 128
 1620.33300781 708.166992188 1650 642 1650 558 c 0
 1650 496 1628.66699219 438 1586 384 c 0
 1552 340 1480 276.666992188 1370 194 c 1
 1467 194 l 1
 1507.66699219 195.333007812 1539.5 202 1562.5 214 c 128
 1585.5 226 1597 249 1597 283 c 1
 1701 283 l 1
 1701 -1 l 1
 1013 -1 l 1
EndSplineSet
EndChar

StartChar: threequarters
Encoding: 190 190 128
Width: 1778
GlyphClass: 2
Flags: HMW
LayerCount: 2
Fore
SplineSet
51 1081 m 1
 121.666992188 1023.66699219 194 995 268 995 c 0
 302 995 332.333007812 1001.83300781 359 1015.5 c 128
 385.666992188 1029.16699219 399 1051 399 1081 c 0
 399 1115.66699219 384.333007812 1140.66699219 355 1156 c 128
 325.666992188 1171.33300781 291.666992188 1179 253 1179 c 0
 237.666992188 1179 222 1177.16699219 206 1173.5 c 128
 190 1169.83300781 180.666992188 1168 178 1168 c 0
 172.666992188 1168 169 1168.66699219 167 1170 c 1
 166 1173 l 1
 166 1266 l 1
 366 1436 l 1
 366 1442 l 1
 238 1442 l 2
 223.333007812 1442 211.333007812 1440.5 202 1437.5 c 128
 192.666992188 1434.5 185.166992188 1428.16699219 179.5 1418.5 c 128
 173.833007812 1408.83300781 169.833007812 1400.83300781 167.5 1394.5 c 128
 165.166992188 1388.16699219 161.666992188 1376 157 1358 c 1
 44 1359 l 1
 44 1624 l 1
 670 1624 l 1
 670 1470 l 2
 670 1468.66699219 614.333007812 1422.33300781 503 1331 c 1
 559.666992188 1325.66699219 608.166992188 1301.16699219 648.5 1257.5 c 128
 688.833007812 1213.83300781 709 1164.66699219 709 1110 c 0
 709 1018 675 947 607 897 c 128
 539 847 446.333007812 822 329 822 c 0
 267 822 214 825.5 170 832.5 c 128
 126 839.5 86.3330078125 854.666992188 51 878 c 1
 51 1081 l 1
470 0 m 1
 961 1623 l 1
 1325 1623 l 1
 823 0 l 1
 470 0 l 1
1610 168 m 1
 1682 168 l 1
 1682 -1 l 1
 1268 -1 l 1
 1268 168 l 1
 1342 168 l 1
 1342 245 l 1
 1029 245 l 1
 1029 403 l 1
 1353 787 l 1
 1611 786 l 1
 1611 395 l 1
 1744 396 l 1
 1744 245 l 1
 1610 245 l 1
 1610 168 l 1
1342 396 m 1
 1342 534 l 1
 1231 397 l 1
 1342 396 l 1
EndSplineSet
EndChar

StartChar: questiondown
Encoding: 191 191 129
Width: 1288
GlyphClass: 2
Flags: HMW
LayerCount: 2
Fore
SplineSet
953 1180 m 1
 606 1180 l 1
 606 993 l 1
 565.333007812 979 529.5 965.833007812 498.5 953.5 c 128
 467.5 941.166992188 431.5 925.166992188 390.5 905.5 c 128
 349.5 885.833007812 313.833007812 866 283.5 846 c 128
 253.166992188 826 222.166992188 801.666992188 190.5 773 c 128
 158.833007812 744.333007812 133 714.5 113 683.5 c 128
 93 652.5 76.5 616.666992188 63.5 576 c 128
 50.5 535.333007812 44 492.333007812 44 447 c 0
 44 359 70 279.5 122 208.5 c 128
 174 137.5 245.833007812 82 337.5 42 c 128
 429.166992188 2 531.333007812 -18 644 -18 c 0
 815.333007812 -18 957.5 30.6669921875 1070.5 128 c 128
 1183.5 225.333007812 1244.66699219 349.333007812 1254 500 c 1
 782 500 l 1
 775.333007812 392 732 338 652 338 c 0
 632 338 615 343.166992188 601 353.5 c 128
 587 363.833007812 577.166992188 377 571.5 393 c 128
 565.833007812 409 561.833007812 423.166992188 559.5 435.5 c 128
 557.166992188 447.833007812 556 459.333007812 556 470 c 0
 556 589.333007812 688 708.666992188 952 828 c 1
 953 1180 l 1
773 1746 m 0
 852.333007812 1746 918.333007812 1723.5 971 1678.5 c 128
 1023.66699219 1633.5 1050 1572.66699219 1050 1496 c 0
 1050 1420.66699219 1024.16699219 1361 972.5 1317 c 128
 920.833007812 1273 854.333007812 1251 773 1251 c 0
 688.333007812 1251 619.333007812 1273 566 1317 c 128
 512.666992188 1361 486 1420.66699219 486 1496 c 0
 486 1572.66699219 513.5 1633.5 568.5 1678.5 c 128
 623.5 1723.5 691.666992188 1746 773 1746 c 0
EndSplineSet
EndChar

StartChar: Agrave
Encoding: 192 192 130
Width: 1724
GlyphClass: 2
Flags: HMW
LayerCount: 2
Fore
SplineSet
1231 1623 m 1
 237 1623 l 1
 237 1270 l 1
 449 1270 l 1
 277 591 l 2
 259 521 246.333007812 478 239 462 c 0
 217 411.333007812 180 379.666992188 128 367 c 0
 105.333007812 361.666992188 79.3330078125 359 50 359 c 1
 50 0 l 1
 728 0 l 1
 728 359 l 1
 644 359 l 2
 630 359 619.333007812 371 612 395 c 128
 604.666992188 419 601 440.333007812 601 459 c 1
 601.666992188 473 602.333007812 483.666992188 603 491 c 128
 603.666992188 498.333007812 606.333007812 505.5 611 512.5 c 128
 615.666992188 519.5 622.333007812 523 631 523 c 2
 906 523 l 2
 950.666992188 523 973 468.333007812 973 359 c 1
 853 359 l 1
 854 0 l 1
 1680 0 l 1
 1680 359 l 1
 1594 359 l 2
 1584 359 1575.33300781 363.166992188 1568 371.5 c 128
 1560.66699219 379.833007812 1555.16699219 389.333007812 1551.5 400 c 128
 1547.83300781 410.666992188 1543.33300781 426.333007812 1538 447 c 2
 1231 1623 l 1
658 773 m 1
 770 1281 l 1
 887 773 l 1
 658 773 l 1
694 2270 m 1
 1168 1833 l 1
 1064 1692 l 1
 510 2005 l 1
 694 2270 l 1
EndSplineSet
EndChar

StartChar: Aacute
Encoding: 193 193 131
Width: 1724
GlyphClass: 2
Flags: HMW
LayerCount: 2
Fore
SplineSet
1538 447 m 2
 1543.33300781 426.333007812 1547.83300781 410.666992188 1551.5 400 c 128
 1555.16699219 389.333007812 1560.66699219 379.833007812 1568 371.5 c 128
 1575.33300781 363.166992188 1584 359 1594 359 c 2
 1680 359 l 1
 1680 0 l 1
 854 0 l 1
 853 359 l 1
 973 359 l 1
 973 468.333007812 950.666992188 523 906 523 c 2
 631 523 l 2
 622.333007812 523 615.666992188 519.5 611 512.5 c 128
 606.333007812 505.5 603.666992188 498.333007812 603 491 c 128
 602.333007812 483.666992188 601.666992188 473 601 459 c 1
 601 440.333007812 604.666992188 419 612 395 c 128
 619.333007812 371 630 359 644 359 c 2
 728 359 l 1
 728 0 l 1
 50 0 l 1
 50 359 l 1
 79.3330078125 359 105.333007812 361.666992188 128 367 c 0
 180 379.666992188 217 411.333007812 239 462 c 0
 246.333007812 478 259 521 277 591 c 2
 449 1270 l 1
 237 1270 l 1
 237 1623 l 1
 1231 1623 l 1
 1538 447 l 2
887 773 m 1
 770 1281 l 1
 658 773 l 1
 887 773 l 1
1168 2005 m 1
 614 1692 l 1
 510 1833 l 1
 984 2270 l 1
 1168 2005 l 1
EndSplineSet
EndChar

StartChar: Acircumflex
Encoding: 194 194 132
Width: 1724
GlyphClass: 2
Flags: HMW
LayerCount: 2
Fore
SplineSet
1538 447 m 2
 1543.33300781 426.333007812 1547.83300781 410.666992188 1551.5 400 c 128
 1555.16699219 389.333007812 1560.66699219 379.833007812 1568 371.5 c 128
 1575.33300781 363.166992188 1584 359 1594 359 c 2
 1680 359 l 1
 1680 0 l 1
 854 0 l 1
 853 359 l 1
 973 359 l 1
 973 468.333007812 950.666992188 523 906 523 c 2
 631 523 l 2
 622.333007812 523 615.666992188 519.5 611 512.5 c 128
 606.333007812 505.5 603.666992188 498.333007812 603 491 c 128
 602.333007812 483.666992188 601.666992188 473 601 459 c 1
 601 440.333007812 604.666992188 419 612 395 c 128
 619.333007812 371 630 359 644 359 c 2
 728 359 l 1
 728 0 l 1
 50 0 l 1
 50 359 l 1
 79.3330078125 359 105.333007812 361.666992188 128 367 c 0
 180 379.666992188 217 411.333007812 239 462 c 0
 246.333007812 478 259 521 277 591 c 2
 449 1270 l 1
 237 1270 l 1
 237 1623 l 1
 1231 1623 l 1
 1538 447 l 2
887 773 m 1
 770 1281 l 1
 658 773 l 1
 887 773 l 1
874 2162 m 1
 1148 1786 l 1
 994 1685 l 1
 739 1930 l 1
 484 1685 l 1
 330 1786 l 1
 603 2163 l 1
 874 2162 l 1
EndSplineSet
EndChar

StartChar: Atilde
Encoding: 195 195 133
Width: 1724
GlyphClass: 2
Flags: HMW
LayerCount: 2
Fore
SplineSet
1231 1623 m 1
 237 1623 l 1
 237 1270 l 1
 449 1270 l 1
 277 591 l 2
 259 521 246.333007812 478 239 462 c 0
 217 411.333007812 180 379.666992188 128 367 c 0
 105.333007812 361.666992188 79.3330078125 359 50 359 c 1
 50 0 l 1
 728 0 l 1
 728 359 l 1
 644 359 l 2
 630 359 619.333007812 371 612 395 c 128
 604.666992188 419 601 440.333007812 601 459 c 1
 601.666992188 473 602.333007812 483.666992188 603 491 c 128
 603.666992188 498.333007812 606.333007812 505.5 611 512.5 c 128
 615.666992188 519.5 622.333007812 523 631 523 c 2
 906 523 l 2
 950.666992188 523 973 468.333007812 973 359 c 1
 853 359 l 1
 854 0 l 1
 1680 0 l 1
 1680 359 l 1
 1594 359 l 2
 1584 359 1575.33300781 363.166992188 1568 371.5 c 128
 1560.66699219 379.833007812 1555.16699219 389.333007812 1551.5 400 c 128
 1547.83300781 410.666992188 1543.33300781 426.333007812 1538 447 c 2
 1231 1623 l 1
658 773 m 1
 770 1281 l 1
 887 773 l 1
 658 773 l 1
1013 2085 m 0
 1042.33300781 2085 1069 2078.66699219 1093 2066 c 128
 1117 2053.33300781 1137.66699219 2035.5 1155 2012.5 c 128
 1172.33300781 1989.5 1187.5 1966.66699219 1200.5 1944 c 128
 1213.5 1921.33300781 1227.83300781 1895 1243.5 1865 c 128
 1259.16699219 1835 1273 1811.33300781 1285 1794 c 1
 1172 1720 l 1
 1123.33300781 1766.66699219 1089.83300781 1796.33300781 1071.5 1809 c 128
 1053.16699219 1821.66699219 1037.66699219 1828 1025 1828 c 0
 995 1828 959.333007812 1818 918 1798 c 128
 876.666992188 1778 833.833007812 1757.83300781 789.5 1737.5 c 128
 745.166992188 1717.16699219 704.666992188 1707 668 1707 c 0
 638 1707 611 1713.16699219 587 1725.5 c 128
 563 1737.83300781 542.166992188 1755.5 524.5 1778.5 c 128
 506.833007812 1801.5 491.666992188 1824.16699219 479 1846.5 c 128
 466.333007812 1868.83300781 452 1895.16699219 436 1925.5 c 128
 420 1955.83300781 406 1979.66699219 394 1997 c 1
 508 2072 l 1
 558.666992188 2023.33300781 593.333007812 1992.5 612 1979.5 c 128
 630.666992188 1966.5 646 1960 658 1960 c 0
 682 1960 709.666992188 1966.5 741 1979.5 c 128
 772.333007812 1992.5 801 2006.83300781 827 2022.5 c 128
 853 2038.16699219 883 2052.5 917 2065.5 c 128
 951 2078.5 983 2085 1013 2085 c 0
EndSplineSet
EndChar

StartChar: Adieresis
Encoding: 196 196 134
Width: 1724
GlyphClass: 2
Flags: HMW
LayerCount: 2
Fore
SplineSet
1231 1623 m 1
 237 1623 l 1
 237 1270 l 1
 449 1270 l 1
 277 591 l 2
 259 521 246.333007812 478 239 462 c 0
 217 411.333007812 180 379.666992188 128 367 c 0
 105.333007812 361.666992188 79.3330078125 359 50 359 c 1
 50 0 l 1
 728 0 l 1
 728 359 l 1
 644 359 l 2
 630 359 619.333007812 371 612 395 c 128
 604.666992188 419 601 440.333007812 601 459 c 1
 601.666992188 473 602.333007812 483.666992188 603 491 c 128
 603.666992188 498.333007812 606.333007812 505.5 611 512.5 c 128
 615.666992188 519.5 622.333007812 523 631 523 c 2
 906 523 l 2
 950.666992188 523 973 468.333007812 973 359 c 1
 853 359 l 1
 854 0 l 1
 1680 0 l 1
 1680 359 l 1
 1594 359 l 2
 1584 359 1575.33300781 363.166992188 1568 371.5 c 128
 1560.66699219 379.833007812 1555.16699219 389.333007812 1551.5 400 c 128
 1547.83300781 410.666992188 1543.33300781 426.333007812 1538 447 c 2
 1231 1623 l 1
658 773 m 1
 770 1281 l 1
 887 773 l 1
 658 773 l 1
757 1904 m 0
 757 1832 734.833007812 1775.66699219 690.5 1735 c 128
 646.166992188 1694.33300781 593.666992188 1674 533 1674 c 0
 471 1674 417.5 1694.5 372.5 1735.5 c 128
 327.5 1776.5 305 1833.66699219 305 1907 c 0
 305 1978.33300781 327.333007812 2034 372 2074 c 128
 416.666992188 2114 469.666992188 2134 531 2134 c 128
 592.333007812 2134 645.333007812 2113.83300781 690 2073.5 c 128
 734.666992188 2033.16699219 757 1976.66699219 757 1904 c 0
1374 1904 m 0
 1374 1832 1351.83300781 1775.66699219 1307.5 1735 c 128
 1263.16699219 1694.33300781 1210.66699219 1674 1150 1674 c 0
 1088 1674 1034.5 1694.5 989.5 1735.5 c 128
 944.5 1776.5 922 1833.66699219 922 1907 c 0
 922 1978.33300781 944.333007812 2034 989 2074 c 128
 1033.66699219 2114 1086.66699219 2134 1148 2134 c 128
 1209.33300781 2134 1262.33300781 2113.83300781 1307 2073.5 c 128
 1351.66699219 2033.16699219 1374 1976.66699219 1374 1904 c 0
EndSplineSet
EndChar

StartChar: Aring
Encoding: 197 197 135
Width: 1724
GlyphClass: 2
Flags: HMW
LayerCount: 2
Fore
SplineSet
1538 447 m 2
 1543.33300781 426.333007812 1547.83300781 410.666992188 1551.5 400 c 128
 1555.16699219 389.333007812 1560.66699219 379.833007812 1568 371.5 c 128
 1575.33300781 363.166992188 1584 359 1594 359 c 2
 1680 359 l 1
 1680 0 l 1
 854 0 l 1
 853 359 l 1
 973 359 l 1
 973 468.333007812 950.666992188 523 906 523 c 2
 631 523 l 2
 622.333007812 523 615.666992188 519.5 611 512.5 c 128
 606.333007812 505.5 603.666992188 498.333007812 603 491 c 128
 602.333007812 483.666992188 601.666992188 473 601 459 c 1
 601 440.333007812 604.666992188 419 612 395 c 128
 619.333007812 371 630 359 644 359 c 2
 728 359 l 1
 728 0 l 1
 50 0 l 1
 50 359 l 1
 79.3330078125 359 105.333007812 361.666992188 128 367 c 0
 180 379.666992188 217 411.333007812 239 462 c 0
 246.333007812 478 259 521 277 591 c 2
 449 1270 l 1
 237 1270 l 1
 237 1623 l 1
 1231 1623 l 1
 1538 447 l 2
887 773 m 1
 770 1281 l 1
 658 773 l 1
 887 773 l 1
835 1802 m 0
 886.333007812 1802 926.666992188 1816.66699219 956 1846 c 128
 985.333007812 1875.33300781 1000 1910 1000 1950 c 0
 1000 1989.33300781 985.5 2023.33300781 956.5 2052 c 128
 927.5 2080.66699219 887 2095 835 2095 c 0
 784.333007812 2095 744.833007812 2080.66699219 716.5 2052 c 128
 688.166992188 2023.33300781 674 1989.33300781 674 1950 c 0
 674 1910 688.333007812 1875.33300781 717 1846 c 128
 745.666992188 1816.66699219 785 1802 835 1802 c 0
835 1700 m 0
 750.333007812 1700 684 1725 636 1775 c 128
 588 1825 564 1883.66699219 564 1951 c 0
 564 2017 587.666992188 2074.16699219 635 2122.5 c 128
 682.333007812 2170.83300781 749 2195 835 2195 c 0
 923.666992188 2195 992.5 2171 1041.5 2123 c 128
 1090.5 2075 1115 2017.66699219 1115 1951 c 0
 1115 1883.66699219 1090.16699219 1825 1040.5 1775 c 128
 990.833007812 1725 922.333007812 1700 835 1700 c 0
EndSplineSet
EndChar

StartChar: AE
Encoding: 198 198 136
Width: 2151
GlyphClass: 2
Flags: HMW
LayerCount: 2
Fore
SplineSet
1808 969 m 1
 1732 1271 l 1
 1519 1271 l 1
 1519 988 l 1
 1724 988 l 1
 1724 636 l 1
 1519 636 l 1
 1519 350 l 1
 1738 350 l 1
 1751 420 l 1
 1814 687 l 1
 2087 687 l 1
 2087 0 l 1
 858 0 l 1
 857 376 l 1
 977 376 l 1
 998.333007812 485.333007812 986.333007812 540 941 540 c 2
 666 540 l 2
 657.333007812 540 650 536.5 644 529.5 c 128
 638 522.5 634 515.333007812 632 508 c 128
 630 500.666992188 627.333007812 490 624 476 c 1
 620 464.666992188 619.5 445.166992188 622.5 417.5 c 128
 625.5 389.833007812 634 376 648 376 c 2
 732 376 l 1
 732 0 l 1
 51 -1 l 1
 51 354 l 1
 71 354 89.3330078125 355.333007812 106 358 c 128
 122.666992188 360.666992188 138 365.333007812 152 372 c 128
 166 378.666992188 178.333007812 384.833007812 189 390.5 c 128
 199.666992188 396.166992188 210.333007812 405.333007812 221 418 c 128
 231.666992188 430.666992188 240 440.666992188 246 448 c 128
 252 455.333007812 259.5 467.666992188 268.5 485 c 128
 277.5 502.333007812 283.833007812 514.833007812 287.5 522.5 c 128
 291.166992188 530.166992188 297.5 544.5 306.5 565.5 c 128
 315.5 586.5 321.666992188 600.666992188 325 608 c 2
 647 1274 l 1
 435 1274 l 1
 506 1623 l 1
 2076 1623 l 1
 2076 970 l 1
 1808 969 l 1
969 771 m 1
 970 1292 l 1
 730 771 l 1
 969 771 l 1
EndSplineSet
EndChar

StartChar: Ccedilla
Encoding: 199 199 137
Width: 1496
GlyphClass: 2
Flags: HMW
LayerCount: 2
Fore
SplineSet
1437 202 m 1
 1408 178 l 2
 1388.66699219 162 1359.66699219 142.666992188 1321 120 c 128
 1282.33300781 97.3330078125 1238.66699219 74.8330078125 1190 52.5 c 128
 1141.33300781 30.1669921875 1082.5 11 1013.5 -5 c 128
 944.5 -21 875.333007812 -29 806 -29 c 0
 640.666992188 -29 499.833007812 6 383.5 76 c 128
 267.166992188 146 180.5 242.833007812 123.5 366.5 c 128
 66.5 490.166992188 38 636 38 804 c 0
 38 888.666992188 46 970.666992188 62 1050 c 128
 78 1129.33300781 103.833007812 1205.83300781 139.5 1279.5 c 128
 175.166992188 1353.16699219 219 1417.33300781 271 1472 c 128
 323 1526.66699219 387.666992188 1570.33300781 465 1603 c 128
 542.333007812 1635.66699219 628 1652 722 1652 c 0
 771.333007812 1652 813.666992188 1650.33300781 849 1647 c 128
 884.333007812 1643.66699219 924.5 1634.16699219 969.5 1618.5 c 128
 1014.5 1602.83300781 1052 1580.66699219 1082 1552 c 1
 1116 1623 l 1
 1427 1623 l 1
 1428 991 l 1
 1130 991 l 1
 1130.66699219 1026.33300781 1127 1060.83300781 1119 1094.5 c 128
 1111 1128.16699219 1098.33300781 1160 1081 1190 c 128
 1063.66699219 1220 1039 1244.16699219 1007 1262.5 c 128
 975 1280.83300781 938 1290 896 1290 c 0
 864.666992188 1290 836.5 1284.83300781 811.5 1274.5 c 128
 786.5 1264.16699219 765.833007812 1251 749.5 1235 c 128
 733.166992188 1219 719 1198.33300781 707 1173 c 128
 695 1147.66699219 686 1123.5 680 1100.5 c 128
 674 1077.5 669.333007812 1049.66699219 666 1017 c 128
 662.666992188 984.333007812 660.666992188 957 660 935 c 128
 659.333007812 913 659 886.333007812 659 855 c 0
 659 841 659 841 659 811 c 1
 657 781 657 748.5 659 713.5 c 128
 661 678.5 663.333007812 643.666992188 666 609 c 128
 668.666992188 574.333007812 675.833007812 541 687.5 509 c 128
 699.166992188 477 713.5 448.666992188 730.5 424 c 128
 747.5 399.333007812 771.333007812 379.666992188 802 365 c 128
 832.666992188 350.333007812 868.333007812 343 909 343 c 0
 963 343 1010.5 358.833007812 1051.5 390.5 c 128
 1092.5 422.166992188 1118 464.666992188 1128 518 c 0
 1130.66699219 531.333007812 1133.33300781 562.666992188 1136 612 c 1
 1437 612 l 1
 1437 202 l 1
688 0 m 1
 868 0 l 1
 868 -119 l 1
 956.666992188 -170.333007812 1001 -225.666992188 1001 -285 c 0
 1001 -339.666992188 964.833007812 -386.666992188 892.5 -426 c 128
 820.166992188 -465.333007812 733.333007812 -485 632 -485 c 2
 611 -485 l 1
 611 -372 l 1
 675.666992188 -371.333007812 723 -361.666992188 753 -343 c 128
 783 -324.333007812 798 -300.333007812 798 -271 c 0
 798 -244.333007812 787.333007812 -216.666992188 766 -188 c 128
 744.666992188 -159.333007812 718.666992188 -136.333007812 688 -119 c 1
 688 0 l 1
EndSplineSet
EndChar

StartChar: Egrave
Encoding: 200 200 138
Width: 1402
GlyphClass: 2
Flags: HMW
LayerCount: 2
Fore
SplineSet
1328 969 m 1
 1328 1623 l 1
 60 1623 l 1
 60 1270 l 1
 218 1270 l 1
 218 359 l 1
 60 359 l 1
 60 0 l 1
 1339 0 l 1
 1339 687 l 1
 1066 687 l 1
 1003 420 l 1
 990 359 l 1
 771 359 l 1
 771 636 l 1
 976 636 l 1
 976 988 l 1
 771 988 l 1
 771 1270 l 1
 984 1270 l 1
 1060 968 l 1
 1328 969 l 1
552 2270 m 1
 1026 1833 l 1
 922 1692 l 1
 368 2005 l 1
 552 2270 l 1
EndSplineSet
EndChar

StartChar: Eacute
Encoding: 201 201 139
Width: 1402
GlyphClass: 2
Flags: HMW
LayerCount: 2
Fore
SplineSet
1060 968 m 1
 984 1270 l 1
 771 1270 l 1
 771 988 l 1
 976 988 l 1
 976 636 l 1
 771 636 l 1
 771 359 l 1
 990 359 l 1
 1003 420 l 1
 1066 687 l 1
 1339 687 l 1
 1339 0 l 1
 60 0 l 1
 60 359 l 1
 218 359 l 1
 218 1270 l 1
 60 1270 l 1
 60 1623 l 1
 1328 1623 l 1
 1328 969 l 1
 1060 968 l 1
1026 2005 m 1
 472 1692 l 1
 368 1833 l 1
 842 2270 l 1
 1026 2005 l 1
EndSplineSet
EndChar

StartChar: Ecircumflex
Encoding: 202 202 140
Width: 1401
GlyphClass: 2
Flags: HMW
LayerCount: 2
Fore
SplineSet
1059 968 m 1
 983 1270 l 1
 770 1270 l 1
 770 988 l 1
 975 988 l 1
 975 636 l 1
 770 636 l 1
 770 359 l 1
 989 359 l 1
 1002 420 l 1
 1065 687 l 1
 1338 687 l 1
 1338 0 l 1
 59 0 l 1
 59 359 l 1
 217 359 l 1
 217 1270 l 1
 59 1270 l 1
 59 1623 l 1
 1327 1623 l 1
 1327 969 l 1
 1059 968 l 1
831 2162 m 1
 1105 1786 l 1
 951 1685 l 1
 696 1930 l 1
 441 1685 l 1
 287 1786 l 1
 560 2163 l 1
 831 2162 l 1
EndSplineSet
EndChar

StartChar: Edieresis
Encoding: 203 203 141
Width: 1401
GlyphClass: 2
Flags: HMW
LayerCount: 2
Fore
SplineSet
1327 969 m 1
 1327 1623 l 1
 59 1623 l 1
 59 1270 l 1
 217 1270 l 1
 217 359 l 1
 59 359 l 1
 59 0 l 1
 1338 0 l 1
 1338 687 l 1
 1065 687 l 1
 1002 420 l 1
 989 359 l 1
 770 359 l 1
 770 636 l 1
 975 636 l 1
 975 988 l 1
 770 988 l 1
 770 1270 l 1
 983 1270 l 1
 1059 968 l 1
 1327 969 l 1
614 1904 m 0
 614 1832 591.833007812 1775.66699219 547.5 1735 c 128
 503.166992188 1694.33300781 450.666992188 1674 390 1674 c 0
 328 1674 274.5 1694.5 229.5 1735.5 c 128
 184.5 1776.5 162 1833.66699219 162 1907 c 0
 162 1978.33300781 184.333007812 2034 229 2074 c 128
 273.666992188 2114 326.666992188 2134 388 2134 c 128
 449.333007812 2134 502.333007812 2113.83300781 547 2073.5 c 128
 591.666992188 2033.16699219 614 1976.66699219 614 1904 c 0
1231 1904 m 0
 1231 1832 1208.83300781 1775.66699219 1164.5 1735 c 128
 1120.16699219 1694.33300781 1067.66699219 1674 1007 1674 c 0
 945 1674 891.5 1694.5 846.5 1735.5 c 128
 801.5 1776.5 779 1833.66699219 779 1907 c 0
 779 1978.33300781 801.333007812 2034 846 2074 c 128
 890.666992188 2114 943.666992188 2134 1005 2134 c 128
 1066.33300781 2134 1119.33300781 2113.83300781 1164 2073.5 c 128
 1208.66699219 2033.16699219 1231 1976.66699219 1231 1904 c 0
EndSplineSet
EndChar

StartChar: Igrave
Encoding: 204 204 142
Width: 974
GlyphClass: 2
Flags: HMW
LayerCount: 2
Fore
SplineSet
926 1623 m 1
 62 1623 l 1
 62 1270 l 1
 205 1270 l 1
 205 359 l 1
 58 359 l 1
 58 0 l 1
 920 0 l 1
 920 359 l 1
 779 359 l 1
 779 1270 l 1
 926 1270 l 1
 926 1623 l 1
349 2270 m 1
 823 1833 l 1
 719 1692 l 1
 165 2005 l 1
 349 2270 l 1
EndSplineSet
EndChar

StartChar: Iacute
Encoding: 205 205 143
Width: 974
GlyphClass: 2
Flags: HMW
LayerCount: 2
Fore
SplineSet
926 1270 m 1
 779 1270 l 1
 779 359 l 1
 920 359 l 1
 920 0 l 1
 58 0 l 1
 58 359 l 1
 205 359 l 1
 205 1270 l 1
 62 1270 l 1
 62 1623 l 1
 926 1623 l 1
 926 1270 l 1
823 2005 m 1
 269 1692 l 1
 165 1833 l 1
 639 2270 l 1
 823 2005 l 1
EndSplineSet
EndChar

StartChar: Icircumflex
Encoding: 206 206 144
Width: 974
GlyphClass: 2
Flags: HMW
LayerCount: 2
Fore
SplineSet
926 1270 m 1
 779 1270 l 1
 779 359 l 1
 920 359 l 1
 920 0 l 1
 58 0 l 1
 58 359 l 1
 205 359 l 1
 205 1270 l 1
 62 1270 l 1
 62 1623 l 1
 926 1623 l 1
 926 1270 l 1
629 2162 m 1
 903 1786 l 1
 749 1685 l 1
 494 1930 l 1
 239 1685 l 1
 85 1786 l 1
 358 2163 l 1
 629 2162 l 1
EndSplineSet
EndChar

StartChar: Idieresis
Encoding: 207 207 145
Width: 1108
GlyphClass: 2
Flags: HMW
LayerCount: 2
Fore
SplineSet
986 1623 m 1
 122 1623 l 1
 122 1270 l 1
 265 1270 l 1
 265 359 l 1
 118 359 l 1
 118 0 l 1
 980 0 l 1
 980 359 l 1
 839 359 l 1
 839 1270 l 1
 986 1270 l 1
 986 1623 l 1
472 1904 m 0
 472 1832 449.833007812 1775.66699219 405.5 1735 c 128
 361.166992188 1694.33300781 308.666992188 1674 248 1674 c 0
 186 1674 132.5 1694.5 87.5 1735.5 c 128
 42.5 1776.5 20 1833.66699219 20 1907 c 0
 20 1978.33300781 42.3330078125 2034 87 2074 c 128
 131.666992188 2114 184.666992188 2134 246 2134 c 128
 307.333007812 2134 360.333007812 2113.83300781 405 2073.5 c 128
 449.666992188 2033.16699219 472 1976.66699219 472 1904 c 0
1089 1904 m 0
 1089 1832 1066.83300781 1775.66699219 1022.5 1735 c 128
 978.166992188 1694.33300781 925.666992188 1674 865 1674 c 0
 803 1674 749.5 1694.5 704.5 1735.5 c 128
 659.5 1776.5 637 1833.66699219 637 1907 c 0
 637 1978.33300781 659.333007812 2034 704 2074 c 128
 748.666992188 2114 801.666992188 2134 863 2134 c 128
 924.333007812 2134 977.333007812 2113.83300781 1022 2073.5 c 128
 1066.66699219 2033.16699219 1089 1976.66699219 1089 1904 c 0
EndSplineSet
EndChar

StartChar: Eth
Encoding: 208 208 146
Width: 1746
GlyphClass: 2
Flags: HMW
LayerCount: 2
Fore
SplineSet
224 952 m 1
 224 1271 l 1
 55 1271 l 1
 55 1623 l 1
 885 1623 l 2
 1159.66699219 1623 1365.33300781 1554.5 1502 1417.5 c 128
 1638.66699219 1280.5 1707 1080 1707 816 c 0
 1707 707.333007812 1688.66699219 604.333007812 1652 507 c 128
 1615.33300781 409.666992188 1562.66699219 323.166992188 1494 247.5 c 128
 1425.33300781 171.833007812 1336.66699219 111.666992188 1228 67 c 128
 1119.33300781 22.3330078125 997.666992188 0 863 0 c 2
 61 0 l 1
 61 351 l 1
 224 351 l 1
 224 653 l 1
 94 653 l 1
 94 952 l 1
 224 952 l 1
806 351 m 2
 854.666992188 351 897.5 360.833007812 934.5 380.5 c 128
 971.5 400.166992188 1001 425.166992188 1023 455.5 c 128
 1045 485.833007812 1063 522.333007812 1077 565 c 128
 1091 607.666992188 1100.5 649.166992188 1105.5 689.5 c 128
 1110.5 729.833007812 1113 772.333007812 1113 817 c 0
 1113 863 1111 905.166992188 1107 943.5 c 128
 1103 981.833007812 1094.83300781 1022 1082.5 1064 c 128
 1070.16699219 1106 1053.66699219 1141.5 1033 1170.5 c 128
 1012.33300781 1199.5 983.666992188 1223.5 947 1242.5 c 128
 910.333007812 1261.5 867.333007812 1271 818 1271 c 2
 771 1271 l 1
 771 1237 771 1237 771 1172 c 128
 771 1107 771 1107 771 1053.5 c 128
 771 1000 771 1000 771 952 c 1
 857 952 l 1
 857 653 l 1
 772 653 l 1
 775 351 l 1
 806 351 l 2
EndSplineSet
EndChar

StartChar: Ntilde
Encoding: 209 209 147
Width: 1811
GlyphClass: 2
Flags: HMW
LayerCount: 2
Fore
SplineSet
1774 1622 m 1
 1137 1623 l 1
 1137 1270 l 1
 1163 1270.66699219 1185.66699219 1269.33300781 1205 1266 c 128
 1224.33300781 1262.66699219 1239.5 1256.5 1250.5 1247.5 c 128
 1261.5 1238.5 1270.33300781 1229.83300781 1277 1221.5 c 128
 1283.66699219 1213.16699219 1288.16699219 1201.5 1290.5 1186.5 c 128
 1292.83300781 1171.5 1294.16699219 1160 1294.5 1152 c 128
 1294.83300781 1144 1295 1132 1295 1116 c 2
 1295 647 l 1
 799 1623 l 1
 64 1623 l 1
 64 1272 l 1
 221 1272 l 1
 221 550 l 2
 221 524.666992188 220.333007812 504.666992188 219 490 c 128
 217.666992188 475.333007812 214.166992188 458.5 208.5 439.5 c 128
 202.833007812 420.5 194.5 406 183.5 396 c 128
 172.5 386 156.5 377.333007812 135.5 370 c 128
 114.5 362.666992188 88.6669921875 359 58 359 c 1
 58 0 l 1
 695 0 l 1
 695 359 l 1
 638.333007812 359 597.833007812 370 573.5 392 c 128
 549.166992188 414 537 452.333007812 537 507 c 2
 537 908 l 1
 1010 0 l 1
 1616 0 l 1
 1616 1118 l 2
 1616 1167.33300781 1628.16699219 1205 1652.5 1231 c 128
 1676.83300781 1257 1717.33300781 1270 1774 1270 c 1
 1774 1622 l 1
1042 2085 m 0
 1071.33300781 2085 1098 2078.66699219 1122 2066 c 128
 1146 2053.33300781 1166.66699219 2035.5 1184 2012.5 c 128
 1201.33300781 1989.5 1216.5 1966.66699219 1229.5 1944 c 128
 1242.5 1921.33300781 1256.83300781 1895 1272.5 1865 c 128
 1288.16699219 1835 1302 1811.33300781 1314 1794 c 1
 1201 1720 l 1
 1152.33300781 1766.66699219 1118.83300781 1796.33300781 1100.5 1809 c 128
 1082.16699219 1821.66699219 1066.66699219 1828 1054 1828 c 0
 1024 1828 988.333007812 1818 947 1798 c 128
 905.666992188 1778 862.833007812 1757.83300781 818.5 1737.5 c 128
 774.166992188 1717.16699219 733.666992188 1707 697 1707 c 0
 667 1707 640 1713.16699219 616 1725.5 c 128
 592 1737.83300781 571.166992188 1755.5 553.5 1778.5 c 128
 535.833007812 1801.5 520.666992188 1824.16699219 508 1846.5 c 128
 495.333007812 1868.83300781 481 1895.16699219 465 1925.5 c 128
 449 1955.83300781 435 1979.66699219 423 1997 c 1
 537 2072 l 1
 587.666992188 2023.33300781 622.333007812 1992.5 641 1979.5 c 128
 659.666992188 1966.5 675 1960 687 1960 c 0
 711 1960 738.666992188 1966.5 770 1979.5 c 128
 801.333007812 1992.5 830 2006.83300781 856 2022.5 c 128
 882 2038.16699219 912 2052.5 946 2065.5 c 128
 980 2078.5 1012 2085 1042 2085 c 0
EndSplineSet
EndChar

StartChar: Ograve
Encoding: 210 210 148
Width: 1714
GlyphClass: 2
Flags: HMW
LayerCount: 2
Fore
SplineSet
1676 808 m 0
 1676 651.333007812 1640.16699219 509 1568.5 381 c 128
 1496.83300781 253 1398.33300781 152.666992188 1273 80 c 128
 1147.66699219 7.3330078125 1008.66699219 -29 856 -29 c 128
 703.333007812 -29 564.333007812 7.3330078125 439 80 c 128
 313.666992188 152.666992188 215.166992188 253 143.5 381 c 128
 71.8330078125 509 36 651.333007812 36 808 c 0
 36 980 71.8330078125 1130.5 143.5 1259.5 c 128
 215.166992188 1388.5 312.5 1486.33300781 435.5 1553 c 128
 558.5 1619.66699219 698.666992188 1653 856 1653 c 128
 1013.33300781 1653 1153.5 1619.66699219 1276.5 1553 c 128
 1399.5 1486.33300781 1496.83300781 1388.5 1568.5 1259.5 c 128
 1640.16699219 1130.5 1676 980 1676 808 c 0
856 319 m 0
 882 319 905.333007812 323.333007812 926 332 c 128
 946.666992188 340.666992188 964.166992188 352.666992188 978.5 368 c 128
 992.833007812 383.333007812 1005.33300781 401.333007812 1016 422 c 128
 1026.66699219 442.666992188 1035 465.166992188 1041 489.5 c 128
 1047 513.833007812 1052 539 1056 565 c 128
 1060 591 1062.5 617.166992188 1063.5 643.5 c 128
 1064.5 669.833007812 1065.33300781 695.666992188 1066 721 c 128
 1066.66699219 746.333007812 1066.66699219 770.333007812 1066 793 c 0
 1066 813 1066 813 1066 823 c 0
 1066 834 1066 834 1066 858 c 0
 1065.33300781 882 1065.33300781 907.333007812 1066 934 c 128
 1066.66699219 960.666992188 1065.5 988.166992188 1062.5 1016.5 c 128
 1059.5 1044.83300781 1055.83300781 1072.33300781 1051.5 1099 c 128
 1047.16699219 1125.66699219 1039.66699219 1151 1029 1175 c 128
 1018.33300781 1199 1005.83300781 1220 991.5 1238 c 128
 977.166992188 1256 958.333007812 1270.16699219 935 1280.5 c 128
 911.666992188 1290.83300781 885.333007812 1296 856 1296 c 0
 830 1296 806.5 1292 785.5 1284 c 128
 764.5 1276 747 1264.83300781 733 1250.5 c 128
 719 1236.16699219 706.5 1219.5 695.5 1200.5 c 128
 684.5 1181.5 676.166992188 1160.83300781 670.5 1138.5 c 128
 664.833007812 1116.16699219 659.833007812 1092.83300781 655.5 1068.5 c 128
 651.166992188 1044.16699219 648.666992188 1019.83300781 648 995.5 c 128
 647.333007812 971.166992188 646.5 947.333007812 645.5 924 c 128
 644.5 900.666992188 644.666992188 878.666992188 646 858 c 1
 646 834 646 834 646 823 c 0
 646 813 646 813 646 793 c 0
 646.666992188 773 646.666992188 752 646 730 c 128
 645.333007812 708 645.833007812 685.166992188 647.5 661.5 c 128
 649.166992188 637.833007812 651 614.333007812 653 591 c 128
 655 567.666992188 658.5 544.666992188 663.5 522 c 128
 668.5 499.333007812 674.333007812 478 681 458 c 128
 687.666992188 438 696.333007812 419.5 707 402.5 c 128
 717.666992188 385.5 729.833007812 370.833007812 743.5 358.5 c 128
 757.166992188 346.166992188 773.666992188 336.5 793 329.5 c 128
 812.333007812 322.5 833.333007812 319 856 319 c 0
709 2270 m 1
 1183 1833 l 1
 1079 1692 l 1
 525 2005 l 1
 709 2270 l 1
EndSplineSet
EndChar

StartChar: Oacute
Encoding: 211 211 149
Width: 1714
GlyphClass: 2
Flags: HMW
LayerCount: 2
Fore
SplineSet
1676 808 m 0
 1676 651.333007812 1640.16699219 509 1568.5 381 c 128
 1496.83300781 253 1398.33300781 152.666992188 1273 80 c 128
 1147.66699219 7.3330078125 1008.66699219 -29 856 -29 c 128
 703.333007812 -29 564.333007812 7.3330078125 439 80 c 128
 313.666992188 152.666992188 215.166992188 253 143.5 381 c 128
 71.8330078125 509 36 651.333007812 36 808 c 0
 36 980 71.8330078125 1130.5 143.5 1259.5 c 128
 215.166992188 1388.5 312.5 1486.33300781 435.5 1553 c 128
 558.5 1619.66699219 698.666992188 1653 856 1653 c 128
 1013.33300781 1653 1153.5 1619.66699219 1276.5 1553 c 128
 1399.5 1486.33300781 1496.83300781 1388.5 1568.5 1259.5 c 128
 1640.16699219 1130.5 1676 980 1676 808 c 0
856 319 m 0
 882 319 905.333007812 323.333007812 926 332 c 128
 946.666992188 340.666992188 964.166992188 352.666992188 978.5 368 c 128
 992.833007812 383.333007812 1005.33300781 401.333007812 1016 422 c 128
 1026.66699219 442.666992188 1035 465.166992188 1041 489.5 c 128
 1047 513.833007812 1052 539 1056 565 c 128
 1060 591 1062.5 617.166992188 1063.5 643.5 c 128
 1064.5 669.833007812 1065.33300781 695.666992188 1066 721 c 128
 1066.66699219 746.333007812 1066.66699219 770.333007812 1066 793 c 0
 1066 813 1066 813 1066 823 c 0
 1066 834 1066 834 1066 858 c 0
 1065.33300781 882 1065.33300781 907.333007812 1066 934 c 128
 1066.66699219 960.666992188 1065.5 988.166992188 1062.5 1016.5 c 128
 1059.5 1044.83300781 1055.83300781 1072.33300781 1051.5 1099 c 128
 1047.16699219 1125.66699219 1039.66699219 1151 1029 1175 c 128
 1018.33300781 1199 1005.83300781 1220 991.5 1238 c 128
 977.166992188 1256 958.333007812 1270.16699219 935 1280.5 c 128
 911.666992188 1290.83300781 885.333007812 1296 856 1296 c 0
 830 1296 806.5 1292 785.5 1284 c 128
 764.5 1276 747 1264.83300781 733 1250.5 c 128
 719 1236.16699219 706.5 1219.5 695.5 1200.5 c 128
 684.5 1181.5 676.166992188 1160.83300781 670.5 1138.5 c 128
 664.833007812 1116.16699219 659.833007812 1092.83300781 655.5 1068.5 c 128
 651.166992188 1044.16699219 648.666992188 1019.83300781 648 995.5 c 128
 647.333007812 971.166992188 646.5 947.333007812 645.5 924 c 128
 644.5 900.666992188 644.666992188 878.666992188 646 858 c 1
 646 834 646 834 646 823 c 0
 646 813 646 813 646 793 c 0
 646.666992188 773 646.666992188 752 646 730 c 128
 645.333007812 708 645.833007812 685.166992188 647.5 661.5 c 128
 649.166992188 637.833007812 651 614.333007812 653 591 c 128
 655 567.666992188 658.5 544.666992188 663.5 522 c 128
 668.5 499.333007812 674.333007812 478 681 458 c 128
 687.666992188 438 696.333007812 419.5 707 402.5 c 128
 717.666992188 385.5 729.833007812 370.833007812 743.5 358.5 c 128
 757.166992188 346.166992188 773.666992188 336.5 793 329.5 c 128
 812.333007812 322.5 833.333007812 319 856 319 c 0
1183 2005 m 1
 629 1692 l 1
 525 1833 l 1
 999 2270 l 1
 1183 2005 l 1
EndSplineSet
EndChar

StartChar: Ocircumflex
Encoding: 212 212 150
Width: 1714
GlyphClass: 2
Flags: HMW
LayerCount: 2
Fore
SplineSet
1676 808 m 0
 1676 651.333007812 1640.16699219 509 1568.5 381 c 128
 1496.83300781 253 1398.33300781 152.666992188 1273 80 c 128
 1147.66699219 7.3330078125 1008.66699219 -29 856 -29 c 128
 703.333007812 -29 564.333007812 7.3330078125 439 80 c 128
 313.666992188 152.666992188 215.166992188 253 143.5 381 c 128
 71.8330078125 509 36 651.333007812 36 808 c 0
 36 980 71.8330078125 1130.5 143.5 1259.5 c 128
 215.166992188 1388.5 312.5 1486.33300781 435.5 1553 c 128
 558.5 1619.66699219 698.666992188 1653 856 1653 c 128
 1013.33300781 1653 1153.5 1619.66699219 1276.5 1553 c 128
 1399.5 1486.33300781 1496.83300781 1388.5 1568.5 1259.5 c 128
 1640.16699219 1130.5 1676 980 1676 808 c 0
856 319 m 0
 882 319 905.333007812 323.333007812 926 332 c 128
 946.666992188 340.666992188 964.166992188 352.666992188 978.5 368 c 128
 992.833007812 383.333007812 1005.33300781 401.333007812 1016 422 c 128
 1026.66699219 442.666992188 1035 465.166992188 1041 489.5 c 128
 1047 513.833007812 1052 539 1056 565 c 128
 1060 591 1062.5 617.166992188 1063.5 643.5 c 128
 1064.5 669.833007812 1065.33300781 695.666992188 1066 721 c 128
 1066.66699219 746.333007812 1066.66699219 770.333007812 1066 793 c 0
 1066 813 1066 813 1066 823 c 0
 1066 834 1066 834 1066 858 c 0
 1065.33300781 882 1065.33300781 907.333007812 1066 934 c 128
 1066.66699219 960.666992188 1065.5 988.166992188 1062.5 1016.5 c 128
 1059.5 1044.83300781 1055.83300781 1072.33300781 1051.5 1099 c 128
 1047.16699219 1125.66699219 1039.66699219 1151 1029 1175 c 128
 1018.33300781 1199 1005.83300781 1220 991.5 1238 c 128
 977.166992188 1256 958.333007812 1270.16699219 935 1280.5 c 128
 911.666992188 1290.83300781 885.333007812 1296 856 1296 c 0
 830 1296 806.5 1292 785.5 1284 c 128
 764.5 1276 747 1264.83300781 733 1250.5 c 128
 719 1236.16699219 706.5 1219.5 695.5 1200.5 c 128
 684.5 1181.5 676.166992188 1160.83300781 670.5 1138.5 c 128
 664.833007812 1116.16699219 659.833007812 1092.83300781 655.5 1068.5 c 128
 651.166992188 1044.16699219 648.666992188 1019.83300781 648 995.5 c 128
 647.333007812 971.166992188 646.5 947.333007812 645.5 924 c 128
 644.5 900.666992188 644.666992188 878.666992188 646 858 c 1
 646 834 646 834 646 823 c 0
 646 813 646 813 646 793 c 0
 646.666992188 773 646.666992188 752 646 730 c 128
 645.333007812 708 645.833007812 685.166992188 647.5 661.5 c 128
 649.166992188 637.833007812 651 614.333007812 653 591 c 128
 655 567.666992188 658.5 544.666992188 663.5 522 c 128
 668.5 499.333007812 674.333007812 478 681 458 c 128
 687.666992188 438 696.333007812 419.5 707 402.5 c 128
 717.666992188 385.5 729.833007812 370.833007812 743.5 358.5 c 128
 757.166992188 346.166992188 773.666992188 336.5 793 329.5 c 128
 812.333007812 322.5 833.333007812 319 856 319 c 0
989 2162 m 1
 1263 1786 l 1
 1109 1685 l 1
 854 1930 l 1
 599 1685 l 1
 445 1786 l 1
 718 2163 l 1
 989 2162 l 1
EndSplineSet
EndChar

StartChar: Otilde
Encoding: 213 213 151
Width: 1714
GlyphClass: 2
Flags: HMW
LayerCount: 2
Fore
SplineSet
1676 808 m 0
 1676 651.333007812 1640.16699219 509 1568.5 381 c 128
 1496.83300781 253 1398.33300781 152.666992188 1273 80 c 128
 1147.66699219 7.3330078125 1008.66699219 -29 856 -29 c 128
 703.333007812 -29 564.333007812 7.3330078125 439 80 c 128
 313.666992188 152.666992188 215.166992188 253 143.5 381 c 128
 71.8330078125 509 36 651.333007812 36 808 c 0
 36 980 71.8330078125 1130.5 143.5 1259.5 c 128
 215.166992188 1388.5 312.5 1486.33300781 435.5 1553 c 128
 558.5 1619.66699219 698.666992188 1653 856 1653 c 128
 1013.33300781 1653 1153.5 1619.66699219 1276.5 1553 c 128
 1399.5 1486.33300781 1496.83300781 1388.5 1568.5 1259.5 c 128
 1640.16699219 1130.5 1676 980 1676 808 c 0
856 319 m 0
 882 319 905.333007812 323.333007812 926 332 c 128
 946.666992188 340.666992188 964.166992188 352.666992188 978.5 368 c 128
 992.833007812 383.333007812 1005.33300781 401.333007812 1016 422 c 128
 1026.66699219 442.666992188 1035 465.166992188 1041 489.5 c 128
 1047 513.833007812 1052 539 1056 565 c 128
 1060 591 1062.5 617.166992188 1063.5 643.5 c 128
 1064.5 669.833007812 1065.33300781 695.666992188 1066 721 c 128
 1066.66699219 746.333007812 1066.66699219 770.333007812 1066 793 c 0
 1066 813 1066 813 1066 823 c 0
 1066 834 1066 834 1066 858 c 0
 1065.33300781 882 1065.33300781 907.333007812 1066 934 c 128
 1066.66699219 960.666992188 1065.5 988.166992188 1062.5 1016.5 c 128
 1059.5 1044.83300781 1055.83300781 1072.33300781 1051.5 1099 c 128
 1047.16699219 1125.66699219 1039.66699219 1151 1029 1175 c 128
 1018.33300781 1199 1005.83300781 1220 991.5 1238 c 128
 977.166992188 1256 958.333007812 1270.16699219 935 1280.5 c 128
 911.666992188 1290.83300781 885.333007812 1296 856 1296 c 0
 830 1296 806.5 1292 785.5 1284 c 128
 764.5 1276 747 1264.83300781 733 1250.5 c 128
 719 1236.16699219 706.5 1219.5 695.5 1200.5 c 128
 684.5 1181.5 676.166992188 1160.83300781 670.5 1138.5 c 128
 664.833007812 1116.16699219 659.833007812 1092.83300781 655.5 1068.5 c 128
 651.166992188 1044.16699219 648.666992188 1019.83300781 648 995.5 c 128
 647.333007812 971.166992188 646.5 947.333007812 645.5 924 c 128
 644.5 900.666992188 644.666992188 878.666992188 646 858 c 1
 646 834 646 834 646 823 c 0
 646 813 646 813 646 793 c 0
 646.666992188 773 646.666992188 752 646 730 c 128
 645.333007812 708 645.833007812 685.166992188 647.5 661.5 c 128
 649.166992188 637.833007812 651 614.333007812 653 591 c 128
 655 567.666992188 658.5 544.666992188 663.5 522 c 128
 668.5 499.333007812 674.333007812 478 681 458 c 128
 687.666992188 438 696.333007812 419.5 707 402.5 c 128
 717.666992188 385.5 729.833007812 370.833007812 743.5 358.5 c 128
 757.166992188 346.166992188 773.666992188 336.5 793 329.5 c 128
 812.333007812 322.5 833.333007812 319 856 319 c 0
1028 2085 m 0
 1057.33300781 2085 1084 2078.66699219 1108 2066 c 128
 1132 2053.33300781 1152.66699219 2035.5 1170 2012.5 c 128
 1187.33300781 1989.5 1202.5 1966.66699219 1215.5 1944 c 128
 1228.5 1921.33300781 1242.83300781 1895 1258.5 1865 c 128
 1274.16699219 1835 1288 1811.33300781 1300 1794 c 1
 1187 1720 l 1
 1138.33300781 1766.66699219 1104.83300781 1796.33300781 1086.5 1809 c 128
 1068.16699219 1821.66699219 1052.66699219 1828 1040 1828 c 0
 1010 1828 974.333007812 1818 933 1798 c 128
 891.666992188 1778 848.833007812 1757.83300781 804.5 1737.5 c 128
 760.166992188 1717.16699219 719.666992188 1707 683 1707 c 0
 653 1707 626 1713.16699219 602 1725.5 c 128
 578 1737.83300781 557.166992188 1755.5 539.5 1778.5 c 128
 521.833007812 1801.5 506.666992188 1824.16699219 494 1846.5 c 128
 481.333007812 1868.83300781 467 1895.16699219 451 1925.5 c 128
 435 1955.83300781 421 1979.66699219 409 1997 c 1
 523 2072 l 1
 573.666992188 2023.33300781 608.333007812 1992.5 627 1979.5 c 128
 645.666992188 1966.5 661 1960 673 1960 c 0
 697 1960 724.666992188 1966.5 756 1979.5 c 128
 787.333007812 1992.5 816 2006.83300781 842 2022.5 c 128
 868 2038.16699219 898 2052.5 932 2065.5 c 128
 966 2078.5 998 2085 1028 2085 c 0
EndSplineSet
EndChar

StartChar: Odieresis
Encoding: 214 214 152
Width: 1714
GlyphClass: 2
Flags: HMW
LayerCount: 2
Fore
SplineSet
1676 808 m 0
 1676 651.333007812 1640.16699219 509 1568.5 381 c 128
 1496.83300781 253 1398.33300781 152.666992188 1273 80 c 128
 1147.66699219 7.3330078125 1008.66699219 -29 856 -29 c 128
 703.333007812 -29 564.333007812 7.3330078125 439 80 c 128
 313.666992188 152.666992188 215.166992188 253 143.5 381 c 128
 71.8330078125 509 36 651.333007812 36 808 c 0
 36 980 71.8330078125 1130.5 143.5 1259.5 c 128
 215.166992188 1388.5 312.5 1486.33300781 435.5 1553 c 128
 558.5 1619.66699219 698.666992188 1653 856 1653 c 128
 1013.33300781 1653 1153.5 1619.66699219 1276.5 1553 c 128
 1399.5 1486.33300781 1496.83300781 1388.5 1568.5 1259.5 c 128
 1640.16699219 1130.5 1676 980 1676 808 c 0
856 319 m 0
 882 319 905.333007812 323.333007812 926 332 c 128
 946.666992188 340.666992188 964.166992188 352.666992188 978.5 368 c 128
 992.833007812 383.333007812 1005.33300781 401.333007812 1016 422 c 128
 1026.66699219 442.666992188 1035 465.166992188 1041 489.5 c 128
 1047 513.833007812 1052 539 1056 565 c 128
 1060 591 1062.5 617.166992188 1063.5 643.5 c 128
 1064.5 669.833007812 1065.33300781 695.666992188 1066 721 c 128
 1066.66699219 746.333007812 1066.66699219 770.333007812 1066 793 c 0
 1066 813 1066 813 1066 823 c 0
 1066 834 1066 834 1066 858 c 0
 1065.33300781 882 1065.33300781 907.333007812 1066 934 c 128
 1066.66699219 960.666992188 1065.5 988.166992188 1062.5 1016.5 c 128
 1059.5 1044.83300781 1055.83300781 1072.33300781 1051.5 1099 c 128
 1047.16699219 1125.66699219 1039.66699219 1151 1029 1175 c 128
 1018.33300781 1199 1005.83300781 1220 991.5 1238 c 128
 977.166992188 1256 958.333007812 1270.16699219 935 1280.5 c 128
 911.666992188 1290.83300781 885.333007812 1296 856 1296 c 0
 830 1296 806.5 1292 785.5 1284 c 128
 764.5 1276 747 1264.83300781 733 1250.5 c 128
 719 1236.16699219 706.5 1219.5 695.5 1200.5 c 128
 684.5 1181.5 676.166992188 1160.83300781 670.5 1138.5 c 128
 664.833007812 1116.16699219 659.833007812 1092.83300781 655.5 1068.5 c 128
 651.166992188 1044.16699219 648.666992188 1019.83300781 648 995.5 c 128
 647.333007812 971.166992188 646.5 947.333007812 645.5 924 c 128
 644.5 900.666992188 644.666992188 878.666992188 646 858 c 1
 646 834 646 834 646 823 c 0
 646 813 646 813 646 793 c 0
 646.666992188 773 646.666992188 752 646 730 c 128
 645.333007812 708 645.833007812 685.166992188 647.5 661.5 c 128
 649.166992188 637.833007812 651 614.333007812 653 591 c 128
 655 567.666992188 658.5 544.666992188 663.5 522 c 128
 668.5 499.333007812 674.333007812 478 681 458 c 128
 687.666992188 438 696.333007812 419.5 707 402.5 c 128
 717.666992188 385.5 729.833007812 370.833007812 743.5 358.5 c 128
 757.166992188 346.166992188 773.666992188 336.5 793 329.5 c 128
 812.333007812 322.5 833.333007812 319 856 319 c 0
772 1904 m 0
 772 1832 749.833007812 1775.66699219 705.5 1735 c 128
 661.166992188 1694.33300781 608.666992188 1674 548 1674 c 0
 486 1674 432.5 1694.5 387.5 1735.5 c 128
 342.5 1776.5 320 1833.66699219 320 1907 c 0
 320 1978.33300781 342.333007812 2034 387 2074 c 128
 431.666992188 2114 484.666992188 2134 546 2134 c 128
 607.333007812 2134 660.333007812 2113.83300781 705 2073.5 c 128
 749.666992188 2033.16699219 772 1976.66699219 772 1904 c 0
1389 1904 m 0
 1389 1832 1366.83300781 1775.66699219 1322.5 1735 c 128
 1278.16699219 1694.33300781 1225.66699219 1674 1165 1674 c 0
 1103 1674 1049.5 1694.5 1004.5 1735.5 c 128
 959.5 1776.5 937 1833.66699219 937 1907 c 0
 937 1978.33300781 959.333007812 2034 1004 2074 c 128
 1048.66699219 2114 1101.66699219 2134 1163 2134 c 128
 1224.33300781 2134 1277.33300781 2113.83300781 1322 2073.5 c 128
 1366.66699219 2033.16699219 1389 1976.66699219 1389 1904 c 0
EndSplineSet
EndChar

StartChar: multiply
Encoding: 215 215 153
Width: 810
GlyphClass: 2
Flags: HMW
LayerCount: 2
Fore
SplineSet
405 467 m 1
 213 274 l 1
 40 447 l 1
 232 640 l 1
 28 844 l 1
 208 1024 l 1
 405 820 l 1
 602 1024 l 1
 782 844 l 1
 578 640 l 1
 770 447 l 1
 597 274 l 1
 405 467 l 1
EndSplineSet
EndChar

StartChar: Oslash
Encoding: 216 216 154
Width: 1715
GlyphClass: 2
Flags: HMW
LayerCount: 2
Fore
SplineSet
552 -155 m 1
 590 12 l 1
 424 66.6669921875 290.166992188 165.833007812 188.5 309.5 c 128
 86.8330078125 453.166992188 36 619.333007812 36 808 c 0
 36 980 71.8330078125 1130.5 143.5 1259.5 c 128
 215.166992188 1388.5 312.5 1486.33300781 435.5 1553 c 128
 558.5 1619.66699219 698.666992188 1653 856 1653 c 0
 888 1653 925 1650.66699219 967 1646 c 1
 1004 1804 l 1
 1157 1774 l 1
 1121 1616 l 1
 1290.33300781 1566 1425.16699219 1470.5 1525.5 1329.5 c 128
 1625.83300781 1188.5 1676 1014.66699219 1676 808 c 0
 1676 651.333007812 1640.16699219 509 1568.5 381 c 128
 1496.83300781 253 1398.33300781 152.666992188 1273 80 c 128
 1147.66699219 7.3330078125 1008.66699219 -29 856 -29 c 0
 820.666992188 -29 786 -27 752 -23 c 1
 714 -194 l 1
 552 -155 l 1
856 1296 m 0
 830 1296 806.5 1292 785.5 1284 c 128
 764.5 1276 747 1264.83300781 733 1250.5 c 128
 719 1236.16699219 706.5 1219.5 695.5 1200.5 c 128
 684.5 1181.5 676.166992188 1160.83300781 670.5 1138.5 c 128
 664.833007812 1116.16699219 659.833007812 1092.83300781 655.5 1068.5 c 128
 651.166992188 1044.16699219 648.666992188 1019.83300781 648 995.5 c 128
 647.333007812 971.166992188 646.5 947.333007812 645.5 924 c 128
 644.5 900.666992188 644.666992188 878.666992188 646 858 c 1
 646 834 646 834 646 823 c 0
 646 822 646 822 646 776 c 128
 646 730 646 730 646 718 c 128
 646 710 646.333007812 692 647 664 c 128
 647.666992188 636 649 615 651 601 c 128
 653 587 655.5 568.833007812 658.5 546.5 c 128
 661.5 524.166992188 665.5 504.333007812 670.5 487 c 128
 675.5 469.666992188 681.333007812 453.333007812 688 438 c 1
 886 1294 l 1
 872.666992188 1295.33300781 862.666992188 1296 856 1296 c 0
856 319 m 0
 882 319 905.333007812 323.333007812 926 332 c 128
 946.666992188 340.666992188 964.166992188 352.666992188 978.5 368 c 128
 992.833007812 383.333007812 1005.33300781 401.333007812 1016 422 c 128
 1026.66699219 442.666992188 1035 465.166992188 1041 489.5 c 128
 1047 513.833007812 1052 539 1056 565 c 128
 1060 591 1062.5 617.166992188 1063.5 643.5 c 128
 1064.5 669.833007812 1065.33300781 695.666992188 1066 721 c 128
 1066.66699219 746.333007812 1066.66699219 770.333007812 1066 793 c 0
 1066 813 1066 813 1066 823 c 0
 1066 827.666992188 1066.16699219 842.333007812 1066.5 867 c 128
 1066.83300781 891.666992188 1066.83300781 909.333007812 1066.5 920 c 128
 1066.16699219 930.666992188 1065.66699219 947.833007812 1065 971.5 c 128
 1064.33300781 995.166992188 1063 1014.5 1061 1029.5 c 128
 1059 1044.5 1056.5 1062 1053.5 1082 c 128
 1050.5 1102 1046.5 1120.5 1041.5 1137.5 c 128
 1036.5 1154.5 1030.66699219 1170.33300781 1024 1185 c 1
 830 320 l 1
 835.333007812 319.333007812 844 319 856 319 c 0
EndSplineSet
EndChar

StartChar: Ugrave
Encoding: 217 217 155
Width: 1668
GlyphClass: 2
Flags: HMW
LayerCount: 2
Fore
SplineSet
1477 1270 m 1
 1631 1270 l 1
 1631 1622 l 1
 977 1622 l 1
 977 1270 l 1
 1141 1270 l 1
 1141 536 l 2
 1141 477.333007812 1123.66699219 431 1089 397 c 128
 1054.33300781 363 1006.33300781 346 945 346 c 0
 910.333007812 346 880.166992188 353.333007812 854.5 368 c 128
 828.833007812 382.666992188 809.166992188 402.5 795.5 427.5 c 128
 781.833007812 452.5 771.833007812 479.333007812 765.5 508 c 128
 759.166992188 536.666992188 756 567.333007812 756 600 c 2
 756 1270 l 1
 904 1270 l 1
 904 1622 l 1
 35 1622 l 1
 35 1270 l 1
 196 1270 l 1
 196 704 l 2
 196 645.333007812 198.5 591 203.5 541 c 128
 208.5 491 217.5 440.666992188 230.5 390 c 128
 243.5 339.333007812 260.333007812 293.666992188 281 253 c 128
 301.666992188 212.333007812 328.333007812 174 361 138 c 128
 393.666992188 102 431.5 72 474.5 48 c 128
 517.5 24 568.666992188 5.1669921875 628 -8.5 c 128
 687.333007812 -22.1669921875 753.333007812 -29 826 -29 c 0
 940 -29 1046.33300781 -6.3330078125 1145 39 c 128
 1243.66699219 84.3330078125 1323.66699219 149.5 1385 234.5 c 128
 1446.33300781 319.5 1477 414.666992188 1477 520 c 2
 1477 1270 l 1
688 2270 m 1
 1162 1833 l 1
 1058 1692 l 1
 504 2005 l 1
 688 2270 l 1
EndSplineSet
EndChar

StartChar: Uacute
Encoding: 218 218 156
Width: 1668
GlyphClass: 2
Flags: HMW
LayerCount: 2
Fore
SplineSet
1477 520 m 2
 1477 414.666992188 1446.33300781 319.5 1385 234.5 c 128
 1323.66699219 149.5 1243.66699219 84.3330078125 1145 39 c 128
 1046.33300781 -6.3330078125 940 -29 826 -29 c 0
 753.333007812 -29 687.333007812 -22.1669921875 628 -8.5 c 128
 568.666992188 5.1669921875 517.5 24 474.5 48 c 128
 431.5 72 393.666992188 102 361 138 c 128
 328.333007812 174 301.666992188 212.333007812 281 253 c 128
 260.333007812 293.666992188 243.5 339.333007812 230.5 390 c 128
 217.5 440.666992188 208.5 491 203.5 541 c 128
 198.5 591 196 645.333007812 196 704 c 2
 196 1270 l 1
 35 1270 l 1
 35 1622 l 1
 904 1622 l 1
 904 1270 l 1
 756 1270 l 1
 756 600 l 2
 756 567.333007812 759.166992188 536.666992188 765.5 508 c 128
 771.833007812 479.333007812 781.833007812 452.5 795.5 427.5 c 128
 809.166992188 402.5 828.833007812 382.666992188 854.5 368 c 128
 880.166992188 353.333007812 910.333007812 346 945 346 c 0
 1006.33300781 346 1054.33300781 363 1089 397 c 128
 1123.66699219 431 1141 477.333007812 1141 536 c 2
 1141 1270 l 1
 977 1270 l 1
 977 1622 l 1
 1631 1622 l 1
 1631 1270 l 1
 1477 1270 l 1
 1477 520 l 2
1162 2005 m 1
 608 1692 l 1
 504 1833 l 1
 978 2270 l 1
 1162 2005 l 1
EndSplineSet
EndChar

StartChar: Ucircumflex
Encoding: 219 219 157
Width: 1668
GlyphClass: 2
Flags: HMW
LayerCount: 2
Fore
SplineSet
1477 520 m 2
 1477 414.666992188 1446.33300781 319.5 1385 234.5 c 128
 1323.66699219 149.5 1243.66699219 84.3330078125 1145 39 c 128
 1046.33300781 -6.3330078125 940 -29 826 -29 c 0
 753.333007812 -29 687.333007812 -22.1669921875 628 -8.5 c 128
 568.666992188 5.1669921875 517.5 24 474.5 48 c 128
 431.5 72 393.666992188 102 361 138 c 128
 328.333007812 174 301.666992188 212.333007812 281 253 c 128
 260.333007812 293.666992188 243.5 339.333007812 230.5 390 c 128
 217.5 440.666992188 208.5 491 203.5 541 c 128
 198.5 591 196 645.333007812 196 704 c 2
 196 1270 l 1
 35 1270 l 1
 35 1622 l 1
 904 1622 l 1
 904 1270 l 1
 756 1270 l 1
 756 600 l 2
 756 567.333007812 759.166992188 536.666992188 765.5 508 c 128
 771.833007812 479.333007812 781.833007812 452.5 795.5 427.5 c 128
 809.166992188 402.5 828.833007812 382.666992188 854.5 368 c 128
 880.166992188 353.333007812 910.333007812 346 945 346 c 0
 1006.33300781 346 1054.33300781 363 1089 397 c 128
 1123.66699219 431 1141 477.333007812 1141 536 c 2
 1141 1270 l 1
 977 1270 l 1
 977 1622 l 1
 1631 1622 l 1
 1631 1270 l 1
 1477 1270 l 1
 1477 520 l 2
968 2162 m 1
 1242 1786 l 1
 1088 1685 l 1
 833 1930 l 1
 578 1685 l 1
 424 1786 l 1
 697 2163 l 1
 968 2162 l 1
EndSplineSet
EndChar

StartChar: Udieresis
Encoding: 220 220 158
Width: 1668
GlyphClass: 2
Flags: HMW
LayerCount: 2
Fore
SplineSet
1477 1270 m 1
 1631 1270 l 1
 1631 1622 l 1
 977 1622 l 1
 977 1270 l 1
 1141 1270 l 1
 1141 536 l 2
 1141 477.333007812 1123.66699219 431 1089 397 c 128
 1054.33300781 363 1006.33300781 346 945 346 c 0
 910.333007812 346 880.166992188 353.333007812 854.5 368 c 128
 828.833007812 382.666992188 809.166992188 402.5 795.5 427.5 c 128
 781.833007812 452.5 771.833007812 479.333007812 765.5 508 c 128
 759.166992188 536.666992188 756 567.333007812 756 600 c 2
 756 1270 l 1
 904 1270 l 1
 904 1622 l 1
 35 1622 l 1
 35 1270 l 1
 196 1270 l 1
 196 704 l 2
 196 645.333007812 198.5 591 203.5 541 c 128
 208.5 491 217.5 440.666992188 230.5 390 c 128
 243.5 339.333007812 260.333007812 293.666992188 281 253 c 128
 301.666992188 212.333007812 328.333007812 174 361 138 c 128
 393.666992188 102 431.5 72 474.5 48 c 128
 517.5 24 568.666992188 5.1669921875 628 -8.5 c 128
 687.333007812 -22.1669921875 753.333007812 -29 826 -29 c 0
 940 -29 1046.33300781 -6.3330078125 1145 39 c 128
 1243.66699219 84.3330078125 1323.66699219 149.5 1385 234.5 c 128
 1446.33300781 319.5 1477 414.666992188 1477 520 c 2
 1477 1270 l 1
750 1904 m 0
 750 1832 727.833007812 1775.66699219 683.5 1735 c 128
 639.166992188 1694.33300781 586.666992188 1674 526 1674 c 0
 464 1674 410.5 1694.5 365.5 1735.5 c 128
 320.5 1776.5 298 1833.66699219 298 1907 c 0
 298 1978.33300781 320.333007812 2034 365 2074 c 128
 409.666992188 2114 462.666992188 2134 524 2134 c 128
 585.333007812 2134 638.333007812 2113.83300781 683 2073.5 c 128
 727.666992188 2033.16699219 750 1976.66699219 750 1904 c 0
1367 1904 m 0
 1367 1832 1344.83300781 1775.66699219 1300.5 1735 c 128
 1256.16699219 1694.33300781 1203.66699219 1674 1143 1674 c 0
 1081 1674 1027.5 1694.5 982.5 1735.5 c 128
 937.5 1776.5 915 1833.66699219 915 1907 c 0
 915 1978.33300781 937.333007812 2034 982 2074 c 128
 1026.66699219 2114 1079.66699219 2134 1141 2134 c 128
 1202.33300781 2134 1255.33300781 2113.83300781 1300 2073.5 c 128
 1344.66699219 2033.16699219 1367 1976.66699219 1367 1904 c 0
EndSplineSet
EndChar

StartChar: Yacute
Encoding: 221 221 159
Width: 1653
GlyphClass: 2
Flags: HMW
LayerCount: 2
Fore
SplineSet
1615 1270 m 1
 1541 1270 l 2
 1517.66699219 1270 1497.16699219 1267.33300781 1479.5 1262 c 128
 1461.83300781 1256.66699219 1447 1250.5 1435 1243.5 c 128
 1423 1236.5 1410.33300781 1224 1397 1206 c 128
 1383.66699219 1188 1373.16699219 1172.5 1365.5 1159.5 c 128
 1357.83300781 1146.5 1346 1125 1330 1095 c 2
 1126 724 l 1
 1126 359 l 1
 1283 359 l 1
 1283 0 l 1
 414 0 l 1
 414 359 l 1
 569 359 l 1
 569 672 l 1
 148 1270 l 1
 36 1270 l 1
 36 1622 l 1
 888 1622 l 1
 888 1270 l 1
 797 1270 l 1
 811.666992188 1250 842.5 1203.83300781 889.5 1131.5 c 128
 936.5 1059.16699219 967 1013 981 993 c 1
 1057 1108.33300781 1095 1184.33300781 1095 1221 c 0
 1095 1227 1094.5 1232.5 1093.5 1237.5 c 128
 1092.5 1242.5 1090.66699219 1246.66699219 1088 1250 c 128
 1085.33300781 1253.33300781 1082.83300781 1256.33300781 1080.5 1259 c 128
 1078.16699219 1261.66699219 1074.5 1263.66699219 1069.5 1265 c 128
 1064.5 1266.33300781 1060.16699219 1267.5 1056.5 1268.5 c 128
 1052.83300781 1269.5 1047.33300781 1270 1040 1270 c 128
 1029 1270 1029 1270 1022 1270 c 128
 1015 1270 1015 1270 1000.5 1270 c 128
 986 1270 986 1270 978 1270 c 1
 978 1622 l 1
 1615 1622 l 1
 1615 1270 l 1
1157 2005 m 1
 603 1692 l 1
 499 1833 l 1
 973 2270 l 1
 1157 2005 l 1
EndSplineSet
EndChar

StartChar: Thorn
Encoding: 222 222 160
Width: 1612
GlyphClass: 2
Flags: HMW
LayerCount: 2
Fore
SplineSet
53 363 m 1
 209 363 l 1
 209 1488 l 1
 58 1488 l 1
 58 1843 l 1
 768 1843 l 1
 767 1543 l 1
 816.333007812 1543 860.333007812 1542.66699219 899 1542 c 128
 937.666992188 1541.33300781 980.666992188 1539.16699219 1028 1535.5 c 128
 1075.33300781 1531.83300781 1117.16699219 1526.66699219 1153.5 1520 c 128
 1189.83300781 1513.33300781 1227.83300781 1504 1267.5 1492 c 128
 1307.16699219 1480 1341.5 1465.83300781 1370.5 1449.5 c 128
 1399.5 1433.16699219 1427.66699219 1412.83300781 1455 1388.5 c 128
 1482.33300781 1364.16699219 1504.5 1336.83300781 1521.5 1306.5 c 128
 1538.5 1276.16699219 1552.16699219 1240.66699219 1562.5 1200 c 128
 1572.83300781 1159.33300781 1578 1114.66699219 1578 1066 c 0
 1578 976.666992188 1562.33300781 899.166992188 1531 833.5 c 128
 1499.66699219 767.833007812 1454.5 715.166992188 1395.5 675.5 c 128
 1336.5 635.833007812 1267.5 606.5 1188.5 587.5 c 128
 1109.5 568.5 1019.33300781 559 918 559 c 0
 870.666992188 559 820.666992188 562.333007812 768 569 c 1
 768 363 l 1
 914 363 l 1
 914 0 l 1
 53 0 l 1
 53 363 l 1
768 895 m 1
 829 895 l 2
 902.333007812 895 958.5 907.5 997.5 932.5 c 128
 1036.5 957.5 1056 998.666992188 1056 1056 c 0
 1056 1106.66699219 1038.16699219 1144.66699219 1002.5 1170 c 128
 966.833007812 1195.33300781 923.333007812 1208 872 1208 c 2
 768 1208 l 1
 768 895 l 1
EndSplineSet
EndChar

StartChar: germandbls
Encoding: 223 223 161
Width: 1692
GlyphClass: 2
Flags: HMW
LayerCount: 2
Fore
SplineSet
859 1623 m 0
 945 1623 1023.5 1615.83300781 1094.5 1601.5 c 128
 1165.5 1587.16699219 1225.16699219 1567.83300781 1273.5 1543.5 c 128
 1321.83300781 1519.16699219 1362.33300781 1490.33300781 1395 1457 c 128
 1427.66699219 1423.66699219 1451.5 1388.5 1466.5 1351.5 c 128
 1481.5 1314.5 1489 1276 1489 1236 c 0
 1489 1172 1469 1109.66699219 1429 1049 c 128
 1389 988.333007812 1333.66699219 938 1263 898 c 1
 1390.33300781 857.333007812 1489.16699219 793.666992188 1559.5 707 c 128
 1629.83300781 620.333007812 1665 527.666992188 1665 429 c 0
 1665 369.666992188 1651.83300781 313.5 1625.5 260.5 c 128
 1599.16699219 207.5 1560.83300781 160.166992188 1510.5 118.5 c 128
 1460.16699219 76.8330078125 1394.33300781 43.6669921875 1313 19 c 128
 1231.66699219 -5.6669921875 1139.66699219 -18 1037 -18 c 1
 1036 349 l 1
 1132.66699219 403.666992188 1181 465 1181 533 c 0
 1181 594.333007812 1150.66699219 645.833007812 1090 687.5 c 128
 1029.33300781 729.166992188 940.666992188 750 824 750 c 1
 821 901 l 1
 879.666992188 901 930.166992188 925 972.5 973 c 128
 1014.83300781 1021 1036 1071.33300781 1036 1124 c 0
 1036 1169.33300781 1024 1205.83300781 1000 1233.5 c 128
 976 1261.16699219 939.333007812 1275 890 1275 c 0
 849.333007812 1275 815.666992188 1263.5 789 1240.5 c 128
 762.333007812 1217.5 749 1181 749 1131 c 2
 750 349 l 1
 834 349 884.333007812 349.333007812 901 350 c 1
 901 0 l 1
 50 0 l 1
 50 369 l 1
 222 369 l 1
 222 1092 l 2
 222 1172 231.833007812 1242.33300781 251.5 1303 c 128
 271.166992188 1363.66699219 298.833007812 1414.16699219 334.5 1454.5 c 128
 370.166992188 1494.83300781 415 1527.66699219 469 1553 c 128
 523 1578.33300781 581.5 1596.33300781 644.5 1607 c 128
 707.5 1617.66699219 779 1623 859 1623 c 0
EndSplineSet
EndChar

StartChar: agrave
Encoding: 224 224 162
Width: 1300
GlyphClass: 2
Flags: HMW
LayerCount: 2
Fore
SplineSet
40 308 m 0
 40 208.666992188 77.8330078125 129.5 153.5 70.5 c 128
 229.166992188 11.5 321 -18 429 -18 c 0
 483.666992188 -18 540 -6 598 18 c 128
 656 42 701.666992188 75.6669921875 735 119 c 1
 785 0 l 1
 1257 0 l 1
 1257 305 l 1
 1181 305 l 1
 1181 750 l 2
 1181 796 1172.5 837.5 1155.5 874.5 c 128
 1138.5 911.5 1117.5 941.666992188 1092.5 965 c 128
 1067.5 988.333007812 1036.16699219 1008.5 998.5 1025.5 c 128
 960.833007812 1042.5 925.833007812 1055.16699219 893.5 1063.5 c 128
 861.166992188 1071.83300781 824.166992188 1078.33300781 782.5 1083 c 128
 740.833007812 1087.66699219 709 1090.33300781 687 1091 c 128
 665 1091.66699219 640.333007812 1092 613 1092 c 0
 541.666992188 1092 465.666992188 1086.16699219 385 1074.5 c 128
 304.333007812 1062.83300781 241.666992188 1051.33300781 197 1040 c 2
 130 1022 l 1
 130 708 l 1
 305 708 l 1
 353 771.333007812 424.666992188 803 520 803 c 0
 660.666992188 803 731 747.666992188 731 637 c 2
 731 592 l 1
 657.666992188 617.333007812 572.333007812 630 475 630 c 0
 419.666992188 630 366.5 623.166992188 315.5 609.5 c 128
 264.5 595.833007812 218.333007812 576 177 550 c 128
 135.666992188 524 102.5 490 77.5 448 c 128
 52.5 406 40 359.333007812 40 308 c 0
530 326 m 0
 530 354.666992188 540.333007812 380.5 561 403.5 c 128
 581.666992188 426.5 606.333007812 438 635 438 c 0
 649.666992188 438 665.166992188 436.333007812 681.5 433 c 128
 697.833007812 429.666992188 710.666992188 426 720 422 c 2
 734 417 l 1
 734 270 l 1
 731.333007812 266.666992188 727.333007812 262.5 722 257.5 c 128
 716.666992188 252.5 704.666992188 245.666992188 686 237 c 128
 667.333007812 228.333007812 647.333007812 224 626 224 c 0
 596.666992188 224 573.333007812 233.5 556 252.5 c 128
 538.666992188 271.5 530 296 530 326 c 0
506 1708 m 1
 980 1271 l 1
 876 1130 l 1
 322 1443 l 1
 506 1708 l 1
EndSplineSet
EndChar

StartChar: aacute
Encoding: 225 225 163
Width: 1299
GlyphClass: 2
Flags: HMW
LayerCount: 2
Fore
SplineSet
40 308 m 0
 40 359.333007812 52.5 406 77.5 448 c 128
 102.5 490 135.666992188 524 177 550 c 128
 218.333007812 576 264.5 595.833007812 315.5 609.5 c 128
 366.5 623.166992188 419.666992188 630 475 630 c 0
 572.333007812 630 657.666992188 617.333007812 731 592 c 1
 731 637 l 2
 731 747.666992188 660.666992188 803 520 803 c 0
 424.666992188 803 353 771.333007812 305 708 c 1
 130 708 l 1
 130 1022 l 1
 197 1040 l 2
 241.666992188 1051.33300781 304.333007812 1062.83300781 385 1074.5 c 128
 465.666992188 1086.16699219 541.666992188 1092 613 1092 c 0
 640.333007812 1092 665 1091.66699219 687 1091 c 128
 709 1090.33300781 740.833007812 1087.66699219 782.5 1083 c 128
 824.166992188 1078.33300781 861.166992188 1071.83300781 893.5 1063.5 c 128
 925.833007812 1055.16699219 960.833007812 1042.5 998.5 1025.5 c 128
 1036.16699219 1008.5 1067.5 988.333007812 1092.5 965 c 128
 1117.5 941.666992188 1138.5 911.5 1155.5 874.5 c 128
 1172.5 837.5 1181 796 1181 750 c 2
 1181 305 l 1
 1257 305 l 1
 1257 0 l 1
 785 0 l 1
 735 119 l 1
 701.666992188 75.6669921875 656 42 598 18 c 128
 540 -6 483.666992188 -18 429 -18 c 0
 321 -18 229.166992188 11.5 153.5 70.5 c 128
 77.8330078125 129.5 40 208.666992188 40 308 c 0
530 326 m 0
 530 296 538.666992188 271.5 556 252.5 c 128
 573.333007812 233.5 596.666992188 224 626 224 c 0
 647.333007812 224 667.333007812 228.333007812 686 237 c 128
 704.666992188 245.666992188 716.666992188 252.5 722 257.5 c 128
 727.333007812 262.5 731.333007812 266.666992188 734 270 c 1
 734 417 l 1
 720 422 l 2
 710.666992188 426 697.833007812 429.666992188 681.5 433 c 128
 665.166992188 436.333007812 649.666992188 438 635 438 c 0
 606.333007812 438 581.666992188 426.5 561 403.5 c 128
 540.333007812 380.5 530 354.666992188 530 326 c 0
1102 1443 m 1
 548 1130 l 1
 444 1271 l 1
 918 1708 l 1
 1102 1443 l 1
EndSplineSet
EndChar

StartChar: acircumflex
Encoding: 226 226 164
Width: 1299
GlyphClass: 2
Flags: HMW
LayerCount: 2
Fore
SplineSet
40 308 m 0
 40 359.333007812 52.5 406 77.5 448 c 128
 102.5 490 135.666992188 524 177 550 c 128
 218.333007812 576 264.5 595.833007812 315.5 609.5 c 128
 366.5 623.166992188 419.666992188 630 475 630 c 0
 572.333007812 630 657.666992188 617.333007812 731 592 c 1
 731 637 l 2
 731 747.666992188 660.666992188 803 520 803 c 0
 424.666992188 803 353 771.333007812 305 708 c 1
 130 708 l 1
 130 1022 l 1
 197 1040 l 2
 241.666992188 1051.33300781 304.333007812 1062.83300781 385 1074.5 c 128
 465.666992188 1086.16699219 541.666992188 1092 613 1092 c 0
 640.333007812 1092 665 1091.66699219 687 1091 c 128
 709 1090.33300781 740.833007812 1087.66699219 782.5 1083 c 128
 824.166992188 1078.33300781 861.166992188 1071.83300781 893.5 1063.5 c 128
 925.833007812 1055.16699219 960.833007812 1042.5 998.5 1025.5 c 128
 1036.16699219 1008.5 1067.5 988.333007812 1092.5 965 c 128
 1117.5 941.666992188 1138.5 911.5 1155.5 874.5 c 128
 1172.5 837.5 1181 796 1181 750 c 2
 1181 305 l 1
 1257 305 l 1
 1257 0 l 1
 785 0 l 1
 735 119 l 1
 701.666992188 75.6669921875 656 42 598 18 c 128
 540 -6 483.666992188 -18 429 -18 c 0
 321 -18 229.166992188 11.5 153.5 70.5 c 128
 77.8330078125 129.5 40 208.666992188 40 308 c 0
530 326 m 0
 530 296 538.666992188 271.5 556 252.5 c 128
 573.333007812 233.5 596.666992188 224 626 224 c 0
 647.333007812 224 667.333007812 228.333007812 686 237 c 128
 704.666992188 245.666992188 716.666992188 252.5 722 257.5 c 128
 727.333007812 262.5 731.333007812 266.666992188 734 270 c 1
 734 417 l 1
 720 422 l 2
 710.666992188 426 697.833007812 429.666992188 681.5 433 c 128
 665.166992188 436.333007812 649.666992188 438 635 438 c 0
 606.333007812 438 581.666992188 426.5 561 403.5 c 128
 540.333007812 380.5 530 354.666992188 530 326 c 0
786 1600 m 1
 1060 1224 l 1
 906 1123 l 1
 651 1368 l 1
 396 1123 l 1
 242 1224 l 1
 515 1601 l 1
 786 1600 l 1
EndSplineSet
EndChar

StartChar: atilde
Encoding: 227 227 165
Width: 1300
GlyphClass: 2
Flags: HMW
LayerCount: 2
Fore
SplineSet
40 308 m 0
 40 208.666992188 77.8330078125 129.5 153.5 70.5 c 128
 229.166992188 11.5 321 -18 429 -18 c 0
 483.666992188 -18 540 -6 598 18 c 128
 656 42 701.666992188 75.6669921875 735 119 c 1
 785 0 l 1
 1257 0 l 1
 1257 305 l 1
 1181 305 l 1
 1181 750 l 2
 1181 796 1172.5 837.5 1155.5 874.5 c 128
 1138.5 911.5 1117.5 941.666992188 1092.5 965 c 128
 1067.5 988.333007812 1036.16699219 1008.5 998.5 1025.5 c 128
 960.833007812 1042.5 925.833007812 1055.16699219 893.5 1063.5 c 128
 861.166992188 1071.83300781 824.166992188 1078.33300781 782.5 1083 c 128
 740.833007812 1087.66699219 709 1090.33300781 687 1091 c 128
 665 1091.66699219 640.333007812 1092 613 1092 c 0
 541.666992188 1092 465.666992188 1086.16699219 385 1074.5 c 128
 304.333007812 1062.83300781 241.666992188 1051.33300781 197 1040 c 2
 130 1022 l 1
 130 708 l 1
 305 708 l 1
 353 771.333007812 424.666992188 803 520 803 c 0
 660.666992188 803 731 747.666992188 731 637 c 2
 731 592 l 1
 657.666992188 617.333007812 572.333007812 630 475 630 c 0
 419.666992188 630 366.5 623.166992188 315.5 609.5 c 128
 264.5 595.833007812 218.333007812 576 177 550 c 128
 135.666992188 524 102.5 490 77.5 448 c 128
 52.5 406 40 359.333007812 40 308 c 0
530 326 m 0
 530 354.666992188 540.333007812 380.5 561 403.5 c 128
 581.666992188 426.5 606.333007812 438 635 438 c 0
 649.666992188 438 665.166992188 436.333007812 681.5 433 c 128
 697.833007812 429.666992188 710.666992188 426 720 422 c 2
 734 417 l 1
 734 270 l 1
 731.333007812 266.666992188 727.333007812 262.5 722 257.5 c 128
 716.666992188 252.5 704.666992188 245.666992188 686 237 c 128
 667.333007812 228.333007812 647.333007812 224 626 224 c 0
 596.666992188 224 573.333007812 233.5 556 252.5 c 128
 538.666992188 271.5 530 296 530 326 c 0
799 1523 m 0
 828.333007812 1523 855 1516.66699219 879 1504 c 128
 903 1491.33300781 923.666992188 1473.5 941 1450.5 c 128
 958.333007812 1427.5 973.5 1404.66699219 986.5 1382 c 128
 999.5 1359.33300781 1013.83300781 1333 1029.5 1303 c 128
 1045.16699219 1273 1059 1249.33300781 1071 1232 c 1
 958 1158 l 1
 909.333007812 1204.66699219 875.833007812 1234.33300781 857.5 1247 c 128
 839.166992188 1259.66699219 823.666992188 1266 811 1266 c 0
 781 1266 745.333007812 1256 704 1236 c 128
 662.666992188 1216 619.833007812 1195.83300781 575.5 1175.5 c 128
 531.166992188 1155.16699219 490.666992188 1145 454 1145 c 0
 424 1145 397 1151.16699219 373 1163.5 c 128
 349 1175.83300781 328.166992188 1193.5 310.5 1216.5 c 128
 292.833007812 1239.5 277.666992188 1262.16699219 265 1284.5 c 128
 252.333007812 1306.83300781 238 1333.16699219 222 1363.5 c 128
 206 1393.83300781 192 1417.66699219 180 1435 c 1
 294 1510 l 1
 344.666992188 1461.33300781 379.333007812 1430.5 398 1417.5 c 128
 416.666992188 1404.5 432 1398 444 1398 c 0
 468 1398 495.666992188 1404.5 527 1417.5 c 128
 558.333007812 1430.5 587 1444.83300781 613 1460.5 c 128
 639 1476.16699219 669 1490.5 703 1503.5 c 128
 737 1516.5 769 1523 799 1523 c 0
EndSplineSet
EndChar

StartChar: adieresis
Encoding: 228 228 166
Width: 1298
GlyphClass: 2
Flags: HMW
LayerCount: 2
Fore
SplineSet
40 308 m 0
 40 208.666992188 77.8330078125 129.5 153.5 70.5 c 128
 229.166992188 11.5 321 -18 429 -18 c 0
 483.666992188 -18 540 -6 598 18 c 128
 656 42 701.666992188 75.6669921875 735 119 c 1
 785 0 l 1
 1257 0 l 1
 1257 305 l 1
 1181 305 l 1
 1181 750 l 2
 1181 796 1172.5 837.5 1155.5 874.5 c 128
 1138.5 911.5 1117.5 941.666992188 1092.5 965 c 128
 1067.5 988.333007812 1036.16699219 1008.5 998.5 1025.5 c 128
 960.833007812 1042.5 925.833007812 1055.16699219 893.5 1063.5 c 128
 861.166992188 1071.83300781 824.166992188 1078.33300781 782.5 1083 c 128
 740.833007812 1087.66699219 709 1090.33300781 687 1091 c 128
 665 1091.66699219 640.333007812 1092 613 1092 c 0
 541.666992188 1092 465.666992188 1086.16699219 385 1074.5 c 128
 304.333007812 1062.83300781 241.666992188 1051.33300781 197 1040 c 2
 130 1022 l 1
 130 708 l 1
 305 708 l 1
 353 771.333007812 424.666992188 803 520 803 c 0
 660.666992188 803 731 747.666992188 731 637 c 2
 731 592 l 1
 657.666992188 617.333007812 572.333007812 630 475 630 c 0
 419.666992188 630 366.5 623.166992188 315.5 609.5 c 128
 264.5 595.833007812 218.333007812 576 177 550 c 128
 135.666992188 524 102.5 490 77.5 448 c 128
 52.5 406 40 359.333007812 40 308 c 0
530 326 m 0
 530 354.666992188 540.333007812 380.5 561 403.5 c 128
 581.666992188 426.5 606.333007812 438 635 438 c 0
 649.666992188 438 665.166992188 436.333007812 681.5 433 c 128
 697.833007812 429.666992188 710.666992188 426 720 422 c 2
 734 417 l 1
 734 270 l 1
 731.333007812 266.666992188 727.333007812 262.5 722 257.5 c 128
 716.666992188 252.5 704.666992188 245.666992188 686 237 c 128
 667.333007812 228.333007812 647.333007812 224 626 224 c 0
 596.666992188 224 573.333007812 233.5 556 252.5 c 128
 538.666992188 271.5 530 296 530 326 c 0
569 1342 m 0
 569 1270 546.833007812 1213.66699219 502.5 1173 c 128
 458.166992188 1132.33300781 405.666992188 1112 345 1112 c 0
 283 1112 229.5 1132.5 184.5 1173.5 c 128
 139.5 1214.5 117 1271.66699219 117 1345 c 0
 117 1416.33300781 139.333007812 1472 184 1512 c 128
 228.666992188 1552 281.666992188 1572 343 1572 c 128
 404.333007812 1572 457.333007812 1551.83300781 502 1511.5 c 128
 546.666992188 1471.16699219 569 1414.66699219 569 1342 c 0
1186 1342 m 0
 1186 1270 1163.83300781 1213.66699219 1119.5 1173 c 128
 1075.16699219 1132.33300781 1022.66699219 1112 962 1112 c 0
 900 1112 846.5 1132.5 801.5 1173.5 c 128
 756.5 1214.5 734 1271.66699219 734 1345 c 0
 734 1416.33300781 756.333007812 1472 801 1512 c 128
 845.666992188 1552 898.666992188 1572 960 1572 c 128
 1021.33300781 1572 1074.33300781 1551.83300781 1119 1511.5 c 128
 1163.66699219 1471.16699219 1186 1414.66699219 1186 1342 c 0
EndSplineSet
EndChar

StartChar: aring
Encoding: 229 229 167
Width: 1300
GlyphClass: 2
Flags: HMW
LayerCount: 2
Fore
SplineSet
40 308 m 0
 40 359.333007812 52.5 406 77.5 448 c 128
 102.5 490 135.666992188 524 177 550 c 128
 218.333007812 576 264.5 595.833007812 315.5 609.5 c 128
 366.5 623.166992188 419.666992188 630 475 630 c 0
 572.333007812 630 657.666992188 617.333007812 731 592 c 1
 731 637 l 2
 731 747.666992188 660.666992188 803 520 803 c 0
 424.666992188 803 353 771.333007812 305 708 c 1
 130 708 l 1
 130 1022 l 1
 197 1040 l 2
 241.666992188 1051.33300781 304.333007812 1062.83300781 385 1074.5 c 128
 465.666992188 1086.16699219 541.666992188 1092 613 1092 c 0
 640.333007812 1092 665 1091.66699219 687 1091 c 128
 709 1090.33300781 740.833007812 1087.66699219 782.5 1083 c 128
 824.166992188 1078.33300781 861.166992188 1071.83300781 893.5 1063.5 c 128
 925.833007812 1055.16699219 960.833007812 1042.5 998.5 1025.5 c 128
 1036.16699219 1008.5 1067.5 988.333007812 1092.5 965 c 128
 1117.5 941.666992188 1138.5 911.5 1155.5 874.5 c 128
 1172.5 837.5 1181 796 1181 750 c 2
 1181 305 l 1
 1257 305 l 1
 1257 0 l 1
 785 0 l 1
 735 119 l 1
 701.666992188 75.6669921875 656 42 598 18 c 128
 540 -6 483.666992188 -18 429 -18 c 0
 321 -18 229.166992188 11.5 153.5 70.5 c 128
 77.8330078125 129.5 40 208.666992188 40 308 c 0
530 326 m 0
 530 296 538.666992188 271.5 556 252.5 c 128
 573.333007812 233.5 596.666992188 224 626 224 c 0
 647.333007812 224 667.333007812 228.333007812 686 237 c 128
 704.666992188 245.666992188 716.666992188 252.5 722 257.5 c 128
 727.333007812 262.5 731.333007812 266.666992188 734 270 c 1
 734 417 l 1
 720 422 l 2
 710.666992188 426 697.833007812 429.666992188 681.5 433 c 128
 665.166992188 436.333007812 649.666992188 438 635 438 c 0
 606.333007812 438 581.666992188 426.5 561 403.5 c 128
 540.333007812 380.5 530 354.666992188 530 326 c 0
647 1240 m 0
 698.333007812 1240 738.666992188 1254.66699219 768 1284 c 128
 797.333007812 1313.33300781 812 1348 812 1388 c 0
 812 1427.33300781 797.5 1461.33300781 768.5 1490 c 128
 739.5 1518.66699219 699 1533 647 1533 c 0
 596.333007812 1533 556.833007812 1518.66699219 528.5 1490 c 128
 500.166992188 1461.33300781 486 1427.33300781 486 1388 c 0
 486 1348 500.333007812 1313.33300781 529 1284 c 128
 557.666992188 1254.66699219 597 1240 647 1240 c 0
647 1138 m 0
 562.333007812 1138 496 1163 448 1213 c 128
 400 1263 376 1321.66699219 376 1389 c 0
 376 1455 399.666992188 1512.16699219 447 1560.5 c 128
 494.333007812 1608.83300781 561 1633 647 1633 c 0
 735.666992188 1633 804.5 1609 853.5 1561 c 128
 902.5 1513 927 1455.66699219 927 1389 c 0
 927 1321.66699219 902.166992188 1263 852.5 1213 c 128
 802.833007812 1163 734.333007812 1138 647 1138 c 0
EndSplineSet
EndChar

StartChar: ae
Encoding: 230 230 168
Width: 1921
GlyphClass: 2
Flags: HMW
LayerCount: 2
Fore
SplineSet
44 299 m 0
 44 350.333007812 56.5 397 81.5 439 c 128
 106.5 481 139.666992188 515 181 541 c 128
 222.333007812 567 268.5 586.833007812 319.5 600.5 c 128
 370.5 614.166992188 423.666992188 621 479 621 c 0
 576.333007812 621 661.666992188 608.333007812 735 583 c 1
 735 628 l 2
 735 738.666992188 664.666992188 794 524 794 c 0
 428.666992188 794 357 762.333007812 309 699 c 1
 134 699 l 1
 134 1013 l 1
 201 1030 l 2
 245.666992188 1042 308.333007812 1053.83300781 389 1065.5 c 128
 469.666992188 1077.16699219 545.666992188 1083 617 1083 c 0
 662.333007812 1083 706.333007812 1078.66699219 749 1070 c 128
 791.666992188 1061.33300781 826 1051.5 852 1040.5 c 128
 878 1029.5 902.5 1017 925.5 1003 c 128
 948.5 989 963.333007812 979.333007812 970 974 c 128
 976.666992188 968.666992188 981.666992188 964.333007812 985 961 c 1
 999 974 l 2
 1007.66699219 982.666992188 1022 993 1042 1005 c 128
 1062 1017 1084.83300781 1029 1110.5 1041 c 128
 1136.16699219 1053 1168.5 1063.33300781 1207.5 1072 c 128
 1246.5 1080.66699219 1287 1085 1329 1085 c 0
 1443.66699219 1085 1543.33300781 1060.5 1628 1011.5 c 128
 1712.66699219 962.5 1775.83300781 898 1817.5 818 c 128
 1859.16699219 738 1880 648 1880 548 c 0
 1880 525.333007812 1878.33300781 499 1875 469 c 1
 1869 455 1864.5 446.833007812 1861.5 444.5 c 128
 1858.5 442.166992188 1850.66699219 441 1838 441 c 2
 1236 441 l 1
 1236 379 1251.83300781 325.833007812 1283.5 281.5 c 128
 1315.16699219 237.166992188 1358.33300781 215 1413 215 c 0
 1461 215 1496 226.666992188 1518 250 c 128
 1540 273.333007812 1551.66699219 309.333007812 1553 358 c 1
 1860 358 l 1
 1860 120 l 1
 1772 67.3330078125 1685.5 30 1600.5 8 c 128
 1515.5 -14 1419.66699219 -25 1313 -25 c 0
 1187 -25 1076.33300781 18.3330078125 981 105 c 1
 912.333007812 54.3330078125 836.5 19.3330078125 753.5 0 c 128
 670.5 -19.3330078125 563.666992188 -28.3330078125 433 -27 c 0
 363 -26.3330078125 299 -13.5 241 11.5 c 128
 183 36.5 135.666992188 74 99 124 c 128
 62.3330078125 174 44 232.333007812 44 299 c 0
534 317 m 0
 534 287 542.666992188 262.5 560 243.5 c 128
 577.333007812 224.5 600.666992188 215 630 215 c 0
 651.333007812 215 671.333007812 219.333007812 690 228 c 128
 708.666992188 236.666992188 720.666992188 243.5 726 248.5 c 128
 731.333007812 253.5 735.333007812 257.666992188 738 261 c 1
 738 408 l 1
 724 413 l 2
 714.666992188 416.333007812 701.833007812 419.833007812 685.5 423.5 c 128
 669.166992188 427.166992188 653.666992188 429 639 429 c 0
 610.333007812 429 585.666992188 417.5 565 394.5 c 128
 544.333007812 371.5 534 345.666992188 534 317 c 0
1238 620 m 1
 1453 620 l 1
 1453.66699219 643.333007812 1453.16699219 663.666992188 1451.5 681 c 128
 1449.83300781 698.333007812 1446 717.833007812 1440 739.5 c 128
 1434 761.166992188 1423 777.833007812 1407 789.5 c 128
 1391 801.166992188 1370.66699219 807 1346 807 c 0
 1310 807 1283 790.833007812 1265 758.5 c 128
 1247 726.166992188 1238 689.666992188 1238 649 c 2
 1238 620 l 1
EndSplineSet
EndChar

StartChar: ccedilla
Encoding: 231 231 169
Width: 1097
GlyphClass: 2
Flags: HMW
LayerCount: 2
Fore
SplineSet
38 546 m 0
 38 618.666992188 50.1669921875 688 74.5 754 c 128
 98.8330078125 820 132.833007812 878 176.5 928 c 128
 220.166992188 978 275 1017.83300781 341 1047.5 c 128
 407 1077.16699219 479 1092 557 1092 c 0
 648.333007812 1092 734.333007812 1059.66699219 815 995 c 1
 856 1072 l 1
 1031 1072 l 1
 1031 628 l 1
 789 628 l 1
 789 672 777 708 753 736 c 128
 729 764 700 778 666 778 c 0
 624 778 587.666992188 756.333007812 557 713 c 128
 526.333007812 669.666992188 511 603 511 513 c 0
 511 486.333007812 513.5 461 518.5 437 c 128
 523.5 413 531.666992188 390 543 368 c 128
 554.333007812 346 570.5 328.333007812 591.5 315 c 128
 612.5 301.666992188 637.333007812 295 666 295 c 0
 687.333007812 295 706.166992188 299.666992188 722.5 309 c 128
 738.833007812 318.333007812 751.166992188 328.666992188 759.5 340 c 128
 767.833007812 351.333007812 774.833007812 364.5 780.5 379.5 c 128
 786.166992188 394.5 789.5 405 790.5 411 c 128
 791.5 417 792.333007812 421.666992188 793 425 c 1
 1033 425 l 1
 1033 124 l 1
 987 78 922.666992188 42.8330078125 840 18.5 c 128
 757.333007812 -5.8330078125 674 -18 590 -18 c 0
 484.666992188 -18 390.833007812 3.1669921875 308.5 45.5 c 128
 226.166992188 87.8330078125 160.5 152.166992188 111.5 238.5 c 128
 62.5 324.833007812 38 427.333007812 38 546 c 0
469 0 m 1
 649 0 l 1
 649 -119 l 1
 737.666992188 -170.333007812 782 -225.666992188 782 -285 c 0
 782 -339.666992188 745.833007812 -386.666992188 673.5 -426 c 128
 601.166992188 -465.333007812 514.333007812 -485 413 -485 c 2
 392 -485 l 1
 392 -372 l 1
 456.666992188 -371.333007812 504 -361.666992188 534 -343 c 128
 564 -324.333007812 579 -300.333007812 579 -271 c 0
 579 -244.333007812 568.333007812 -216.666992188 547 -188 c 128
 525.666992188 -159.333007812 499.666992188 -136.333007812 469 -119 c 1
 469 0 l 1
EndSplineSet
EndChar

StartChar: egrave
Encoding: 232 232 170
Width: 1210
GlyphClass: 2
Flags: HMW
LayerCount: 2
Fore
SplineSet
607 -18 m 0
 713.666992188 -18 809.5 -7 894.5 15 c 128
 979.5 37 1066 74.3330078125 1154 127 c 1
 1154 365 l 1
 847 365 l 1
 845.666992188 316.333007812 834 280.333007812 812 257 c 128
 790 233.666992188 755 222 707 222 c 0
 652.333007812 222 609.166992188 244.166992188 577.5 288.5 c 128
 545.833007812 332.833007812 530 386 530 448 c 1
 1132 448 l 2
 1144.66699219 448 1152.5 449.166992188 1155.5 451.5 c 128
 1158.5 453.833007812 1163 462 1169 476 c 1
 1172.33300781 506 1174 532.333007812 1174 555 c 0
 1174 655 1153.16699219 745 1111.5 825 c 128
 1069.83300781 905 1006.66699219 969.5 922 1018.5 c 128
 837.333007812 1067.5 737.666992188 1092 623 1092 c 0
 503 1092 398.166992188 1067.16699219 308.5 1017.5 c 128
 218.833007812 967.833007812 151 900.166992188 105 814.5 c 128
 59 728.833007812 36 631 36 521 c 0
 36 423 60.3330078125 333 109 251 c 128
 157.666992188 169 225.833007812 103.666992188 313.5 55 c 128
 401.166992188 6.3330078125 499 -18 607 -18 c 0
532 656 m 2
 532 696.666992188 541 733.166992188 559 765.5 c 128
 577 797.833007812 604 814 640 814 c 0
 664.666992188 814 685 808.166992188 701 796.5 c 128
 717 784.833007812 728 768.166992188 734 746.5 c 128
 740 724.833007812 743.833007812 705.333007812 745.5 688 c 128
 747.166992188 670.666992188 747.666992188 650.333007812 747 627 c 1
 532 627 l 1
 532 656 l 2
456 1708 m 1
 930 1271 l 1
 826 1130 l 1
 272 1443 l 1
 456 1708 l 1
EndSplineSet
EndChar

StartChar: eacute
Encoding: 233 233 171
Width: 1210
GlyphClass: 2
Flags: HMW
LayerCount: 2
Fore
SplineSet
607 -18 m 0
 499 -18 401.166992188 6.3330078125 313.5 55 c 128
 225.833007812 103.666992188 157.666992188 169 109 251 c 128
 60.3330078125 333 36 423 36 521 c 0
 36 631 59 728.833007812 105 814.5 c 128
 151 900.166992188 218.833007812 967.833007812 308.5 1017.5 c 128
 398.166992188 1067.16699219 503 1092 623 1092 c 0
 737.666992188 1092 837.333007812 1067.5 922 1018.5 c 128
 1006.66699219 969.5 1069.83300781 905 1111.5 825 c 128
 1153.16699219 745 1174 655 1174 555 c 0
 1174 532.333007812 1172.33300781 506 1169 476 c 1
 1163 462 1158.5 453.833007812 1155.5 451.5 c 128
 1152.5 449.166992188 1144.66699219 448 1132 448 c 2
 530 448 l 1
 530 386 545.833007812 332.833007812 577.5 288.5 c 128
 609.166992188 244.166992188 652.333007812 222 707 222 c 0
 755 222 790 233.666992188 812 257 c 128
 834 280.333007812 845.666992188 316.333007812 847 365 c 1
 1154 365 l 1
 1154 127 l 1
 1066 74.3330078125 979.5 37 894.5 15 c 128
 809.5 -7 713.666992188 -18 607 -18 c 0
532 627 m 1
 747 627 l 1
 747.666992188 650.333007812 747.166992188 670.666992188 745.5 688 c 128
 743.833007812 705.333007812 740 724.833007812 734 746.5 c 128
 728 768.166992188 717 784.833007812 701 796.5 c 128
 685 808.166992188 664.666992188 814 640 814 c 0
 604 814 577 797.833007812 559 765.5 c 128
 541 733.166992188 532 696.666992188 532 656 c 2
 532 627 l 1
930 1443 m 1
 376 1130 l 1
 272 1271 l 1
 746 1708 l 1
 930 1443 l 1
EndSplineSet
EndChar

StartChar: ecircumflex
Encoding: 234 234 172
Width: 1210
GlyphClass: 2
Flags: HMW
LayerCount: 2
Fore
SplineSet
607 -18 m 0
 499 -18 401.166992188 6.3330078125 313.5 55 c 128
 225.833007812 103.666992188 157.666992188 169 109 251 c 128
 60.3330078125 333 36 423 36 521 c 0
 36 631 59 728.833007812 105 814.5 c 128
 151 900.166992188 218.833007812 967.833007812 308.5 1017.5 c 128
 398.166992188 1067.16699219 503 1092 623 1092 c 0
 737.666992188 1092 837.333007812 1067.5 922 1018.5 c 128
 1006.66699219 969.5 1069.83300781 905 1111.5 825 c 128
 1153.16699219 745 1174 655 1174 555 c 0
 1174 532.333007812 1172.33300781 506 1169 476 c 1
 1163 462 1158.5 453.833007812 1155.5 451.5 c 128
 1152.5 449.166992188 1144.66699219 448 1132 448 c 2
 530 448 l 1
 530 386 545.833007812 332.833007812 577.5 288.5 c 128
 609.166992188 244.166992188 652.333007812 222 707 222 c 0
 755 222 790 233.666992188 812 257 c 128
 834 280.333007812 845.666992188 316.333007812 847 365 c 1
 1154 365 l 1
 1154 127 l 1
 1066 74.3330078125 979.5 37 894.5 15 c 128
 809.5 -7 713.666992188 -18 607 -18 c 0
532 627 m 1
 747 627 l 1
 747.666992188 650.333007812 747.166992188 670.666992188 745.5 688 c 128
 743.833007812 705.333007812 740 724.833007812 734 746.5 c 128
 728 768.166992188 717 784.833007812 701 796.5 c 128
 685 808.166992188 664.666992188 814 640 814 c 0
 604 814 577 797.833007812 559 765.5 c 128
 541 733.166992188 532 696.666992188 532 656 c 2
 532 627 l 1
736 1600 m 1
 1010 1224 l 1
 856 1123 l 1
 601 1368 l 1
 346 1123 l 1
 192 1224 l 1
 465 1601 l 1
 736 1600 l 1
EndSplineSet
EndChar

StartChar: edieresis
Encoding: 235 235 173
Width: 1211
GlyphClass: 2
Flags: HMW
LayerCount: 2
Fore
SplineSet
607 -18 m 0
 713.666992188 -18 809.5 -7 894.5 15 c 128
 979.5 37 1066 74.3330078125 1154 127 c 1
 1154 365 l 1
 847 365 l 1
 845.666992188 316.333007812 834 280.333007812 812 257 c 128
 790 233.666992188 755 222 707 222 c 0
 652.333007812 222 609.166992188 244.166992188 577.5 288.5 c 128
 545.833007812 332.833007812 530 386 530 448 c 1
 1132 448 l 2
 1144.66699219 448 1152.5 449.166992188 1155.5 451.5 c 128
 1158.5 453.833007812 1163 462 1169 476 c 1
 1172.33300781 506 1174 532.333007812 1174 555 c 0
 1174 655 1153.16699219 745 1111.5 825 c 128
 1069.83300781 905 1006.66699219 969.5 922 1018.5 c 128
 837.333007812 1067.5 737.666992188 1092 623 1092 c 0
 503 1092 398.166992188 1067.16699219 308.5 1017.5 c 128
 218.833007812 967.833007812 151 900.166992188 105 814.5 c 128
 59 728.833007812 36 631 36 521 c 0
 36 423 60.3330078125 333 109 251 c 128
 157.666992188 169 225.833007812 103.666992188 313.5 55 c 128
 401.166992188 6.3330078125 499 -18 607 -18 c 0
532 656 m 2
 532 696.666992188 541 733.166992188 559 765.5 c 128
 577 797.833007812 604 814 640 814 c 0
 664.666992188 814 685 808.166992188 701 796.5 c 128
 717 784.833007812 728 768.166992188 734 746.5 c 128
 740 724.833007812 743.833007812 705.333007812 745.5 688 c 128
 747.166992188 670.666992188 747.666992188 650.333007812 747 627 c 1
 532 627 l 1
 532 656 l 2
519 1342 m 0
 519 1270 496.833007812 1213.66699219 452.5 1173 c 128
 408.166992188 1132.33300781 355.666992188 1112 295 1112 c 0
 233 1112 179.5 1132.5 134.5 1173.5 c 128
 89.5 1214.5 67 1271.66699219 67 1345 c 0
 67 1416.33300781 89.3330078125 1472 134 1512 c 128
 178.666992188 1552 231.666992188 1572 293 1572 c 128
 354.333007812 1572 407.333007812 1551.83300781 452 1511.5 c 128
 496.666992188 1471.16699219 519 1414.66699219 519 1342 c 0
1136 1342 m 0
 1136 1270 1113.83300781 1213.66699219 1069.5 1173 c 128
 1025.16699219 1132.33300781 972.666992188 1112 912 1112 c 0
 850 1112 796.5 1132.5 751.5 1173.5 c 128
 706.5 1214.5 684 1271.66699219 684 1345 c 0
 684 1416.33300781 706.333007812 1472 751 1512 c 128
 795.666992188 1552 848.666992188 1572 910 1572 c 128
 971.333007812 1572 1024.33300781 1551.83300781 1069 1511.5 c 128
 1113.66699219 1471.16699219 1136 1414.66699219 1136 1342 c 0
EndSplineSet
EndChar

StartChar: igrave
Encoding: 236 236 174
Width: 749
GlyphClass: 2
Flags: HMW
LayerCount: 2
Fore
SplineSet
233 1708 m 1
 707 1271 l 1
 603 1130 l 1
 49 1443 l 1
 233 1708 l 1
624 1072 m 1
 54 1072 l 1
 54 747 l 1
 143 747 l 1
 143 299 l 1
 61 299 l 1
 61 0 l 1
 708 0 l 1
 708 299 l 1
 624 299 l 1
 624 1072 l 1
EndSplineSet
EndChar

StartChar: iacute
Encoding: 237 237 175
Width: 749
GlyphClass: 2
Flags: HMW
LayerCount: 2
Fore
SplineSet
706 1443 m 1
 152 1130 l 1
 48 1271 l 1
 522 1708 l 1
 706 1443 l 1
623 299 m 1
 707 299 l 1
 707 0 l 1
 60 0 l 1
 60 299 l 1
 142 299 l 1
 142 747 l 1
 53 747 l 1
 53 1072 l 1
 623 1072 l 1
 623 299 l 1
EndSplineSet
EndChar

StartChar: icircumflex
Encoding: 238 238 176
Width: 857
GlyphClass: 2
Flags: HMW
LayerCount: 2
Fore
SplineSet
564 1600 m 1
 838 1224 l 1
 684 1123 l 1
 429 1368 l 1
 174 1123 l 1
 20 1224 l 1
 293 1601 l 1
 564 1600 l 1
675 299 m 1
 759 299 l 1
 759 0 l 1
 112 0 l 1
 112 299 l 1
 194 299 l 1
 194 747 l 1
 105 747 l 1
 105 1072 l 1
 675 1072 l 1
 675 299 l 1
EndSplineSet
EndChar

StartChar: idieresis
Encoding: 239 239 177
Width: 1131
GlyphClass: 2
Flags: HMW
LayerCount: 2
Fore
SplineSet
483 1342 m 0
 483 1270 460.833007812 1213.66699219 416.5 1173 c 128
 372.166992188 1132.33300781 319.666992188 1112 259 1112 c 0
 197 1112 143.5 1132.5 98.5 1173.5 c 128
 53.5 1214.5 31 1271.66699219 31 1345 c 0
 31 1416.33300781 53.3330078125 1472 98 1512 c 128
 142.666992188 1552 195.666992188 1572 257 1572 c 128
 318.333007812 1572 371.333007812 1551.83300781 416 1511.5 c 128
 460.666992188 1471.16699219 483 1414.66699219 483 1342 c 0
1100 1342 m 0
 1100 1270 1077.83300781 1213.66699219 1033.5 1173 c 128
 989.166992188 1132.33300781 936.666992188 1112 876 1112 c 0
 814 1112 760.5 1132.5 715.5 1173.5 c 128
 670.5 1214.5 648 1271.66699219 648 1345 c 0
 648 1416.33300781 670.333007812 1472 715 1512 c 128
 759.666992188 1552 812.666992188 1572 874 1572 c 128
 935.333007812 1572 988.333007812 1551.83300781 1033 1511.5 c 128
 1077.66699219 1471.16699219 1100 1414.66699219 1100 1342 c 0
811 1072 m 1
 241 1072 l 1
 241 747 l 1
 330 747 l 1
 330 299 l 1
 248 299 l 1
 248 0 l 1
 895 0 l 1
 895 299 l 1
 811 299 l 1
 811 1072 l 1
EndSplineSet
EndChar

